AnekMalayalam-ExpandedMedium.ufo
<glyph name="parenleft" format="2">
  <advance width="774"/>
  <unicode hex="0028"/>
  <outline>
    <contour>
      <point x="384" y="566" type="line" smooth="yes"/>
      <point x="384" y="852"/>
      <point x="490" y="1124"/>
      <point x="706" y="1348" type="curve"/>
      <point x="472" y="1348" type="line"/>
      <point x="268" y="1131"/>
      <point x="168" y="865"/>
      <point x="168" y="566" type="curve" smooth="yes"/>
      <point x="168" y="547" type="line" smooth="yes"/>
      <point x="168" y="236"/>
      <point x="263" y="-28"/>
      <point x="468" y="-248" type="curve"/>
      <point x="706" y="-248" type="line"/>
      <point x="489" y="-21"/>
      <point x="384" y="255"/>
      <point x="384" y="547" type="curve" smooth="yes"/>
    </contour>
  </outline>
</glyph>
<glyph name="hyphen" format="2">
  <advance width="1022"/>
  <unicode hex="002D"/>
  <outline>
    <contour>
      <point x="882" y="438" type="line"/>
      <point x="882" y="610" type="line"/>
      <point x="140" y="610" type="line"/>
      <point x="140" y="438" type="line"/>
    </contour>
  </outline>
</glyph>
<glyph name="three" format="2">
  <advance width="1372"/>
  <unicode hex="0033"/>
  <outline>
    <contour>
      <point x="648" y="-29" type="curve" smooth="yes"/>
      <point x="1064" y="-29"/>
      <point x="1267" y="118"/>
      <point x="1267" y="357" type="curve" smooth="yes"/>
      <point x="1267" y="370" type="line" smooth="yes"/>
      <point x="1267" y="549"/>
      <point x="1176" y="645"/>
      <point x="977" y="673" type="curve"/>
      <point x="983" y="651" type="line"/>
      <point x="983" y="682" type="line"/>
      <point x="1167" y="705"/>
      <point x="1253" y="798"/>
      <point x="1253" y="955" type="curve" smooth="yes"/>
      <point x="1253" y="968" type="line" smooth="yes"/>
      <point x="1253" y="1187"/>
      <point x="1066" y="1306"/>
      <point x="678" y="1306" type="curve" smooth="yes"/>
      <point x="430" y="1306"/>
      <point x="249" y="1251"/>
      <point x="134" y="1195" type="curve"/>
      <point x="110" y="1005" type="line"/>
      <point x="237" y="1065"/>
      <point x="444" y="1124"/>
      <point x="651" y="1124" type="curve" smooth="yes"/>
      <point x="922" y="1124"/>
      <point x="1024" y="1061"/>
      <point x="1024" y="942" type="curve" smooth="yes"/>
      <point x="1024" y="934" type="line" smooth="yes"/>
      <point x="1024" y="825"/>
      <point x="946" y="756"/>
      <point x="714" y="752" type="curve" smooth="yes"/>
      <point x="335" y="746" type="line"/>
      <point x="335" y="572" type="line"/>
      <point x="714" y="568" type="line" smooth="yes"/>
      <point x="954" y="565"/>
      <point x="1035" y="499"/>
      <point x="1035" y="377" type="curve" smooth="yes"/>
      <point x="1035" y="366" type="line" smooth="yes"/>
      <point x="1035" y="241"/>
      <point x="924" y="161"/>
      <point x="638" y="161" type="curve" smooth="yes"/>
      <point x="417" y="161"/>
      <point x="231" y="216"/>
      <point x="102" y="276" type="curve"/>
      <point x="126" y="69" type="line"/>
      <point x="223" y="29"/>
      <point x="413" y="-29"/>
    </contour>
  </outline>
</glyph>
<glyph name="four" format="2">
  <advance width="1426"/>
  <unicode hex="0034"/>
  <outline>
    <contour>
      <point x="1166" y="0" type="line"/>
      <point x="1166" y="1278" type="line"/>
      <point x="802" y="1278" type="line"/>
      <point x="71" y="477" type="line"/>
      <point x="71" y="257" type="line"/>
      <point x="1390" y="257" type="line"/>
      <point x="1390" y="439" type="line"/>
      <point x="230" y="439" type="line"/>
      <point x="316" y="346" type="line"/>
      <point x="316" y="458" type="line"/>
      <point x="920" y="1122" type="line"/>
      <point x="953" y="1122" type="line"/>
      <point x="950" y="869" type="line"/>
      <point x="950" y="0" type="line"/>
    </contour>
  </outline>
</glyph>
<glyph name="nine" format="2">
  <advance width="1478"/>
  <unicode hex="0039"/>
  <outline>
    <contour>
      <point x="709" y="1304" type="curve" smooth="yes"/>
      <point x="318" y="1304"/>
      <point x="105" y="1145"/>
      <point x="105" y="869" type="curve" smooth="yes"/>
      <point x="105" y="852" type="line" smooth="yes"/>
      <point x="105" y="598"/>
      <point x="285" y="450"/>
      <point x="605" y="450" type="curve" smooth="yes"/>
      <point x="904" y="450"/>
      <point x="1073" y="577"/>
      <point x="1131" y="737" type="curve"/>
      <point x="1176" y="737" type="line"/>
      <point x="1135" y="872" type="line"/>
      <point x="1059" y="726"/>
      <point x="901" y="620"/>
      <point x="683" y="620" type="curve" smooth="yes"/>
      <point x="444" y="620"/>
      <point x="329" y="706"/>
      <point x="329" y="860" type="curve" smooth="yes"/>
      <point x="329" y="869" type="line" smooth="yes"/>
      <point x="329" y="1025"/>
      <point x="455" y="1121"/>
      <point x="705" y="1121" type="curve" smooth="yes"/>
      <point x="996" y="1121"/>
      <point x="1143" y="973"/>
      <point x="1143" y="644" type="curve" smooth="yes"/>
      <point x="1143" y="628" type="line" smooth="yes"/>
      <point x="1143" y="313"/>
      <point x="978" y="151"/>
      <point x="621" y="151" type="curve" smooth="yes"/>
      <point x="429" y="151"/>
      <point x="290" y="198"/>
      <point x="174" y="258" type="curve"/>
      <point x="199" y="56" type="line"/>
      <point x="299" y="12"/>
      <point x="439" y="-30"/>
      <point x="643" y="-30" type="curve" smooth="yes"/>
      <point x="1120" y="-30"/>
      <point x="1368" y="207"/>
      <point x="1368" y="621" type="curve"/>
      <point x="1368" y="640" type="line"/>
      <point x="1368" y="1072"/>
      <point x="1144" y="1304"/>
    </contour>
  </outline>
</glyph>
<glyph name="F" format="2">
  <advance width="1412"/>
  <unicode hex="0046"/>
  <anchor x="707" y="0" name="bottom"/>
  <anchor x="707" y="1278" name="top"/>
  <outline>
    <contour>
      <point x="405" y="0" type="line"/>
      <point x="405" y="1278" type="line"/>
      <point x="185" y="1278" type="line"/>
      <point x="185" y="0" type="line"/>
    </contour>
    <contour>
      <point x="1282" y="498" type="line"/>
      <point x="1282" y="679" type="line"/>
      <point x="299" y="679" type="line"/>
      <point x="299" y="498" type="line"/>
    </contour>
    <contour>
      <point x="1302" y="1097" type="line"/>
      <point x="1302" y="1278" type="line"/>
      <point x="196" y="1278" type="line"/>
      <point x="196" y="1097" type="line"/>
    </contour>
  </outline>
</glyph>
<glyph name="Q" format="2">
  <advance width="1695"/>
  <unicode hex="0051"/>
  <anchor x="848" y="0" name="bottom"/>
  <anchor x="848" y="1278" name="top"/>
  <outline>
    <contour>
      <point x="1692" y="140" type="line"/>
      <point x="1171" y="131" type="line"/>
      <point x="1171" y="143" type="line"/>
      <point x="1397" y="182"/>
      <point x="1582" y="334"/>
      <point x="1582" y="643" type="curve" smooth="yes"/>
      <point x="1582" y="658" type="line" smooth="yes"/>
      <point x="1582" y="1066"/>
      <point x="1323" y="1311"/>
      <point x="847" y="1311" type="curve" smooth="yes"/>
      <point x="373" y="1311"/>
      <point x="112" y="1071"/>
      <point x="112" y="649" type="curve" smooth="yes"/>
      <point x="112" y="633" type="line" smooth="yes"/>
      <point x="112" y="213"/>
      <point x="372" y="-20"/>
      <point x="916" y="-34" type="curve" smooth="yes"/>
      <point x="1692" y="-54" type="line"/>
    </contour>
    <contour>
      <point x="884" y="151" type="line" smooth="yes"/>
      <point x="548" y="159"/>
      <point x="344" y="329"/>
      <point x="344" y="632" type="curve" smooth="yes"/>
      <point x="344" y="649" type="line" smooth="yes"/>
      <point x="344" y="948"/>
      <point x="515" y="1128"/>
      <point x="846" y="1128" type="curve" smooth="yes"/>
      <point x="1178" y="1128"/>
      <point x="1350" y="948"/>
      <point x="1350" y="649" type="curve" smooth="yes"/>
      <point x="1350" y="633" type="line" smooth="yes"/>
      <point x="1350" y="331"/>
      <point x="1144" y="188"/>
      <point x="925" y="150" type="curve"/>
    </contour>
  </outline>
</glyph>
<glyph name="S" format="2">
  <advance width="1460"/>
  <unicode hex="0053"/>
  <anchor x="726" y="0" name="bottom"/>
  <anchor x="726" y="1278" name="top"/>
  <outline>
    <contour>
      <point x="728" y="-29" type="curve" smooth="yes"/>
      <point x="1144" y="-29"/>
      <point x="1350" y="95"/>
      <point x="1350" y="360" type="curve"/>
      <point x="1350" y="365" type="line"/>
      <point x="1350" y="635"/>
      <point x="1179" y="709"/>
      <point x="759" y="746" type="curve" smooth="yes"/>
      <point x="409" y="777"/>
      <point x="340" y="830"/>
      <point x="340" y="945" type="curve"/>
      <point x="340" y="946" type="line"/>
      <point x="340" y="1057"/>
      <point x="430" y="1124"/>
      <point x="703" y="1124" type="curve" smooth="yes"/>
      <point x="939" y="1124"/>
      <point x="1138" y="1068"/>
      <point x="1284" y="996" type="curve"/>
      <point x="1259" y="1192" type="line"/>
      <point x="1139" y="1248"/>
      <point x="952" y="1306"/>
      <point x="684" y="1306" type="curve" smooth="yes"/>
      <point x="294" y="1306"/>
      <point x="109" y="1181"/>
      <point x="109" y="946" type="curve"/>
      <point x="109" y="942" type="line"/>
      <point x="109" y="700"/>
      <point x="261" y="602"/>
      <point x="692" y="568" type="curve" smooth="yes"/>
      <point x="1022" y="542"/>
      <point x="1118" y="499"/>
      <point x="1118" y="361" type="curve"/>
      <point x="1118" y="359" type="line"/>
      <point x="1118" y="224"/>
      <point x="997" y="161"/>
      <point x="728" y="161" type="curve" smooth="yes"/>
      <point x="479" y="161"/>
      <point x="255" y="238"/>
      <point x="108" y="315" type="curve"/>
      <point x="132" y="100" type="line"/>
      <point x="254" y="44"/>
      <point x="460" y="-29"/>
    </contour>
  </outline>
</glyph>
<glyph name="X" format="2">
  <advance width="1575"/>
  <unicode hex="0058"/>
  <anchor x="788" y="0" name="bottom"/>
  <anchor x="788" y="1278" name="top"/>
  <outline>
    <contour>
      <point x="319" y="0" type="line"/>
      <point x="779" y="531" type="line"/>
      <point x="796" y="531" type="line"/>
      <point x="1256" y="0" type="line"/>
      <point x="1521" y="0" type="line"/>
      <point x="943" y="678" type="line"/>
      <point x="944" y="641" type="line"/>
      <point x="1509" y="1278" type="line"/>
      <point x="1247" y="1278" type="line"/>
      <point x="796" y="774" type="line"/>
      <point x="779" y="774" type="line"/>
      <point x="328" y="1278" type="line"/>
      <point x="66" y="1278" type="line"/>
      <point x="631" y="641" type="line"/>
      <point x="632" y="678" type="line"/>
      <point x="54" y="0" type="line"/>
    </contour>
  </outline>
</glyph>
<glyph name="bracketleft" format="2">
  <advance width="780"/>
  <unicode hex="005B"/>
  <outline>
    <contour>
      <point x="702" y="-248" type="line"/>
      <point x="702" y="-80" type="line"/>
      <point x="391" y="-80" type="line"/>
      <point x="391" y="1181" type="line"/>
      <point x="702" y="1181" type="line"/>
      <point x="702" y="1348" type="line"/>
      <point x="185" y="1348" type="line"/>
      <point x="185" y="-248" type="line"/>
    </contour>
  </outline>
</glyph>
<glyph name="bracketright" format="2">
  <advance width="780"/>
  <unicode hex="005D"/>
  <outline>
    <contour>
      <point x="78" y="-248" type="line"/>
      <point x="78" y="-80" type="line"/>
      <point x="389" y="-80" type="line"/>
      <point x="389" y="1181" type="line"/>
      <point x="78" y="1181" type="line"/>
      <point x="78" y="1348" type="line"/>
      <point x="595" y="1348" type="line"/>
      <point x="595" y="-248" type="line"/>
    </contour>
  </outline>
</glyph>
<glyph name="asciicircum" format="2">
  <advance width="1132"/>
  <unicode hex="005E"/>
  <outline>
    <contour>
      <point x="59" y="601" type="line"/>
      <point x="259" y="601" type="line"/>
      <point x="557" y="1153" type="line"/>
      <point x="576" y="1153" type="line"/>
      <point x="874" y="601" type="line"/>
      <point x="1073" y="601" type="line"/>
      <point x="709" y="1278" type="line"/>
      <point x="424" y="1278" type="line"/>
    </contour>
  </outline>
</glyph>
<glyph name="h" format="2">
  <advance width="1413"/>
  <unicode hex="0068"/>
  <anchor x="707" y="0" name="bottom"/>
  <anchor x="707" y="646" name="center"/>
  <anchor x="268" y="1319" name="top"/>
  <outline>
    <contour>
      <point x="1269" y="0" type="line"/>
      <point x="1269" y="525" type="line" smooth="yes"/>
      <point x="1269" y="817"/>
      <point x="1142" y="987"/>
      <point x="825" y="987" type="curve" smooth="yes"/>
      <point x="568" y="987"/>
      <point x="427" y="860"/>
      <point x="382" y="714" type="curve"/>
      <point x="337" y="714" type="line"/>
      <point x="370" y="549" type="line"/>
      <point x="409" y="693"/>
      <point x="536" y="807"/>
      <point x="749" y="807" type="curve" smooth="yes"/>
      <point x="975" y="807"/>
      <point x="1051" y="679"/>
      <point x="1051" y="503" type="curve" smooth="yes"/>
      <point x="1051" y="0" type="line"/>
    </contour>
    <contour>
      <point x="378" y="0" type="line"/>
      <point x="378" y="652" type="line"/>
      <point x="371" y="662" type="line"/>
      <point x="376" y="958" type="line"/>
      <point x="376" y="1319" type="line"/>
      <point x="160" y="1319" type="line"/>
      <point x="160" y="0" type="line"/>
    </contour>
  </outline>
</glyph>
<glyph name="p" format="2">
  <advance width="1464"/>
  <unicode hex="0070"/>
  <anchor x="732" y="0" name="bottom"/>
  <anchor x="732" y="958" name="top"/>
  <outline>
    <contour>
      <point x="836" y="-29" type="curve" smooth="yes"/>
      <point x="1160" y="-29"/>
      <point x="1361" y="144"/>
      <point x="1361" y="470" type="curve" smooth="yes"/>
      <point x="1361" y="490" type="line" smooth="yes"/>
      <point x="1361" y="814"/>
      <point x="1168" y="987"/>
      <point x="838" y="987" type="curve" smooth="yes"/>
      <point x="561" y="987"/>
      <point x="424" y="860"/>
      <point x="380" y="714" type="curve"/>
      <point x="310" y="714" type="line"/>
      <point x="364" y="544" type="line"/>
      <point x="405" y="697"/>
      <point x="560" y="814"/>
      <point x="774" y="814" type="curve" smooth="yes"/>
      <point x="1005" y="814"/>
      <point x="1141" y="702"/>
      <point x="1141" y="493" type="curve" smooth="yes"/>
      <point x="1141" y="474" type="line" smooth="yes"/>
      <point x="1141" y="263"/>
      <point x="1004" y="151"/>
      <point x="776" y="151" type="curve" smooth="yes"/>
      <point x="562" y="151"/>
      <point x="384" y="248"/>
      <point x="372" y="470" type="curve"/>
      <point x="309" y="244" type="line"/>
      <point x="382" y="244" type="line"/>
      <point x="431" y="74"/>
      <point x="586" y="-29"/>
    </contour>
    <contour>
      <point x="376" y="-338" type="line"/>
      <point x="376" y="2" type="line"/>
      <point x="371" y="285" type="line"/>
      <point x="372" y="347" type="line"/>
      <point x="372" y="592" type="line"/>
      <point x="369" y="679" type="line"/>
      <point x="378" y="958" type="line"/>
      <point x="160" y="958" type="line"/>
      <point x="160" y="-338" type="line"/>
    </contour>
  </outline>
</glyph>
<glyph name="r" format="2">
  <advance width="1012"/>
  <unicode hex="0072"/>
  <anchor x="270" y="0" name="bottom"/>
  <anchor x="533" y="958" name="top"/>
  <outline>
    <contour>
      <point x="369" y="522" type="line"/>
      <point x="441" y="690"/>
      <point x="589" y="781"/>
      <point x="785" y="781" type="curve" smooth="yes"/>
      <point x="857" y="781"/>
      <point x="922" y="768"/>
      <point x="973" y="751" type="curve"/>
      <point x="955" y="951" type="line"/>
      <point x="915" y="966"/>
      <point x="863" y="979"/>
      <point x="793" y="979" type="curve" smooth="yes"/>
      <point x="578" y="979"/>
      <point x="435" y="865"/>
      <point x="380" y="678" type="curve"/>
      <point x="331" y="678" type="line"/>
    </contour>
    <contour>
      <point x="378" y="0" type="line"/>
      <point x="378" y="621" type="line"/>
      <point x="369" y="631" type="line"/>
      <point x="378" y="958" type="line"/>
      <point x="160" y="958" type="line"/>
      <point x="160" y="0" type="line"/>
    </contour>
  </outline>
</glyph>
<glyph name="u" format="2">
  <advance width="1413"/>
  <unicode hex="0075"/>
  <anchor x="707" y="0" name="bottom"/>
  <anchor x="1297" y="5" name="ogonek"/>
  <anchor x="707" y="958" name="top"/>
  <anchor x="1392" y="958" name="topright"/>
  <outline>
    <contour>
      <point x="144" y="958" type="line"/>
      <point x="144" y="433" type="line" smooth="yes"/>
      <point x="144" y="141"/>
      <point x="271" y="-29"/>
      <point x="588" y="-29" type="curve" smooth="yes"/>
      <point x="848" y="-29"/>
      <point x="988" y="98"/>
      <point x="1033" y="244" type="curve"/>
      <point x="1075" y="244" type="line"/>
      <point x="1044" y="409" type="line"/>
      <point x="1005" y="265"/>
      <point x="878" y="151"/>
      <point x="666" y="151" type="curve" smooth="yes"/>
      <point x="438" y="151"/>
      <point x="362" y="279"/>
      <point x="362" y="455" type="curve" smooth="yes"/>
      <point x="362" y="958" type="line"/>
    </contour>
    <contour>
      <point x="1035" y="958" type="line"/>
      <point x="1035" y="306" type="line"/>
      <point x="1044" y="279" type="line"/>
      <point x="1035" y="0" type="line"/>
      <point x="1253" y="0" type="line"/>
      <point x="1253" y="958" type="line"/>
    </contour>
  </outline>
</glyph>
<glyph name="v" format="2">
  <advance width="1313"/>
  <unicode hex="0076"/>
  <anchor x="657" y="0" name="bottom"/>
  <anchor x="657" y="958" name="top"/>
  <outline>
    <contour>
      <point x="643" y="151" type="line"/>
      <point x="272" y="958" type="line"/>
      <point x="38" y="958" type="line"/>
      <point x="488" y="0" type="line"/>
      <point x="829" y="0" type="line"/>
      <point x="1275" y="958" type="line"/>
      <point x="1043" y="958" type="line"/>
      <point x="675" y="151" type="line"/>
    </contour>
  </outline>
</glyph>
<glyph name="x" format="2">
  <advance width="1318"/>
  <unicode hex="0078"/>
  <anchor x="659" y="0" name="bottom"/>
  <anchor x="659" y="958" name="top"/>
  <outline>
    <contour>
      <point x="311" y="0" type="line"/>
      <point x="649" y="388" type="line"/>
      <point x="669" y="388" type="line"/>
      <point x="1008" y="0" type="line"/>
      <point x="1267" y="0" type="line"/>
      <point x="817" y="521" type="line"/>
      <point x="817" y="472" type="line"/>
      <point x="1257" y="958" type="line"/>
      <point x="999" y="958" type="line"/>
      <point x="669" y="591" type="line"/>
      <point x="649" y="591" type="line"/>
      <point x="320" y="958" type="line"/>
      <point x="62" y="958" type="line"/>
      <point x="501" y="471" type="line"/>
      <point x="501" y="521" type="line"/>
      <point x="51" y="0" type="line"/>
    </contour>
  </outline>
</glyph>
<glyph name="braceright" format="2">
  <advance width="844"/>
  <unicode hex="007D"/>
  <outline>
    <contour>
      <point x="76" y="1324" type="line"/>
      <point x="125" y="1339"/>
      <point x="200" y="1352"/>
      <point x="278" y="1352" type="curve" smooth="yes"/>
      <point x="495" y="1352"/>
      <point x="591" y="1266"/>
      <point x="591" y="1059" type="curve" smooth="yes"/>
      <point x="591" y="989"/>
      <point x="576" y="870"/>
      <point x="576" y="794" type="curve" smooth="yes"/>
      <point x="576" y="697"/>
      <point x="615" y="641"/>
      <point x="764" y="636" type="curve"/>
      <point x="764" y="469" type="line"/>
      <point x="615" y="462"/>
      <point x="576" y="405"/>
      <point x="576" y="307" type="curve" smooth="yes"/>
      <point x="576" y="231"/>
      <point x="591" y="112"/>
      <point x="591" y="41" type="curve" smooth="yes"/>
      <point x="591" y="-167"/>
      <point x="495" y="-254"/>
      <point x="278" y="-254" type="curve" smooth="yes"/>
      <point x="200" y="-254"/>
      <point x="125" y="-241"/>
      <point x="76" y="-225" type="curve"/>
      <point x="76" y="-63" type="line"/>
      <point x="113" y="-75"/>
      <point x="161" y="-86"/>
      <point x="219" y="-86" type="curve" smooth="yes"/>
      <point x="339" y="-86"/>
      <point x="387" y="-44"/>
      <point x="387" y="69" type="curve" smooth="yes"/>
      <point x="387" y="134"/>
      <point x="373" y="245"/>
      <point x="373" y="328" type="curve" smooth="yes"/>
      <point x="373" y="446"/>
      <point x="412" y="538"/>
      <point x="587" y="550" type="curve"/>
      <point x="566" y="516" type="line"/>
      <point x="566" y="558" type="line"/>
      <point x="413" y="576"/>
      <point x="373" y="658"/>
      <point x="373" y="774" type="curve" smooth="yes"/>
      <point x="373" y="856"/>
      <point x="387" y="966"/>
      <point x="387" y="1032" type="curve" smooth="yes"/>
      <point x="387" y="1144"/>
      <point x="340" y="1186"/>
      <point x="223" y="1186" type="curve" smooth="yes"/>
      <point x="163" y="1186"/>
      <point x="114" y="1176"/>
      <point x="76" y="1164" type="curve"/>
    </contour>
  </outline>
</glyph>
<glyph name="sterling" format="2">
  <advance width="1498"/>
  <unicode hex="00A3"/>
  <outline>
    <contour>
      <point x="1263" y="561" type="line"/>
      <point x="1278" y="725" type="line"/>
      <point x="119" y="725" type="line"/>
      <point x="104" y="561" type="line"/>
    </contour>
    <contour>
      <point x="422" y="191" type="line"/>
      <point x="542" y="233"/>
      <point x="601" y="312"/>
      <point x="601" y="443" type="curve" smooth="yes"/>
      <point x="601" y="607"/>
      <point x="508" y="741"/>
      <point x="508" y="896" type="curve" smooth="yes"/>
      <point x="508" y="1047"/>
      <point x="617" y="1124"/>
      <point x="890" y="1124" type="curve" smooth="yes"/>
      <point x="1040" y="1124"/>
      <point x="1185" y="1101"/>
      <point x="1324" y="1061" type="curve"/>
      <point x="1305" y="1244" type="line"/>
      <point x="1174" y="1282"/>
      <point x="1006" y="1306"/>
      <point x="844" y="1306" type="curve" smooth="yes"/>
      <point x="456" y="1306"/>
      <point x="272" y="1179"/>
      <point x="272" y="922" type="curve" smooth="yes"/>
      <point x="272" y="729"/>
      <point x="372" y="576"/>
      <point x="371" y="412" type="curve"/>
      <point x="371" y="291"/>
      <point x="310" y="212"/>
      <point x="182" y="188" type="curve" smooth="yes"/>
      <point x="113" y="175" type="line"/>
      <point x="113" y="0" type="line"/>
      <point x="1423" y="0" type="line"/>
      <point x="1423" y="183" type="line"/>
      <point x="422" y="183" type="line"/>
    </contour>
  </outline>
</glyph>
<glyph name="plusminus" format="2">
  <advance width="1365"/>
  <unicode hex="00B1"/>
  <outline>
    <contour>
      <point x="1210" y="67" type="line"/>
      <point x="1210" y="234" type="line"/>
      <point x="155" y="234" type="line"/>
      <point x="155" y="67" type="line"/>
    </contour>
    <contour>
      <point x="775" y="1191" type="line"/>
      <point x="590" y="1191" type="line"/>
      <point x="590" y="371" type="line"/>
      <point x="775" y="371" type="line"/>
    </contour>
    <contour>
      <point x="1210" y="698" type="line"/>
      <point x="1210" y="864" type="line"/>
      <point x="155" y="864" type="line"/>
      <point x="155" y="698" type="line"/>
    </contour>
  </outline>
</glyph>
<glyph name="threesuperior" format="2">
  <advance width="860"/>
  <unicode hex="00B3"/>
  <outline>
    <contour>
      <point x="413" y="731" type="curve" smooth="yes"/>
      <point x="671" y="731"/>
      <point x="795" y="808"/>
      <point x="795" y="939" type="curve" smooth="yes"/>
      <point x="795" y="947" type="line" smooth="yes"/>
      <point x="795" y="1037"/>
      <point x="739" y="1086"/>
      <point x="623" y="1103" type="curve"/>
      <point x="627" y="1091" type="line"/>
      <point x="627" y="1108" type="line"/>
      <point x="734" y="1121"/>
      <point x="788" y="1172"/>
      <point x="788" y="1254" type="curve" smooth="yes"/>
      <point x="788" y="1260" type="line" smooth="yes"/>
      <point x="788" y="1379"/>
      <point x="669" y="1442"/>
      <point x="425" y="1442" type="curve" smooth="yes"/>
      <point x="273" y="1442"/>
      <point x="153" y="1414"/>
      <point x="77" y="1384" type="curve"/>
      <point x="61" y="1254" type="line"/>
      <point x="141" y="1281"/>
      <point x="263" y="1310"/>
      <point x="409" y="1310" type="curve" smooth="yes"/>
      <point x="566" y="1310"/>
      <point x="610" y="1284"/>
      <point x="610" y="1236" type="curve"/>
      <point x="610" y="1234" type="line"/>
      <point x="610" y="1188"/>
      <point x="567" y="1161"/>
      <point x="454" y="1159" type="curve" smooth="yes"/>
      <point x="205" y="1154" type="line"/>
      <point x="205" y="1036" type="line"/>
      <point x="454" y="1032" type="line" smooth="yes"/>
      <point x="596" y="1030"/>
      <point x="615" y="997"/>
      <point x="615" y="956" type="curve" smooth="yes"/>
      <point x="615" y="953" type="line" smooth="yes"/>
      <point x="615" y="900"/>
      <point x="567" y="864"/>
      <point x="393" y="864" type="curve" smooth="yes"/>
      <point x="264" y="864"/>
      <point x="139" y="892"/>
      <point x="57" y="918" type="curve"/>
      <point x="73" y="779" type="line"/>
      <point x="140" y="760"/>
      <point x="260" y="731"/>
    </contour>
  </outline>
</glyph>
<glyph name="micro" format="2">
  <advance width="1429"/>
  <unicode hex="00B5"/>
  <outline>
    <contour>
      <point x="1051" y="958" type="line"/>
      <point x="1051" y="306" type="line"/>
      <point x="1060" y="279" type="line"/>
      <point x="1051" y="0" type="line"/>
      <point x="1269" y="0" type="line"/>
      <point x="1269" y="958" type="line"/>
    </contour>
    <contour>
      <point x="378" y="958" type="line"/>
      <point x="160" y="958" type="line"/>
      <point x="160" y="-338" type="line"/>
      <point x="376" y="-338" type="line"/>
      <point x="376" y="-216" type="line"/>
      <point x="366" y="160" type="line"/>
      <point x="375" y="160" type="line"/>
      <point x="430" y="28"/>
      <point x="534" y="-29"/>
      <point x="698" y="-29" type="curve" smooth="yes"/>
      <point x="900" y="-29"/>
      <point x="1012" y="98"/>
      <point x="1049" y="244" type="curve"/>
      <point x="1091" y="244" type="line"/>
      <point x="1060" y="409" type="line"/>
      <point x="1024" y="266"/>
      <point x="897" y="151"/>
      <point x="702" y="151" type="curve" smooth="yes"/>
      <point x="500" y="151"/>
      <point x="378" y="254"/>
      <point x="378" y="474" type="curve" smooth="yes"/>
    </contour>
  </outline>
</glyph>
<glyph name="Oslash" format="2">
  <advance width="1694"/>
  <unicode hex="00D8"/>
  <anchor x="847" y="0" name="bottom"/>
  <anchor x="847" y="640" name="center"/>
  <anchor x="1525" y="11" name="ogonek"/>
  <anchor x="847" y="1278" name="top"/>
  <anchor x="20" y="1279" name="topleft"/>
  <anchor x="1674" y="1279" name="topright"/>
  <outline>
    <contour>
      <point x="847" y="-33" type="curve" smooth="yes"/>
      <point x="1325" y="-33"/>
      <point x="1582" y="209"/>
      <point x="1582" y="632" type="curve"/>
      <point x="1582" y="649" type="line"/>
      <point x="1582" y="1059"/>
      <point x="1313" y="1311"/>
      <point x="847" y="1311" type="curve" smooth="yes"/>
      <point x="369" y="1311"/>
      <point x="112" y="1071"/>
      <point x="112" y="649" type="curve"/>
      <point x="112" y="632" type="line"/>
      <point x="112" y="221"/>
      <point x="381" y="-33"/>
    </contour>
    <contour>
      <point x="347" y="-60" type="line"/>
      <point x="491" y="104" type="line"/>
      <point x="516" y="132" type="line"/>
      <point x="1294" y="1014" type="line"/>
      <point x="1347" y="1074" type="line"/>
      <point x="1580" y="1338" type="line"/>
      <point x="1350" y="1338" type="line"/>
      <point x="1213" y="1183" type="line"/>
      <point x="1187" y="1153" type="line"/>
      <point x="402" y="266" type="line"/>
      <point x="344" y="200" type="line"/>
      <point x="114" y="-60" type="line"/>
    </contour>
    <contour>
      <point x="847" y="151" type="curve" smooth="yes"/>
      <point x="524" y="151"/>
      <point x="344" y="331"/>
      <point x="344" y="631" type="curve" smooth="yes"/>
      <point x="344" y="650" type="line" smooth="yes"/>
      <point x="344" y="955"/>
      <point x="519" y="1130"/>
      <point x="847" y="1130" type="curve" smooth="yes"/>
      <point x="1169" y="1130"/>
      <point x="1350" y="950"/>
      <point x="1350" y="650" type="curve" smooth="yes"/>
      <point x="1350" y="631" type="line" smooth="yes"/>
      <point x="1350" y="326"/>
      <point x="1174" y="151"/>
    </contour>
  </outline>
</glyph>
<glyph name="ae" format="2">
  <advance width="2207"/>
  <unicode hex="00E6"/>
  <anchor x="1100" y="0" name="bottom"/>
  <anchor x="1100" y="958" name="top"/>
  <outline>
    <contour>
      <point x="1579" y="-32" type="curve" smooth="yes"/>
      <point x="1782" y="-32"/>
      <point x="1942" y="12"/>
      <point x="2067" y="84" type="curve"/>
      <point x="2091" y="266" type="line"/>
      <point x="1949" y="191"/>
      <point x="1792" y="146"/>
      <point x="1615" y="146" type="curve" smooth="yes"/>
      <point x="1292" y="146"/>
      <point x="1186" y="271"/>
      <point x="1186" y="434" type="curve" smooth="yes"/>
      <point x="1186" y="481" type="line"/>
      <point x="1186" y="497" type="line"/>
      <point x="1186" y="520" type="line" smooth="yes"/>
      <point x="1186" y="698"/>
      <point x="1306" y="819"/>
      <point x="1540" y="819" type="curve" smooth="yes"/>
      <point x="1780" y="819"/>
      <point x="1903" y="710"/>
      <point x="1903" y="527" type="curve" smooth="yes"/>
      <point x="1903" y="487"/>
      <point x="1901" y="440"/>
      <point x="1896" y="404" type="curve"/>
      <point x="2100" y="404" type="line"/>
      <point x="2106" y="434"/>
      <point x="2111" y="475"/>
      <point x="2111" y="513" type="curve" smooth="yes"/>
      <point x="2111" y="519" type="line" smooth="yes"/>
      <point x="2111" y="802"/>
      <point x="1918" y="990"/>
      <point x="1559" y="990" type="curve" smooth="yes"/>
      <point x="1305" y="990"/>
      <point x="1142" y="896"/>
      <point x="1082" y="734" type="curve"/>
      <point x="1072" y="734" type="line"/>
      <point x="1027" y="885"/>
      <point x="905" y="989"/>
      <point x="638" y="989" type="curve" smooth="yes"/>
      <point x="423" y="989"/>
      <point x="266" y="926"/>
      <point x="168" y="872" type="curve"/>
      <point x="144" y="692" type="line"/>
      <point x="270" y="752"/>
      <point x="429" y="811"/>
      <point x="628" y="811" type="curve" smooth="yes"/>
      <point x="862" y="811"/>
      <point x="969" y="727"/>
      <point x="969" y="573" type="curve"/>
      <point x="971" y="492" type="line"/>
      <point x="970" y="444"/>
      <point x="973" y="361"/>
      <point x="989" y="310" type="curve"/>
      <point x="1003" y="287" type="line"/>
      <point x="1064" y="95"/>
      <point x="1247" y="-32"/>
    </contour>
    <contour>
      <point x="488" y="-29" type="curve" smooth="yes"/>
      <point x="812" y="-29"/>
      <point x="942" y="85"/>
      <point x="1029" y="204" type="curve"/>
      <point x="1075" y="204" type="line"/>
      <point x="996" y="360" type="line"/>
      <point x="936" y="247"/>
      <point x="791" y="149"/>
      <point x="546" y="149" type="curve" smooth="yes"/>
      <point x="389" y="149"/>
      <point x="306" y="196"/>
      <point x="306" y="280" type="curve" smooth="yes"/>
      <point x="306" y="287" type="line" smooth="yes"/>
      <point x="306" y="380"/>
      <point x="375" y="412"/>
      <point x="588" y="429" type="curve" smooth="yes"/>
      <point x="995" y="461" type="line"/>
      <point x="991" y="608" type="line"/>
      <point x="572" y="577" type="line" smooth="yes"/>
      <point x="245" y="553"/>
      <point x="88" y="471"/>
      <point x="88" y="267" type="curve" smooth="yes"/>
      <point x="88" y="258" type="line" smooth="yes"/>
      <point x="88" y="74"/>
      <point x="236" y="-29"/>
    </contour>
    <contour>
      <point x="2059" y="404" type="line"/>
      <point x="2059" y="566" type="line"/>
      <point x="1072" y="566" type="line"/>
      <point x="1072" y="404" type="line"/>
    </contour>
  </outline>
</glyph>
<glyph name="acutecomb" format="2">
  <advance width="701"/>
  <unicode hex="0301"/>
  <anchor x="192" y="958" name="_top"/>
  <anchor x="192" y="1348" name="top"/>
  <outline>
    <contour>
      <point x="92" y="1099" type="line"/>
      <point x="92" y="1094" type="line"/>
      <point x="296" y="1094" type="line"/>
      <point x="605" y="1381" type="line"/>
      <point x="605" y="1387" type="line"/>
      <point x="352" y="1387" type="line"/>
    </contour>
  </outline>
</glyph>
<glyph name="combininganusvaraabovesign.mlm" format="2">
  <unicode hex="0D00"/>
  <outline>
    <contour>
      <point x="-1166" y="1534" type="line" smooth="yes"/>
      <point x="-1166" y="1363"/>
      <point x="-1047" y="1267"/>
      <point x="-824" y="1267" type="curve" smooth="yes"/>
      <point x="-603" y="1267"/>
      <point x="-483" y="1363"/>
      <point x="-483" y="1534" type="curve" smooth="yes"/>
      <point x="-483" y="1538" type="line" smooth="yes"/>
      <point x="-483" y="1710"/>
      <point x="-603" y="1805"/>
      <point x="-824" y="1805" type="curve" smooth="yes"/>
      <point x="-1047" y="1805"/>
      <point x="-1166" y="1710"/>
      <point x="-1166" y="1538" type="curve" smooth="yes"/>
    </contour>
    <contour>
      <point x="-656" y="1533" type="line" smooth="yes"/>
      <point x="-656" y="1451"/>
      <point x="-716" y="1405"/>
      <point x="-824" y="1405" type="curve" smooth="yes"/>
      <point x="-933" y="1405"/>
      <point x="-993" y="1451"/>
      <point x="-993" y="1533" type="curve" smooth="yes"/>
      <point x="-993" y="1539" type="line" smooth="yes"/>
      <point x="-993" y="1621"/>
      <point x="-933" y="1668"/>
      <point x="-824" y="1668" type="curve" smooth="yes"/>
      <point x="-716" y="1668"/>
      <point x="-656" y="1621"/>
      <point x="-656" y="1539" type="curve" smooth="yes"/>
    </contour>
  </outline>
</glyph>
<glyph name="Visarga.mlm" format="2">
  <advance width="927"/>
  <unicode hex="0D03"/>
  <outline>
    <contour>
      <point x="653" y="249" type="curve" smooth="yes"/>
      <point x="653" y="242" type="line" smooth="yes"/>
      <point x="653" y="158"/>
      <point x="585" y="113"/>
      <point x="464" y="113" type="curve" smooth="yes"/>
      <point x="342" y="113"/>
      <point x="274" y="158"/>
      <point x="274" y="242" type="curve" smooth="yes"/>
      <point x="274" y="249" type="line" smooth="yes"/>
      <point x="274" y="333"/>
      <point x="342" y="379"/>
      <point x="464" y="379" type="curve" smooth="yes"/>
      <point x="585" y="379"/>
      <point x="653" y="333"/>
    </contour>
    <contour>
      <point x="87" y="250" type="curve" smooth="yes"/>
      <point x="87" y="242" type="line" smooth="yes"/>
      <point x="87" y="62"/>
      <point x="217" y="-34"/>
      <point x="464" y="-34" type="curve" smooth="yes"/>
      <point x="710" y="-34"/>
      <point x="840" y="62"/>
      <point x="840" y="242" type="curve" smooth="yes"/>
      <point x="840" y="250" type="line" smooth="yes"/>
      <point x="840" y="430"/>
      <point x="710" y="525"/>
      <point x="464" y="525" type="curve" smooth="yes"/>
      <point x="217" y="525"/>
      <point x="87" y="430"/>
    </contour>
    <contour>
      <point x="652" y="902" type="curve" smooth="yes"/>
      <point x="652" y="895" type="line" smooth="yes"/>
      <point x="652" y="813"/>
      <point x="585" y="768"/>
      <point x="464" y="768" type="curve" smooth="yes"/>
      <point x="343" y="768"/>
      <point x="275" y="813"/>
      <point x="275" y="895" type="curve" smooth="yes"/>
      <point x="275" y="902" type="line" smooth="yes"/>
      <point x="275" y="984"/>
      <point x="343" y="1029"/>
      <point x="464" y="1029" type="curve" smooth="yes"/>
      <point x="585" y="1029"/>
      <point x="652" y="984"/>
    </contour>
    <contour>
      <point x="88" y="902" type="curve" smooth="yes"/>
      <point x="88" y="894" type="line" smooth="yes"/>
      <point x="88" y="716"/>
      <point x="218" y="621"/>
      <point x="464" y="621" type="curve" smooth="yes"/>
      <point x="710" y="621"/>
      <point x="839" y="716"/>
      <point x="839" y="894" type="curve" smooth="yes"/>
      <point x="839" y="902" type="line" smooth="yes"/>
      <point x="839" y="1081"/>
      <point x="710" y="1175"/>
      <point x="464" y="1175" type="curve" smooth="yes"/>
      <point x="218" y="1175"/>
      <point x="88" y="1081"/>
    </contour>
  </outline>
</glyph>
<glyph name="vowelA.mlm" format="2">
  <advance width="3681"/>
  <unicode hex="0D05"/>
  <outline>
    <contour>
      <point x="2086" y="6" type="line"/>
      <point x="2291" y="6" type="line"/>
      <point x="2291" y="546" type="line"/>
      <point x="2086" y="558" type="line"/>
    </contour>
    <contour>
      <point x="2186" y="826" type="line"/>
      <point x="2142" y="1040"/>
      <point x="1947" y="1169"/>
      <point x="1617" y="1169" type="curve" smooth="yes"/>
      <point x="1465" y="1169"/>
      <point x="1351" y="1141"/>
      <point x="1270" y="1108" type="curve"/>
      <point x="1348" y="990" type="line"/>
      <point x="1421" y="1006"/>
      <point x="1505" y="1012"/>
      <point x="1602" y="1012" type="curve" smooth="yes"/>
      <point x="1917" y="1012"/>
      <point x="2086" y="859"/>
      <point x="2086" y="578" type="curve" smooth="yes"/>
      <point x="2086" y="489" type="line"/>
      <point x="2197" y="489" type="line"/>
    </contour>
    <contour>
      <point x="342" y="501" type="line" smooth="yes"/>
      <point x="342" y="835"/>
      <point x="528" y="1005"/>
      <point x="957" y="1005" type="curve" smooth="yes"/>
      <point x="1026" y="1005"/>
      <point x="1107" y="1000"/>
      <point x="1180" y="984" type="curve" smooth="yes"/>
      <point x="1202" y="979"/>
      <point x="1228" y="972"/>
      <point x="1246" y="970" type="curve"/>
      <point x="1404" y="942"/>
      <point x="1522" y="883"/>
      <point x="1522" y="773" type="curve" smooth="yes"/>
      <point x="1522" y="768" type="line" smooth="yes"/>
      <point x="1522" y="677"/>
      <point x="1453" y="631"/>
      <point x="1315" y="626" type="curve" smooth="yes"/>
      <point x="1197" y="622" type="line"/>
      <point x="1197" y="461" type="line"/>
      <point x="1330" y="457" type="line" smooth="yes"/>
      <point x="1484" y="452"/>
      <point x="1558" y="406"/>
      <point x="1558" y="311" type="curve" smooth="yes"/>
      <point x="1558" y="304" type="line" smooth="yes"/>
      <point x="1558" y="197"/>
      <point x="1470" y="133"/>
      <point x="1289" y="133" type="curve" smooth="yes"/>
      <point x="1053" y="133"/>
      <point x="937" y="254"/>
      <point x="937" y="496" type="curve" smooth="yes"/>
      <point x="937" y="512" type="line" smooth="yes"/>
      <point x="937" y="723"/>
      <point x="1058" y="906"/>
      <point x="1287" y="972" type="curve"/>
      <point x="1117" y="1033" type="line"/>
      <point x="870" y="962"/>
      <point x="733" y="754"/>
      <point x="733" y="504" type="curve" smooth="yes"/>
      <point x="733" y="490" type="line" smooth="yes"/>
      <point x="733" y="148"/>
      <point x="914" y="-33"/>
      <point x="1287" y="-33" type="curve" smooth="yes"/>
      <point x="1606" y="-33"/>
      <point x="1765" y="87"/>
      <point x="1765" y="291" type="curve" smooth="yes"/>
      <point x="1765" y="300" type="line" smooth="yes"/>
      <point x="1765" y="438"/>
      <point x="1675" y="527"/>
      <point x="1480" y="544" type="curve"/>
      <point x="1480" y="549" type="line"/>
      <point x="1642" y="568"/>
      <point x="1726" y="640"/>
      <point x="1726" y="755" type="curve" smooth="yes"/>
      <point x="1726" y="762" type="line" smooth="yes"/>
      <point x="1726" y="895"/>
      <point x="1609" y="987"/>
      <point x="1437" y="1028" type="curve"/>
      <point x="1358" y="1080" type="line"/>
      <point x="1251" y="1136"/>
      <point x="1102" y="1169"/>
      <point x="933" y="1169" type="curve" smooth="yes"/>
      <point x="398" y="1169"/>
      <point x="134" y="942"/>
      <point x="134" y="501" type="curve" smooth="yes"/>
      <point x="134" y="484" type="line" smooth="yes"/>
      <point x="134" y="296"/>
      <point x="188" y="122"/>
      <point x="285" y="0" type="curve"/>
      <point x="503" y="0" type="line"/>
      <point x="398" y="148"/>
      <point x="342" y="305"/>
      <point x="342" y="484" type="curve" smooth="yes"/>
    </contour>
    <contour>
      <point x="2817" y="1169" type="curve" smooth="yes"/>
      <point x="2459" y="1169"/>
      <point x="2248" y="1047"/>
      <point x="2192" y="826" type="curve"/>
      <point x="2162" y="826" type="line"/>
      <point x="2170" y="521" type="line"/>
      <point x="2291" y="490" type="line"/>
      <point x="2291" y="580" type="line" smooth="yes"/>
      <point x="2291" y="849"/>
      <point x="2466" y="995"/>
      <point x="2805" y="995" type="curve" smooth="yes"/>
      <point x="3165.22" y="995"/>
      <point x="3338.63" y="817.517"/>
      <point x="3353" y="572" type="curve"/>
      <point x="3353" y="572" type="line"/>
      <point x="3337" y="572" type="line"/>
      <point x="3352" y="513" type="line"/>
      <point x="3352" y="485" type="line" smooth="yes"/>
      <point x="3352" y="247"/>
      <point x="3264.62" y="129"/>
      <point x="3071" y="129" type="curve" smooth="yes"/>
      <point x="2910.36" y="129"/>
      <point x="2813" y="212.405"/>
      <point x="2813" y="354" type="curve" smooth="yes"/>
      <point x="2813" y="364" type="line" smooth="yes"/>
      <point x="2813" y="506.905"/>
      <point x="2902.27" y="589"/>
      <point x="3071" y="589" type="curve" smooth="yes"/>
      <point x="3193.28" y="589"/>
      <point x="3284.99" y="550.563"/>
      <point x="3355" y="482" type="curve"/>
      <point x="3356" y="551" type="line"/>
      <point x="3311.52" y="667.327"/>
      <point x="3184.02" y="751"/>
      <point x="3016" y="751" type="curve" smooth="yes"/>
      <point x="2763.11" y="751"/>
      <point x="2609" y="617.855"/>
      <point x="2609" y="370" type="curve" smooth="yes"/>
      <point x="2609" y="358" type="line" smooth="yes"/>
      <point x="2609" y="103.233"/>
      <point x="2776.16" y="-36"/>
      <point x="3064" y="-36" type="curve" smooth="yes"/>
      <point x="3391.32" y="-36"/>
      <point x="3552" y="150"/>
      <point x="3552" y="491" type="curve" smooth="yes"/>
      <point x="3552" y="510" type="line" smooth="yes"/>
      <point x="3552" y="924.229"/>
      <point x="3307.95" y="1169"/>
    </contour>
  </outline>
</glyph>
<glyph name="vowelAa.mlm" format="2">
  <advance width="4146"/>
  <unicode hex="0D06"/>
  <outline>
    <contour>
      <point x="3442" y="651" type="line"/>
      <point x="3695" y="622"/>
      <point x="3829" y="467"/>
      <point x="3829" y="239" type="curve" smooth="yes"/>
      <point x="3829" y="230" type="line" smooth="yes"/>
      <point x="3829" y="-84"/>
      <point x="3624" y="-253"/>
      <point x="3231" y="-253" type="curve" smooth="yes"/>
      <point x="3037" y="-253"/>
      <point x="2880" y="-228"/>
      <point x="2723" y="-171" type="curve"/>
      <point x="2762" y="-344" type="line"/>
      <point x="2905" y="-396"/>
      <point x="3061" y="-418"/>
      <point x="3243" y="-418" type="curve" smooth="yes"/>
      <point x="3759" y="-418"/>
      <point x="4031" y="-197"/>
      <point x="4031" y="222" type="curve" smooth="yes"/>
      <point x="4031" y="234" type="line" smooth="yes"/>
      <point x="4031" y="567"/>
      <point x="3809" y="784"/>
      <point x="3423" y="813" type="curve"/>
    </contour>
    <contour>
      <point x="2810" y="996" type="curve" smooth="yes"/>
      <point x="3049" y="996"/>
      <point x="3213" y="917"/>
      <point x="3289" y="788" type="curve"/>
      <point x="3304" y="710" type="line"/>
      <point x="3323" y="647"/>
      <point x="3332" y="585"/>
      <point x="3332" y="509" type="curve" smooth="yes"/>
      <point x="3332" y="490" type="line" smooth="yes"/>
      <point x="3332" y="277"/>
      <point x="3243" y="175"/>
      <point x="3063" y="175" type="curve" smooth="yes"/>
      <point x="2897" y="175"/>
      <point x="2810" y="257"/>
      <point x="2810" y="394" type="curve" smooth="yes"/>
      <point x="2810" y="402" type="line" smooth="yes"/>
      <point x="2810" y="569"/>
      <point x="2935" y="665"/>
      <point x="3197" y="665" type="curve" smooth="yes"/>
      <point x="3245" y="665"/>
      <point x="3285" y="663"/>
      <point x="3331" y="658" type="curve"/>
      <point x="3345" y="806" type="line"/>
      <point x="3308" y="813"/>
      <point x="3235" y="822"/>
      <point x="3177" y="822" type="curve" smooth="yes"/>
      <point x="2812" y="822"/>
      <point x="2606" y="677"/>
      <point x="2606" y="397" type="curve" smooth="yes"/>
      <point x="2606" y="386" type="line" smooth="yes"/>
      <point x="2606" y="144"/>
      <point x="2767" y="11"/>
      <point x="3061" y="11" type="curve" smooth="yes"/>
      <point x="3377" y="11"/>
      <point x="3532" y="181"/>
      <point x="3532" y="494" type="curve" smooth="yes"/>
      <point x="3532" y="509" type="line" smooth="yes"/>
      <point x="3532" y="583"/>
      <point x="3521" y="644"/>
      <point x="3505" y="708" type="curve" smooth="yes"/>
      <point x="3499" y="732" type="line" smooth="yes"/>
      <point x="3431" y="1006"/>
      <point x="3205" y="1169"/>
      <point x="2816" y="1169" type="curve" smooth="yes"/>
      <point x="2458" y="1169"/>
      <point x="2247" y="1047"/>
      <point x="2192" y="826" type="curve"/>
      <point x="2162" y="826" type="line"/>
      <point x="2170" y="521" type="line"/>
      <point x="2291" y="490" type="line"/>
      <point x="2291" y="580" type="line" smooth="yes"/>
      <point x="2291" y="851"/>
      <point x="2468" y="996"/>
    </contour>
    <contour>
      <point x="2086" y="6" type="line"/>
      <point x="2291" y="6" type="line"/>
      <point x="2291" y="546" type="line"/>
      <point x="2086" y="558" type="line"/>
    </contour>
    <contour>
      <point x="2186" y="826" type="line"/>
      <point x="2142" y="1040"/>
      <point x="1947" y="1169"/>
      <point x="1617" y="1169" type="curve" smooth="yes"/>
      <point x="1465" y="1169"/>
      <point x="1351" y="1141"/>
      <point x="1270" y="1108" type="curve"/>
      <point x="1348" y="990" type="line"/>
      <point x="1421" y="1006"/>
      <point x="1505" y="1012"/>
      <point x="1602" y="1012" type="curve" smooth="yes"/>
      <point x="1917" y="1012"/>
      <point x="2086" y="859"/>
      <point x="2086" y="578" type="curve" smooth="yes"/>
      <point x="2086" y="489" type="line"/>
      <point x="2197" y="489" type="line"/>
    </contour>
    <contour>
      <point x="342" y="501" type="line" smooth="yes"/>
      <point x="342" y="835"/>
      <point x="528" y="1005"/>
      <point x="957" y="1005" type="curve" smooth="yes"/>
      <point x="1026" y="1005"/>
      <point x="1107" y="1000"/>
      <point x="1180" y="984" type="curve" smooth="yes"/>
      <point x="1202" y="979"/>
      <point x="1228" y="972"/>
      <point x="1246" y="970" type="curve"/>
      <point x="1404" y="942"/>
      <point x="1522" y="883"/>
      <point x="1522" y="773" type="curve" smooth="yes"/>
      <point x="1522" y="768" type="line" smooth="yes"/>
      <point x="1522" y="677"/>
      <point x="1453" y="631"/>
      <point x="1315" y="626" type="curve" smooth="yes"/>
      <point x="1197" y="622" type="line"/>
      <point x="1197" y="461" type="line"/>
      <point x="1330" y="457" type="line" smooth="yes"/>
      <point x="1484" y="452"/>
      <point x="1558" y="406"/>
      <point x="1558" y="311" type="curve" smooth="yes"/>
      <point x="1558" y="304" type="line" smooth="yes"/>
      <point x="1558" y="197"/>
      <point x="1470" y="133"/>
      <point x="1289" y="133" type="curve" smooth="yes"/>
      <point x="1053" y="133"/>
      <point x="937" y="254"/>
      <point x="937" y="496" type="curve" smooth="yes"/>
      <point x="937" y="512" type="line" smooth="yes"/>
      <point x="937" y="723"/>
      <point x="1058" y="906"/>
      <point x="1287" y="972" type="curve"/>
      <point x="1117" y="1033" type="line"/>
      <point x="870" y="962"/>
      <point x="733" y="754"/>
      <point x="733" y="504" type="curve" smooth="yes"/>
      <point x="733" y="490" type="line" smooth="yes"/>
      <point x="733" y="148"/>
      <point x="914" y="-33"/>
      <point x="1287" y="-33" type="curve" smooth="yes"/>
      <point x="1606" y="-33"/>
      <point x="1765" y="87"/>
      <point x="1765" y="291" type="curve" smooth="yes"/>
      <point x="1765" y="300" type="line" smooth="yes"/>
      <point x="1765" y="438"/>
      <point x="1675" y="527"/>
      <point x="1480" y="544" type="curve"/>
      <point x="1480" y="549" type="line"/>
      <point x="1642" y="568"/>
      <point x="1726" y="640"/>
      <point x="1726" y="755" type="curve" smooth="yes"/>
      <point x="1726" y="762" type="line" smooth="yes"/>
      <point x="1726" y="895"/>
      <point x="1609" y="987"/>
      <point x="1437" y="1028" type="curve"/>
      <point x="1358" y="1080" type="line"/>
      <point x="1251" y="1136"/>
      <point x="1102" y="1169"/>
      <point x="933" y="1169" type="curve" smooth="yes"/>
      <point x="398" y="1169"/>
      <point x="134" y="942"/>
      <point x="134" y="501" type="curve" smooth="yes"/>
      <point x="134" y="484" type="line" smooth="yes"/>
      <point x="134" y="296"/>
      <point x="188" y="122"/>
      <point x="285" y="0" type="curve"/>
      <point x="503" y="0" type="line"/>
      <point x="398" y="148"/>
      <point x="342" y="305"/>
      <point x="342" y="484" type="curve" smooth="yes"/>
    </contour>
  </outline>
</glyph>
<glyph name="vowelI.mlm" format="2">
  <advance width="2434"/>
  <unicode hex="0D07"/>
  <outline>
    <contour>
      <point x="773" y="1168" type="curve" smooth="yes"/>
      <point x="345" y="1168"/>
      <point x="131" y="991"/>
      <point x="131" y="652" type="curve" smooth="yes"/>
      <point x="131" y="644" type="line" smooth="yes"/>
      <point x="131" y="385"/>
      <point x="271" y="247"/>
      <point x="556" y="247" type="curve" smooth="yes"/>
      <point x="832" y="247"/>
      <point x="961" y="359"/>
      <point x="961" y="556" type="curve" smooth="yes"/>
      <point x="961" y="565" type="line" smooth="yes"/>
      <point x="961" y="747"/>
      <point x="846" y="854"/>
      <point x="633" y="854" type="curve" smooth="yes"/>
      <point x="460.461" y="854"/>
      <point x="343.094" y="773"/>
      <point x="313" y="646" type="curve"/>
      <point x="325" y="585" type="line"/>
      <point x="365.17" y="657.381"/>
      <point x="444.506" y="702"/>
      <point x="561" y="702" type="curve" smooth="yes"/>
      <point x="688" y="702"/>
      <point x="763" y="650.356"/>
      <point x="763" y="557" type="curve" smooth="yes"/>
      <point x="763" y="550" type="line" smooth="yes"/>
      <point x="763" y="453.634"/>
      <point x="688" y="398"/>
      <point x="560" y="398" type="curve" smooth="yes"/>
      <point x="405.336" y="398"/>
      <point x="327" y="470.642"/>
      <point x="327" y="601" type="curve" smooth="yes"/>
      <point x="327" y="619" type="line"/>
      <point x="333" y="678" type="line"/>
      <point x="316" y="678" type="line"/>
      <point x="316" y="678" type="line"/>
      <point x="316" y="888"/>
      <point x="475.343" y="1002"/>
      <point x="781" y="1002" type="curve" smooth="yes"/>
      <point x="1085" y="1002"/>
      <point x="1235" y="876"/>
      <point x="1238" y="644" type="curve" smooth="yes"/>
      <point x="1242" y="346" type="line"/>
      <point x="1439" y="346" type="line"/>
      <point x="1443" y="668" type="line" smooth="yes"/>
      <point x="1446" y="884"/>
      <point x="1543" y="991"/>
      <point x="1756" y="991" type="curve" smooth="yes"/>
      <point x="1981" y="991"/>
      <point x="2093" y="866"/>
      <point x="2093" y="610" type="curve" smooth="yes"/>
      <point x="2093" y="593" type="line" smooth="yes"/>
      <point x="2093" y="305"/>
      <point x="1950" y="160"/>
      <point x="1665" y="160" type="curve" smooth="yes"/>
      <point x="482" y="160" type="line" smooth="yes"/>
      <point x="249" y="160"/>
      <point x="131" y="61"/>
      <point x="131" y="-126" type="curve" smooth="yes"/>
      <point x="131" y="-317"/>
      <point x="249" y="-415"/>
      <point x="482" y="-415" type="curve" smooth="yes"/>
      <point x="2260" y="-415" type="line"/>
      <point x="2290" y="-255" type="line"/>
      <point x="499" y="-255" type="line" smooth="yes"/>
      <point x="393" y="-255"/>
      <point x="337" y="-214"/>
      <point x="337" y="-126" type="curve" smooth="yes"/>
      <point x="337" y="-40"/>
      <point x="393" y="1"/>
      <point x="499" y="1" type="curve" smooth="yes"/>
      <point x="1701" y="1" type="line" smooth="yes"/>
      <point x="2098" y="1"/>
      <point x="2301" y="202"/>
      <point x="2301" y="596" type="curve" smooth="yes"/>
      <point x="2301" y="611" type="line" smooth="yes"/>
      <point x="2301" y="983"/>
      <point x="2122" y="1168"/>
      <point x="1771" y="1168" type="curve" smooth="yes"/>
      <point x="1524" y="1168"/>
      <point x="1372" y="1068"/>
      <point x="1340" y="866" type="curve"/>
      <point x="1334" y="866" type="line"/>
      <point x="1283" y="1065"/>
      <point x="1090" y="1168"/>
    </contour>
  </outline>
</glyph>
<glyph name="vowelU.mlm" format="2">
  <advance width="1784"/>
  <unicode hex="0D09"/>
  <outline>
    <contour>
      <point x="882" y="1178" type="curve" smooth="yes"/>
      <point x="380" y="1178"/>
      <point x="131" y="996"/>
      <point x="131" y="650" type="curve" smooth="yes"/>
      <point x="131" y="634" type="line" smooth="yes"/>
      <point x="131" y="382"/>
      <point x="274" y="247"/>
      <point x="570" y="247" type="curve" smooth="yes"/>
      <point x="858.048" y="247"/>
      <point x="992" y="359"/>
      <point x="992" y="556" type="curve" smooth="yes"/>
      <point x="992" y="565" type="line" smooth="yes"/>
      <point x="992" y="746"/>
      <point x="872.962" y="854"/>
      <point x="648" y="854" type="curve" smooth="yes"/>
      <point x="464.101" y="854"/>
      <point x="345.81" y="773"/>
      <point x="314" y="646" type="curve"/>
      <point x="326" y="585" type="line"/>
      <point x="366.673" y="656.39"/>
      <point x="452.98" y="702"/>
      <point x="575" y="702" type="curve" smooth="yes"/>
      <point x="713.091" y="702"/>
      <point x="792" y="649.366"/>
      <point x="792" y="558" type="curve" smooth="yes"/>
      <point x="792" y="551" type="line" smooth="yes"/>
      <point x="792" y="452.643"/>
      <point x="712.095" y="398"/>
      <point x="573" y="398" type="curve" smooth="yes"/>
      <point x="411.32" y="398"/>
      <point x="328" y="469.647"/>
      <point x="328" y="601" type="curve" smooth="yes"/>
      <point x="328" y="620" type="line"/>
      <point x="333" y="678" type="line"/>
      <point x="317" y="678" type="line"/>
      <point x="317" y="678" type="line"/>
      <point x="317" y="890"/>
      <point x="505.32" y="1009"/>
      <point x="871" y="1009" type="curve" smooth="yes"/>
      <point x="1249" y="1009"/>
      <point x="1442" y="870"/>
      <point x="1442" y="590" type="curve" smooth="yes"/>
      <point x="1442" y="573" type="line" smooth="yes"/>
      <point x="1442" y="293"/>
      <point x="1275" y="160"/>
      <point x="946" y="160" type="curve" smooth="yes"/>
      <point x="482" y="160" type="line" smooth="yes"/>
      <point x="249" y="160"/>
      <point x="131" y="61"/>
      <point x="131" y="-126" type="curve" smooth="yes"/>
      <point x="131" y="-317"/>
      <point x="249" y="-415"/>
      <point x="482" y="-415" type="curve" smooth="yes"/>
      <point x="1609" y="-415" type="line"/>
      <point x="1639" y="-254" type="line"/>
      <point x="498" y="-254" type="line" smooth="yes"/>
      <point x="393" y="-254"/>
      <point x="337" y="-213.631"/>
      <point x="337" y="-126" type="curve" smooth="yes"/>
      <point x="337" y="-41.3333"/>
      <point x="393" y="1"/>
      <point x="498" y="1" type="curve" smooth="yes"/>
      <point x="983" y="1" type="line" smooth="yes"/>
      <point x="1419" y="1"/>
      <point x="1650" y="192.667"/>
      <point x="1650" y="576" type="curve" smooth="yes"/>
      <point x="1650" y="591" type="line" smooth="yes"/>
      <point x="1650" y="975"/>
      <point x="1396" y="1178"/>
    </contour>
  </outline>
</glyph>
<glyph name="vowelshortE.mlm" format="2">
  <advance width="3280"/>
  <unicode hex="0D0E"/>
  <outline>
    <contour>
      <point x="640" y="763" type="curve" smooth="yes"/>
      <point x="299" y="763"/>
      <point x="125" y="608.292"/>
      <point x="125" y="310" type="curve" smooth="yes"/>
      <point x="125" y="297" type="line" smooth="yes"/>
      <point x="125" y="178.003"/>
      <point x="163" y="70.8079"/>
      <point x="228" y="0" type="curve"/>
      <point x="441" y="0" type="line"/>
      <point x="376" y="83.588"/>
      <point x="331" y="183.894"/>
      <point x="331" y="296" type="curve" smooth="yes"/>
      <point x="331" y="306" type="line" smooth="yes"/>
      <point x="331" y="490.964"/>
      <point x="433" y="586"/>
      <point x="640" y="586" type="curve" smooth="yes"/>
      <point x="847" y="586"/>
      <point x="949" y="490.964"/>
      <point x="949" y="306" type="curve" smooth="yes"/>
      <point x="949" y="296" type="line" smooth="yes"/>
      <point x="949" y="191.834"/>
      <point x="904" y="93.564"/>
      <point x="836" y="12" type="curve"/>
      <point x="836" y="0" type="line"/>
      <point x="988" y="0" type="line"/>
      <point x="1101.87" y="84.6345"/>
      <point x="1157" y="187.752"/>
      <point x="1157" y="322" type="curve" smooth="yes"/>
      <point x="1157" y="330" type="line" smooth="yes"/>
      <point x="1157" y="617.986"/>
      <point x="983" y="763"/>
    </contour>
    <contour>
      <point x="1034" y="162" type="line"/>
      <point x="844" y="0" type="line"/>
      <point x="1642" y="0" type="line"/>
      <point x="1683" y="2" type="line"/>
      <point x="2328" y="2" type="line"/>
      <point x="2344" y="162" type="line"/>
    </contour>
    <contour>
      <point x="2340" y="1175" type="curve" smooth="yes"/>
      <point x="1789" y="1175"/>
      <point x="1515" y="867"/>
      <point x="1515" y="281" type="curve" smooth="yes"/>
      <point x="1515" y="255" type="line" smooth="yes"/>
      <point x="1515" y="-233"/>
      <point x="1682" y="-474"/>
      <point x="2029" y="-474" type="curve" smooth="yes"/>
      <point x="2308" y="-474"/>
      <point x="2447" y="-334"/>
      <point x="2447" y="-50" type="curve" smooth="yes"/>
      <point x="2447" y="865" type="line"/>
      <point x="2248" y="865" type="line"/>
      <point x="2238" y="121" type="line"/>
      <point x="2243" y="31" type="line"/>
      <point x="2243" y="-49" type="line" smooth="yes"/>
      <point x="2243" y="-223"/>
      <point x="2174" y="-312"/>
      <point x="2029" y="-312" type="curve" smooth="yes"/>
      <point x="1839" y="-312"/>
      <point x="1750" y="-156"/>
      <point x="1733" y="79" type="curve"/>
      <point x="1732" y="88" type="line"/>
      <point x="1732" y="94" type="line"/>
      <point x="1726" y="147"/>
      <point x="1723" y="201"/>
      <point x="1723" y="253" type="curve" smooth="yes"/>
      <point x="1723" y="277" type="line" smooth="yes"/>
      <point x="1723" y="757"/>
      <point x="1930" y="999"/>
      <point x="2338" y="999" type="curve" smooth="yes"/>
      <point x="2729" y="999"/>
      <point x="2937" y="771"/>
      <point x="2937" y="318" type="curve" smooth="yes"/>
      <point x="2937" y="303" type="line" smooth="yes"/>
      <point x="2937" y="46"/>
      <point x="2861" y="-191"/>
      <point x="2707" y="-407" type="curve"/>
      <point x="2928" y="-407" type="line"/>
      <point x="3071" y="-233"/>
      <point x="3146" y="31"/>
      <point x="3146" y="303" type="curve" smooth="yes"/>
      <point x="3146" y="321" type="line" smooth="yes"/>
      <point x="3146" y="881"/>
      <point x="2865" y="1175"/>
    </contour>
  </outline>
</glyph>
<glyph name="vowelE.mlm" format="2">
  <advance width="3303"/>
  <unicode hex="0D0F"/>
  <outline>
    <contour>
      <point x="640" y="763" type="curve" smooth="yes"/>
      <point x="299" y="763"/>
      <point x="125" y="608.292"/>
      <point x="125" y="310" type="curve" smooth="yes"/>
      <point x="125" y="297" type="line" smooth="yes"/>
      <point x="125" y="178.003"/>
      <point x="163" y="70.8079"/>
      <point x="228" y="0" type="curve"/>
      <point x="441" y="0" type="line"/>
      <point x="376" y="83.588"/>
      <point x="331" y="183.894"/>
      <point x="331" y="296" type="curve" smooth="yes"/>
      <point x="331" y="306" type="line" smooth="yes"/>
      <point x="331" y="490.964"/>
      <point x="433" y="586"/>
      <point x="640" y="586" type="curve" smooth="yes"/>
      <point x="847" y="586"/>
      <point x="949" y="490.964"/>
      <point x="949" y="306" type="curve" smooth="yes"/>
      <point x="949" y="296" type="line" smooth="yes"/>
      <point x="949" y="191.834"/>
      <point x="904" y="93.564"/>
      <point x="836" y="12" type="curve"/>
      <point x="836" y="0" type="line"/>
      <point x="988" y="0" type="line"/>
      <point x="1101.87" y="84.6345"/>
      <point x="1157" y="187.752"/>
      <point x="1157" y="322" type="curve" smooth="yes"/>
      <point x="1157" y="330" type="line" smooth="yes"/>
      <point x="1157" y="617.986"/>
      <point x="983" y="763"/>
    </contour>
    <contour>
      <point x="2390" y="1175" type="curve" smooth="yes"/>
      <point x="1804" y="1175"/>
      <point x="1515" y="875"/>
      <point x="1515" y="281" type="curve" smooth="yes"/>
      <point x="1515" y="255" type="line" smooth="yes"/>
      <point x="1515" y="-233"/>
      <point x="1682" y="-474"/>
      <point x="2029" y="-474" type="curve" smooth="yes"/>
      <point x="2308" y="-474"/>
      <point x="2447" y="-334"/>
      <point x="2447" y="-50" type="curve" smooth="yes"/>
      <point x="2447" y="865" type="line"/>
      <point x="2249" y="865" type="line"/>
      <point x="2239" y="121" type="line"/>
      <point x="2243" y="31" type="line"/>
      <point x="2243" y="-49" type="line" smooth="yes"/>
      <point x="2243" y="-223"/>
      <point x="2174" y="-312"/>
      <point x="2029" y="-312" type="curve" smooth="yes"/>
      <point x="1839" y="-312"/>
      <point x="1750" y="-156"/>
      <point x="1733" y="79" type="curve"/>
      <point x="1732" y="88" type="line"/>
      <point x="1732" y="94" type="line"/>
      <point x="1726" y="147"/>
      <point x="1723" y="201"/>
      <point x="1723" y="253" type="curve" smooth="yes"/>
      <point x="1723" y="277" type="line" smooth="yes"/>
      <point x="1723" y="765"/>
      <point x="1944" y="999"/>
      <point x="2390" y="999" type="curve" smooth="yes"/>
      <point x="2761" y="999"/>
      <point x="2947" y="856"/>
      <point x="2947" y="600" type="curve" smooth="yes"/>
      <point x="2947" y="592" type="line" smooth="yes"/>
      <point x="2947" y="434"/>
      <point x="2865" y="359"/>
      <point x="2712" y="352" type="curve" smooth="yes"/>
      <point x="2626" y="348" type="line"/>
      <point x="2626" y="185" type="line"/>
      <point x="2711" y="181" type="line" smooth="yes"/>
      <point x="2885" y="173"/>
      <point x="2973" y="101"/>
      <point x="2973" y="-45" type="curve" smooth="yes"/>
      <point x="2973" y="-55" type="line" smooth="yes"/>
      <point x="2973" y="-209"/>
      <point x="2884" y="-288"/>
      <point x="2711" y="-288" type="curve" smooth="yes"/>
      <point x="2669" y="-288"/>
      <point x="2624" y="-285"/>
      <point x="2575" y="-277" type="curve"/>
      <point x="2610" y="-438" type="line"/>
      <point x="2662" y="-448"/>
      <point x="2714" y="-451"/>
      <point x="2763" y="-451" type="curve" smooth="yes"/>
      <point x="3039" y="-451"/>
      <point x="3181" y="-316"/>
      <point x="3181" y="-74" type="curve" smooth="yes"/>
      <point x="3181" y="-63" type="line" smooth="yes"/>
      <point x="3181" y="127"/>
      <point x="3077" y="242"/>
      <point x="2884" y="265" type="curve"/>
      <point x="2884" y="270" type="line"/>
      <point x="3064" y="301"/>
      <point x="3156" y="410"/>
      <point x="3156" y="606" type="curve" smooth="yes"/>
      <point x="3156" y="615" type="line" smooth="yes"/>
      <point x="3156" y="965"/>
      <point x="2902" y="1175"/>
    </contour>
    <contour>
      <point x="1033" y="162" type="line"/>
      <point x="850" y="0" type="line"/>
      <point x="1643" y="0" type="line"/>
      <point x="1684" y="2" type="line"/>
      <point x="2327" y="2" type="line"/>
      <point x="2343" y="162" type="line"/>
    </contour>
  </outline>
</glyph>
<glyph name="vowelshortO.mlm" format="2">
  <advance width="1941"/>
  <unicode hex="0D12"/>
  <outline>
    <contour>
      <point x="1402" y="-30" type="curve" smooth="yes"/>
      <point x="1681" y="-30"/>
      <point x="1817" y="73"/>
      <point x="1817" y="277" type="curve" smooth="yes"/>
      <point x="1817" y="286" type="line" smooth="yes"/>
      <point x="1817" y="431"/>
      <point x="1719" y="523"/>
      <point x="1523" y="546" type="curve"/>
      <point x="1523" y="552" type="line"/>
      <point x="1696" y="573"/>
      <point x="1784" y="658"/>
      <point x="1784" y="798" type="curve" smooth="yes"/>
      <point x="1784" y="805" type="line" smooth="yes"/>
      <point x="1784" y="1053"/>
      <point x="1535" y="1175"/>
      <point x="1049" y="1175" type="curve" smooth="yes"/>
      <point x="436" y="1175"/>
      <point x="130" y="937"/>
      <point x="130" y="469" type="curve" smooth="yes"/>
      <point x="130" y="450" type="line" smooth="yes"/>
      <point x="130" y="139"/>
      <point x="295" y="-36"/>
      <point x="606" y="-36" type="curve" smooth="yes"/>
      <point x="899" y="-36"/>
      <point x="1053" y="97"/>
      <point x="1053" y="341" type="curve" smooth="yes"/>
      <point x="1053" y="352" type="line" smooth="yes"/>
      <point x="1053" y="588"/>
      <point x="920" y="714"/>
      <point x="689" y="714" type="curve" smooth="yes"/>
      <point x="487" y="714"/>
      <point x="358" y="620"/>
      <point x="320" y="460" type="curve"/>
      <point x="331" y="392" type="line"/>
      <point x="374" y="489"/>
      <point x="475" y="550"/>
      <point x="611" y="550" type="curve" smooth="yes"/>
      <point x="763" y="550"/>
      <point x="850" y="477"/>
      <point x="850" y="347" type="curve" smooth="yes"/>
      <point x="850" y="338" type="line" smooth="yes"/>
      <point x="850" y="204"/>
      <point x="765" y="129"/>
      <point x="606" y="129" type="curve" smooth="yes"/>
      <point x="427" y="129"/>
      <point x="333" y="230"/>
      <point x="333" y="418" type="curve" smooth="yes"/>
      <point x="333" y="430" type="line"/>
      <point x="340" y="494" type="line"/>
      <point x="324" y="494" type="line"/>
      <point x="324" y="495" type="line"/>
      <point x="324" y="836"/>
      <point x="573" y="1003"/>
      <point x="1053" y="1003" type="curve" smooth="yes"/>
      <point x="1399" y="1003"/>
      <point x="1574" y="932"/>
      <point x="1574" y="786" type="curve" smooth="yes"/>
      <point x="1574" y="781" type="line" smooth="yes"/>
      <point x="1574" y="686"/>
      <point x="1504" y="639"/>
      <point x="1365" y="635" type="curve" smooth="yes"/>
      <point x="1218" y="631" type="line"/>
      <point x="1218" y="467" type="line"/>
      <point x="1365" y="463" type="line" smooth="yes"/>
      <point x="1529" y="459"/>
      <point x="1607" y="409"/>
      <point x="1607" y="309" type="curve" smooth="yes"/>
      <point x="1607" y="302" type="line" smooth="yes"/>
      <point x="1607" y="192"/>
      <point x="1527" y="135"/>
      <point x="1363" y="135" type="curve" smooth="yes"/>
      <point x="1300" y="135"/>
      <point x="1242" y="140"/>
      <point x="1179" y="151" type="curve"/>
      <point x="1206" y="-12" type="line"/>
      <point x="1267" y="-25"/>
      <point x="1334" y="-30"/>
    </contour>
  </outline>
</glyph>
<glyph name="Kha.mlm" format="2">
  <advance width="2523"/>
  <unicode hex="0D16"/>
  <outline>
    <contour>
      <point x="2134" y="1130" type="line"/>
      <point x="2134" y="0" type="line"/>
      <point x="2339" y="0" type="line"/>
      <point x="2339" y="1130" type="line"/>
    </contour>
    <contour>
      <point x="1533" y="162" type="line"/>
      <point x="1334" y="0" type="line"/>
      <point x="2304" y="0" type="line"/>
      <point x="2304" y="162" type="line"/>
    </contour>
    <contour>
      <point x="907" y="1175" type="curve" smooth="yes"/>
      <point x="390" y="1175"/>
      <point x="130" y="940"/>
      <point x="130" y="489" type="curve" smooth="yes"/>
      <point x="130" y="477" type="line" smooth="yes"/>
      <point x="130" y="146"/>
      <point x="299" y="-36"/>
      <point x="620" y="-36" type="curve" smooth="yes"/>
      <point x="917" y="-36"/>
      <point x="1077" y="98"/>
      <point x="1077" y="346" type="curve" smooth="yes"/>
      <point x="1077" y="356" type="line" smooth="yes"/>
      <point x="1077" y="589"/>
      <point x="937" y="716"/>
      <point x="700" y="716" type="curve" smooth="yes"/>
      <point x="492" y="716"/>
      <point x="357" y="622"/>
      <point x="322" y="461" type="curve"/>
      <point x="335" y="401" type="line"/>
      <point x="382" y="494"/>
      <point x="482" y="552"/>
      <point x="621" y="552" type="curve" smooth="yes"/>
      <point x="784" y="552"/>
      <point x="874" y="479"/>
      <point x="874" y="349" type="curve" smooth="yes"/>
      <point x="874" y="340" type="line" smooth="yes"/>
      <point x="874" y="206"/>
      <point x="782" y="129"/>
      <point x="620" y="129" type="curve" smooth="yes"/>
      <point x="435" y="129"/>
      <point x="336" y="231"/>
      <point x="336" y="421" type="curve" smooth="yes"/>
      <point x="336" y="430" type="line"/>
      <point x="342" y="496" type="line"/>
      <point x="325" y="496" type="line"/>
      <point x="325" y="497" type="line"/>
      <point x="325" y="834"/>
      <point x="525" y="1001"/>
      <point x="904" y="1001" type="curve" smooth="yes"/>
      <point x="1287" y="1001"/>
      <point x="1483" y="838"/>
      <point x="1483" y="507" type="curve" smooth="yes"/>
      <point x="1483" y="491" type="line" smooth="yes"/>
      <point x="1483" y="310"/>
      <point x="1428" y="149"/>
      <point x="1334" y="12" type="curve"/>
      <point x="1334" y="0" type="line"/>
      <point x="1505" y="0" type="line"/>
      <point x="1624.28" y="113.13"/>
      <point x="1692" y="287.348"/>
      <point x="1692" y="501" type="curve" smooth="yes"/>
      <point x="1692" y="516" type="line" smooth="yes"/>
      <point x="1692" y="950.272"/>
      <point x="1426" y="1175"/>
    </contour>
  </outline>
</glyph>
<glyph name="Ga.mlm" format="2">
  <advance width="2184"/>
  <unicode hex="0D17"/>
  <outline>
    <contour>
      <point x="1497" y="1170" type="curve" smooth="yes"/>
      <point x="1159" y="1170"/>
      <point x="984" y="1009"/>
      <point x="984" y="689" type="curve" smooth="yes"/>
      <point x="984" y="602"/>
      <point x="984" y="545"/>
      <point x="984" y="458" type="curve" smooth="yes"/>
      <point x="984" y="248"/>
      <point x="880" y="143"/>
      <point x="682" y="143" type="curve" smooth="yes"/>
      <point x="456" y="143"/>
      <point x="343" y="273"/>
      <point x="343" y="541" type="curve" smooth="yes"/>
      <point x="343" y="563" type="line" smooth="yes"/>
      <point x="343" y="785"/>
      <point x="425" y="966"/>
      <point x="579" y="1126" type="curve"/>
      <point x="361" y="1126" type="line"/>
      <point x="214.293" y="994"/>
      <point x="134" y="791"/>
      <point x="134" y="558" type="curve" smooth="yes"/>
      <point x="134" y="536" type="line" smooth="yes"/>
      <point x="134" y="157"/>
      <point x="318" y="-36"/>
      <point x="682" y="-36" type="curve" smooth="yes"/>
      <point x="1015" y="-36"/>
      <point x="1189" y="127"/>
      <point x="1189" y="442" type="curve" smooth="yes"/>
      <point x="1189" y="529"/>
      <point x="1189" y="585"/>
      <point x="1189" y="672" type="curve" smooth="yes"/>
      <point x="1189" y="885"/>
      <point x="1295" y="991"/>
      <point x="1497" y="991" type="curve" smooth="yes"/>
      <point x="1726" y="991"/>
      <point x="1841" y="858"/>
      <point x="1841" y="581" type="curve" smooth="yes"/>
      <point x="1841" y="560" type="line" smooth="yes"/>
      <point x="1841" y="340"/>
      <point x="1759" y="160"/>
      <point x="1614" y="0" type="curve"/>
      <point x="1842" y="0" type="line"/>
      <point x="1979.71" y="134"/>
      <point x="2050" y="331"/>
      <point x="2050" y="560" type="curve" smooth="yes"/>
      <point x="2050" y="585" type="line" smooth="yes"/>
      <point x="2050" y="974"/>
      <point x="1864" y="1170"/>
    </contour>
  </outline>
</glyph>
<glyph name="Nya.mlm" format="2">
  <advance width="3659"/>
  <unicode hex="0D1E"/>
  <outline>
    <contour>
      <point x="862" y="1169" type="curve" smooth="yes"/>
      <point x="375" y="1169"/>
      <point x="130" y="937"/>
      <point x="130" y="490" type="curve" smooth="yes"/>
      <point x="130" y="477" type="line" smooth="yes"/>
      <point x="130" y="146"/>
      <point x="298" y="-36"/>
      <point x="617" y="-36" type="curve" smooth="yes"/>
      <point x="912" y="-36"/>
      <point x="1071" y="98"/>
      <point x="1071" y="344" type="curve" smooth="yes"/>
      <point x="1071" y="354" type="line" smooth="yes"/>
      <point x="1071" y="587"/>
      <point x="932" y="712"/>
      <point x="697" y="712" type="curve" smooth="yes"/>
      <point x="490" y="712"/>
      <point x="356" y="620"/>
      <point x="321" y="461" type="curve"/>
      <point x="334" y="401" type="line"/>
      <point x="381" y="492"/>
      <point x="480" y="549"/>
      <point x="618" y="549" type="curve" smooth="yes"/>
      <point x="779" y="549"/>
      <point x="868" y="476"/>
      <point x="868" y="347" type="curve" smooth="yes"/>
      <point x="868" y="338" type="line" smooth="yes"/>
      <point x="868" y="206"/>
      <point x="777" y="129"/>
      <point x="617" y="129" type="curve" smooth="yes"/>
      <point x="433" y="129"/>
      <point x="335" y="231"/>
      <point x="335" y="421" type="curve" smooth="yes"/>
      <point x="335" y="430" type="line"/>
      <point x="351" y="497" type="line"/>
      <point x="324" y="497" type="line"/>
      <point x="324" y="498" type="line"/>
      <point x="324" y="833"/>
      <point x="511" y="995"/>
      <point x="865" y="995" type="curve" smooth="yes"/>
      <point x="1209" y="995"/>
      <point x="1385" y="849"/>
      <point x="1385" y="580" type="curve" smooth="yes"/>
      <point x="1385" y="521" type="line"/>
      <point x="1484" y="521" type="line"/>
      <point x="1484" y="826" type="line"/>
      <point x="1430" y="1047"/>
      <point x="1219" y="1169"/>
    </contour>
    <contour>
      <point x="1385" y="6" type="line"/>
      <point x="1589" y="6" type="line"/>
      <point x="1589" y="568" type="line"/>
      <point x="1385" y="566" type="line"/>
    </contour>
    <contour>
      <point x="2058" y="1169" type="curve" smooth="yes"/>
      <point x="1735.87" y="1169"/>
      <point x="1541.18" y="1047"/>
      <point x="1490" y="826" type="curve"/>
      <point x="1459" y="826" type="line"/>
      <point x="1467" y="521" type="line"/>
      <point x="1589" y="490" type="line"/>
      <point x="1589" y="580" type="line" smooth="yes"/>
      <point x="1589" y="853"/>
      <point x="1755.69" y="999"/>
      <point x="2073" y="999" type="curve" smooth="yes"/>
      <point x="2166" y="999"/>
      <point x="2247" y="981"/>
      <point x="2316" y="953" type="curve"/>
      <point x="2319.39" y="951.742"/>
      <point x="2383.33" y="927.991"/>
      <point x="2386" y="927" type="curve"/>
      <point x="2583" y="843"/>
      <point x="2689" y="675"/>
      <point x="2689" y="472" type="curve" smooth="yes"/>
      <point x="2689" y="458" type="line" smooth="yes"/>
      <point x="2689" y="241"/>
      <point x="2598" y="134"/>
      <point x="2422" y="134" type="curve" smooth="yes"/>
      <point x="2246" y="134"/>
      <point x="2155" y="241"/>
      <point x="2155" y="458" type="curve" smooth="yes"/>
      <point x="2155" y="472" type="line" smooth="yes"/>
      <point x="2155" y="675"/>
      <point x="2261" y="843"/>
      <point x="2458" y="927" type="curve"/>
      <point x="2460.67" y="927.991"/>
      <point x="2524.62" y="951.722"/>
      <point x="2528" y="953" type="curve" smooth="yes"/>
      <point x="2602.01" y="980.98"/>
      <point x="2688" y="999"/>
      <point x="2788" y="999" type="curve" smooth="yes"/>
      <point x="3142" y="999"/>
      <point x="3316" y="835"/>
      <point x="3316" y="510" type="curve" smooth="yes"/>
      <point x="3316" y="492" type="line" smooth="yes"/>
      <point x="3316" y="310"/>
      <point x="3258" y="151"/>
      <point x="3152" y="0" type="curve"/>
      <point x="3372" y="0" type="line"/>
      <point x="3470" y="126"/>
      <point x="3525" y="305"/>
      <point x="3525" y="492" type="curve" smooth="yes"/>
      <point x="3525" y="510" type="line" smooth="yes"/>
      <point x="3525" y="945"/>
      <point x="3287" y="1169"/>
      <point x="2817" y="1169" type="curve" smooth="yes"/>
      <point x="2619" y="1169"/>
      <point x="2463" y="1117"/>
      <point x="2360" y="1035" type="curve"/>
      <point x="2287" y="998" type="line"/>
      <point x="2067" y="897"/>
      <point x="1948" y="699"/>
      <point x="1948" y="463" type="curve" smooth="yes"/>
      <point x="1948" y="446" type="line" smooth="yes"/>
      <point x="1948" y="128"/>
      <point x="2108" y="-36"/>
      <point x="2422" y="-36" type="curve" smooth="yes"/>
      <point x="2737" y="-36"/>
      <point x="2896" y="128"/>
      <point x="2896" y="446" type="curve" smooth="yes"/>
      <point x="2896" y="463" type="line" smooth="yes"/>
      <point x="2896" y="699"/>
      <point x="2777" y="897"/>
      <point x="2557" y="998" type="curve"/>
      <point x="2483" y="1035" type="line"/>
      <point x="2387" y="1117"/>
      <point x="2243" y="1169"/>
    </contour>
  </outline>
</glyph>
<glyph name="Tta.mlm" format="2">
  <advance width="1453"/>
  <unicode hex="0D1F"/>
  <outline>
    <contour>
      <point x="744" y="-39" type="curve" smooth="yes"/>
      <point x="1147" y="-39"/>
      <point x="1339" y="74"/>
      <point x="1339" y="307" type="curve" smooth="yes"/>
      <point x="1339" y="313" type="line" smooth="yes"/>
      <point x="1339" y="545"/>
      <point x="1204" y="634"/>
      <point x="781" y="658" type="curve" smooth="yes"/>
      <point x="427" y="678"/>
      <point x="336" y="715"/>
      <point x="336" y="820" type="curve" smooth="yes"/>
      <point x="336" y="825" type="line" smooth="yes"/>
      <point x="336" y="942"/>
      <point x="443" y="1002"/>
      <point x="727" y="1002" type="curve" smooth="yes"/>
      <point x="934" y="1002"/>
      <point x="1127" y="960"/>
      <point x="1286" y="900" type="curve"/>
      <point x="1265" y="1070" type="line"/>
      <point x="1127" y="1133"/>
      <point x="945" y="1174"/>
      <point x="720" y="1174" type="curve" smooth="yes"/>
      <point x="317" y="1174"/>
      <point x="127" y="1062"/>
      <point x="127" y="824" type="curve" smooth="yes"/>
      <point x="127" y="818" type="line" smooth="yes"/>
      <point x="127" y="599"/>
      <point x="273" y="516"/>
      <point x="721" y="490" type="curve" smooth="yes"/>
      <point x="1048" y="471"/>
      <point x="1130" y="431"/>
      <point x="1130" y="314" type="curve" smooth="yes"/>
      <point x="1130" y="310" type="line" smooth="yes"/>
      <point x="1130" y="194"/>
      <point x="1022" y="133"/>
      <point x="745" y="133" type="curve" smooth="yes"/>
      <point x="497" y="133"/>
      <point x="290" y="200"/>
      <point x="111" y="291" type="curve"/>
      <point x="135" y="102" type="line"/>
      <point x="288" y="19"/>
      <point x="495" y="-39"/>
    </contour>
  </outline>
</glyph>
<glyph name="Dda.mlm" format="2">
  <advance width="3021"/>
  <unicode hex="0D21"/>
  <outline>
    <contour>
      <point x="1999" y="555" type="line"/>
      <point x="1999" y="1115" type="line"/>
      <point x="1794" y="1115" type="line"/>
      <point x="1794" y="550" type="line"/>
    </contour>
    <contour>
      <point x="1470" y="-36" type="curve" smooth="yes"/>
      <point x="1726" y="-36"/>
      <point x="1864" y="86"/>
      <point x="1894" y="273" type="curve"/>
      <point x="1937" y="273" type="line"/>
      <point x="1937" y="678" type="line"/>
      <point x="1794" y="684" type="line"/>
      <point x="1794" y="486" type="line" smooth="yes"/>
      <point x="1794" y="261.337"/>
      <point x="1695" y="147"/>
      <point x="1499" y="147" type="curve" smooth="yes"/>
      <point x="1301" y="147"/>
      <point x="1199" y="254.332"/>
      <point x="1199" y="470" type="curve" smooth="yes"/>
      <point x="1199" y="554"/>
      <point x="1199" y="606"/>
      <point x="1199" y="689" type="curve" smooth="yes"/>
      <point x="1199" y="1008"/>
      <point x="1024" y="1170"/>
      <point x="687" y="1170" type="curve" smooth="yes"/>
      <point x="319" y="1170"/>
      <point x="134" y="974"/>
      <point x="134" y="585" type="curve" smooth="yes"/>
      <point x="134" y="560" type="line" smooth="yes"/>
      <point x="134" y="335"/>
      <point x="204.286" y="138"/>
      <point x="342" y="0" type="curve"/>
      <point x="570" y="0" type="line"/>
      <point x="426" y="158"/>
      <point x="343" y="340"/>
      <point x="343" y="560" type="curve" smooth="yes"/>
      <point x="343" y="581" type="line" smooth="yes"/>
      <point x="343" y="857"/>
      <point x="456" y="991"/>
      <point x="687" y="991" type="curve" smooth="yes"/>
      <point x="889" y="991"/>
      <point x="994" y="884"/>
      <point x="994" y="668" type="curve" smooth="yes"/>
      <point x="994" y="583"/>
      <point x="994" y="529"/>
      <point x="994" y="443" type="curve" smooth="yes"/>
      <point x="994" y="125"/>
      <point x="1157" y="-36"/>
    </contour>
    <contour>
      <point x="1900" y="273" type="line"/>
      <point x="1935" y="86"/>
      <point x="2080" y="-35"/>
      <point x="2350" y="-35" type="curve" smooth="yes"/>
      <point x="2705" y="-35"/>
      <point x="2887" y="164"/>
      <point x="2887" y="557" type="curve" smooth="yes"/>
      <point x="2887" y="574" type="line" smooth="yes"/>
      <point x="2887" y="795"/>
      <point x="2812.72" y="990"/>
      <point x="2680" y="1125" type="curve"/>
      <point x="2463" y="1125" type="line"/>
      <point x="2600" y="971"/>
      <point x="2678" y="791"/>
      <point x="2678" y="578" type="curve" smooth="yes"/>
      <point x="2678" y="562" type="line" smooth="yes"/>
      <point x="2678" y="287.337"/>
      <point x="2560" y="148"/>
      <point x="2324" y="148" type="curve" smooth="yes"/>
      <point x="2108" y="148"/>
      <point x="1999" y="266.334"/>
      <point x="1999" y="502" type="curve" smooth="yes"/>
      <point x="1999" y="680" type="line"/>
      <point x="1899" y="680" type="line"/>
    </contour>
  </outline>
</glyph>
<glyph name="Ddha.mlm" format="2">
  <advance width="3360"/>
  <unicode hex="0D22"/>
  <outline>
    <contour>
      <point x="1999" y="555" type="line"/>
      <point x="1999" y="1115" type="line"/>
      <point x="1794" y="1115" type="line"/>
      <point x="1794" y="550" type="line"/>
    </contour>
    <contour>
      <point x="1470" y="-36" type="curve" smooth="yes"/>
      <point x="1733" y="-36"/>
      <point x="1871" y="86"/>
      <point x="1903" y="281" type="curve"/>
      <point x="1945" y="281" type="line"/>
      <point x="1940" y="678" type="line"/>
      <point x="1794" y="684" type="line"/>
      <point x="1794" y="481" type="line" smooth="yes"/>
      <point x="1794" y="259.336"/>
      <point x="1696" y="147"/>
      <point x="1499" y="147" type="curve" smooth="yes"/>
      <point x="1301" y="147"/>
      <point x="1199" y="255.333"/>
      <point x="1199" y="472" type="curve" smooth="yes"/>
      <point x="1199" y="555"/>
      <point x="1199" y="607"/>
      <point x="1199" y="689" type="curve" smooth="yes"/>
      <point x="1199" y="1008"/>
      <point x="1024" y="1170"/>
      <point x="687" y="1170" type="curve" smooth="yes"/>
      <point x="319" y="1170"/>
      <point x="134" y="974"/>
      <point x="134" y="585" type="curve" smooth="yes"/>
      <point x="134" y="560" type="line" smooth="yes"/>
      <point x="134" y="335"/>
      <point x="204.286" y="138"/>
      <point x="342" y="0" type="curve"/>
      <point x="570" y="0" type="line"/>
      <point x="426" y="158"/>
      <point x="343" y="340"/>
      <point x="343" y="560" type="curve" smooth="yes"/>
      <point x="343" y="581" type="line" smooth="yes"/>
      <point x="343" y="857"/>
      <point x="456" y="991"/>
      <point x="687" y="991" type="curve" smooth="yes"/>
      <point x="889" y="991"/>
      <point x="994" y="884"/>
      <point x="994" y="668" type="curve" smooth="yes"/>
      <point x="994" y="584"/>
      <point x="994" y="530"/>
      <point x="994" y="445" type="curve" smooth="yes"/>
      <point x="994" y="127"/>
      <point x="1157" y="-36"/>
    </contour>
    <contour>
      <point x="2523" y="-36" type="curve" smooth="yes"/>
      <point x="2995" y="-36"/>
      <point x="3231" y="194"/>
      <point x="3231" y="639" type="curve" smooth="yes"/>
      <point x="3231" y="653" type="line" smooth="yes"/>
      <point x="3231" y="986"/>
      <point x="3065" y="1169"/>
      <point x="2751" y="1169" type="curve" smooth="yes"/>
      <point x="2460" y="1169"/>
      <point x="2304" y="1037"/>
      <point x="2304" y="794" type="curve" smooth="yes"/>
      <point x="2304" y="784" type="line" smooth="yes"/>
      <point x="2304" y="554"/>
      <point x="2443" y="431"/>
      <point x="2680" y="431" type="curve" smooth="yes"/>
      <point x="2878" y="431"/>
      <point x="3006" y="523"/>
      <point x="3040" y="682" type="curve"/>
      <point x="3027" y="746" type="line"/>
      <point x="2981" y="652"/>
      <point x="2884" y="594"/>
      <point x="2748" y="594" type="curve" smooth="yes"/>
      <point x="2592" y="594"/>
      <point x="2507" y="665"/>
      <point x="2507" y="791" type="curve" smooth="yes"/>
      <point x="2507" y="800" type="line" smooth="yes"/>
      <point x="2507" y="929"/>
      <point x="2595" y="1004"/>
      <point x="2751" y="1004" type="curve" smooth="yes"/>
      <point x="2930" y="1004"/>
      <point x="3026" y="907"/>
      <point x="3026" y="726" type="curve" smooth="yes"/>
      <point x="3026" y="713" type="line"/>
      <point x="3010" y="646" type="line"/>
      <point x="3037" y="646" type="line"/>
      <point x="3037" y="645" type="line"/>
      <point x="3037" y="301"/>
      <point x="2858" y="136"/>
      <point x="2512" y="136" type="curve" smooth="yes"/>
      <point x="2173" y="136"/>
      <point x="1999" y="274"/>
      <point x="1999" y="529" type="curve" smooth="yes"/>
      <point x="1999" y="617" type="line"/>
      <point x="1904" y="617" type="line"/>
      <point x="1908" y="281" type="line"/>
      <point x="1965" y="77"/>
      <point x="2179" y="-36"/>
    </contour>
  </outline>
</glyph>
<glyph name="Da.mlm" format="2">
  <advance width="1687"/>
  <unicode hex="0D26"/>
  <outline>
    <contour>
      <point x="1532" y="830" type="line" smooth="yes"/>
      <point x="1532" y="1060"/>
      <point x="1321" y="1175"/>
      <point x="903" y="1175" type="curve" smooth="yes"/>
      <point x="389" y="1175"/>
      <point x="138" y="957"/>
      <point x="138" y="518" type="curve" smooth="yes"/>
      <point x="138" y="496" type="line" smooth="yes"/>
      <point x="138" y="304"/>
      <point x="182" y="125"/>
      <point x="258" y="0" type="curve"/>
      <point x="471" y="0" type="line"/>
      <point x="393" y="151"/>
      <point x="347" y="313"/>
      <point x="347" y="495" type="curve" smooth="yes"/>
      <point x="347" y="514" type="line" smooth="yes"/>
      <point x="347" y="841"/>
      <point x="526" y="1003"/>
      <point x="908" y="1003" type="curve" smooth="yes"/>
      <point x="1186" y="1003"/>
      <point x="1323" y="937"/>
      <point x="1323" y="808" type="curve" smooth="yes"/>
      <point x="1323" y="803" type="line" smooth="yes"/>
      <point x="1323" y="705"/>
      <point x="1243" y="657"/>
      <point x="1079" y="654" type="curve" smooth="yes"/>
      <point x="813" y="649" type="line"/>
      <point x="813" y="486" type="line"/>
      <point x="1079" y="480" type="line" smooth="yes"/>
      <point x="1260" y="476"/>
      <point x="1347" y="425"/>
      <point x="1347" y="319" type="curve" smooth="yes"/>
      <point x="1347" y="311" type="line" smooth="yes"/>
      <point x="1347" y="196"/>
      <point x="1256" y="138"/>
      <point x="1071" y="138" type="curve" smooth="yes"/>
      <point x="950" y="138"/>
      <point x="845" y="150"/>
      <point x="729" y="183" type="curve"/>
      <point x="755" y="16" type="line"/>
      <point x="861" y="-17"/>
      <point x="975" y="-30"/>
      <point x="1094" y="-30" type="curve" smooth="yes"/>
      <point x="1404" y="-30"/>
      <point x="1557" y="75"/>
      <point x="1557" y="285" type="curve" smooth="yes"/>
      <point x="1557" y="295" type="line" smooth="yes"/>
      <point x="1557" y="447"/>
      <point x="1454" y="542"/>
      <point x="1250" y="565" type="curve"/>
      <point x="1250" y="571" type="line"/>
      <point x="1439" y="592"/>
      <point x="1532" y="678"/>
      <point x="1532" y="823" type="curve" smooth="yes"/>
    </contour>
  </outline>
</glyph>
<glyph name="Na.mlm" format="2">
  <advance width="2299"/>
  <unicode hex="0D28"/>
  <outline>
    <contour>
      <point x="1047" y="577" type="line"/>
      <point x="1047" y="6" type="line"/>
      <point x="1252" y="6" type="line"/>
      <point x="1252" y="577" type="line"/>
    </contour>
    <contour>
      <point x="134" y="563" type="curve" smooth="yes"/>
      <point x="134" y="546" type="line" smooth="yes"/>
      <point x="134" y="321"/>
      <point x="199.267" y="133"/>
      <point x="323" y="0" type="curve"/>
      <point x="547" y="0" type="line"/>
      <point x="417" y="153"/>
      <point x="343" y="333"/>
      <point x="343" y="546" type="curve" smooth="yes"/>
      <point x="343" y="563" type="line" smooth="yes"/>
      <point x="343" y="845"/>
      <point x="464" y="986"/>
      <point x="713" y="986" type="curve" smooth="yes"/>
      <point x="937" y="986"/>
      <point x="1047" y="865"/>
      <point x="1047" y="627" type="curve" smooth="yes"/>
      <point x="1047" y="445" type="line"/>
      <point x="1148" y="445" type="line"/>
      <point x="1147" y="850" type="line"/>
      <point x="1111" y="1045"/>
      <point x="966" y="1169"/>
      <point x="691" y="1169" type="curve" smooth="yes"/>
      <point x="322" y="1169"/>
      <point x="134" y="965"/>
    </contour>
    <contour>
      <point x="1252" y="439" type="line"/>
      <point x="1252" y="627" type="line" smooth="yes"/>
      <point x="1252" y="867"/>
      <point x="1363" y="986"/>
      <point x="1587" y="986" type="curve" smooth="yes"/>
      <point x="1834" y="986"/>
      <point x="1956" y="845"/>
      <point x="1956" y="563" type="curve" smooth="yes"/>
      <point x="1956" y="546" type="line" smooth="yes"/>
      <point x="1956" y="333"/>
      <point x="1882" y="153"/>
      <point x="1752" y="0" type="curve"/>
      <point x="1976" y="0" type="line"/>
      <point x="2099.73" y="133"/>
      <point x="2165" y="321"/>
      <point x="2165" y="546" type="curve" smooth="yes"/>
      <point x="2165" y="563" type="line" smooth="yes"/>
      <point x="2165" y="965"/>
      <point x="1977" y="1169"/>
      <point x="1609" y="1169" type="curve" smooth="yes"/>
      <point x="1335" y="1169"/>
      <point x="1188" y="1045"/>
      <point x="1153" y="850" type="curve"/>
      <point x="1110" y="850" type="line"/>
      <point x="1110" y="445" type="line"/>
    </contour>
  </outline>
</glyph>
<glyph name="Nnna.mlm" format="2">
  <advance width="2653"/>
  <unicode hex="0D29"/>
  <outline>
    <contour>
      <point x="1385" y="6" type="line"/>
      <point x="1589" y="6" type="line"/>
      <point x="1589" y="581" type="line"/>
      <point x="1385" y="572" type="line"/>
    </contour>
    <contour>
      <point x="861" y="1169" type="curve" smooth="yes"/>
      <point x="375" y="1169"/>
      <point x="130" y="937"/>
      <point x="130" y="490" type="curve" smooth="yes"/>
      <point x="130" y="477" type="line" smooth="yes"/>
      <point x="130" y="146"/>
      <point x="298" y="-36"/>
      <point x="617" y="-36" type="curve" smooth="yes"/>
      <point x="912" y="-36"/>
      <point x="1071" y="98"/>
      <point x="1071" y="344" type="curve" smooth="yes"/>
      <point x="1071" y="354" type="line" smooth="yes"/>
      <point x="1071" y="587"/>
      <point x="932" y="712"/>
      <point x="697" y="712" type="curve" smooth="yes"/>
      <point x="490" y="712"/>
      <point x="356" y="620"/>
      <point x="321" y="461" type="curve"/>
      <point x="334" y="401" type="line"/>
      <point x="381" y="492"/>
      <point x="480" y="549"/>
      <point x="618" y="549" type="curve" smooth="yes"/>
      <point x="779" y="549"/>
      <point x="868" y="476"/>
      <point x="868" y="347" type="curve" smooth="yes"/>
      <point x="868" y="338" type="line" smooth="yes"/>
      <point x="868" y="206"/>
      <point x="777" y="129"/>
      <point x="617" y="129" type="curve" smooth="yes"/>
      <point x="433" y="129"/>
      <point x="335" y="231"/>
      <point x="335" y="421" type="curve" smooth="yes"/>
      <point x="335" y="430" type="line"/>
      <point x="351" y="497" type="line"/>
      <point x="324" y="497" type="line"/>
      <point x="324" y="498" type="line"/>
      <point x="324" y="833"/>
      <point x="511" y="995"/>
      <point x="866" y="995" type="curve" smooth="yes"/>
      <point x="1208" y="995"/>
      <point x="1385" y="859"/>
      <point x="1385" y="605" type="curve" smooth="yes"/>
      <point x="1385" y="526" type="line"/>
      <point x="1484" y="526" type="line"/>
      <point x="1483" y="843" type="line"/>
      <point x="1426" y="1053"/>
      <point x="1213" y="1169"/>
    </contour>
    <contour>
      <point x="1924" y="986" type="curve" smooth="yes"/>
      <point x="2183" y="986"/>
      <point x="2310" y="845"/>
      <point x="2310" y="563" type="curve" smooth="yes"/>
      <point x="2310" y="546" type="line" smooth="yes"/>
      <point x="2310" y="333"/>
      <point x="2233" y="153"/>
      <point x="2097" y="0" type="curve"/>
      <point x="2321" y="0" type="line"/>
      <point x="2450.73" y="133"/>
      <point x="2519" y="321"/>
      <point x="2519" y="546" type="curve" smooth="yes"/>
      <point x="2519" y="563" type="line" smooth="yes"/>
      <point x="2519" y="965"/>
      <point x="2326" y="1169"/>
      <point x="1946" y="1169" type="curve" smooth="yes"/>
      <point x="1669" y="1169"/>
      <point x="1522" y="1042"/>
      <point x="1487" y="843" type="curve"/>
      <point x="1447" y="843" type="line"/>
      <point x="1447" y="445" type="line"/>
      <point x="1589" y="439" type="line"/>
      <point x="1589" y="627" type="line" smooth="yes"/>
      <point x="1589" y="867"/>
      <point x="1700" y="986"/>
    </contour>
  </outline>
</glyph>
<glyph name="Pa.mlm" format="2">
  <advance width="2193"/>
  <unicode hex="0D2A"/>
  <outline>
    <contour>
      <point x="640" y="763" type="curve" smooth="yes"/>
      <point x="299" y="763"/>
      <point x="125" y="608.292"/>
      <point x="125" y="310" type="curve" smooth="yes"/>
      <point x="125" y="297" type="line" smooth="yes"/>
      <point x="125" y="178.003"/>
      <point x="163" y="70.8079"/>
      <point x="228" y="0" type="curve"/>
      <point x="441" y="0" type="line"/>
      <point x="376" y="83.588"/>
      <point x="331" y="183.894"/>
      <point x="331" y="296" type="curve" smooth="yes"/>
      <point x="331" y="306" type="line" smooth="yes"/>
      <point x="331" y="490.964"/>
      <point x="433" y="586"/>
      <point x="640" y="586" type="curve" smooth="yes"/>
      <point x="847" y="586"/>
      <point x="949" y="490.964"/>
      <point x="949" y="306" type="curve" smooth="yes"/>
      <point x="949" y="296" type="line" smooth="yes"/>
      <point x="949" y="191.834"/>
      <point x="904" y="93.564"/>
      <point x="836" y="12" type="curve"/>
      <point x="836" y="0" type="line"/>
      <point x="988" y="0" type="line"/>
      <point x="1101.87" y="84.6345"/>
      <point x="1157" y="187.752"/>
      <point x="1157" y="322" type="curve" smooth="yes"/>
      <point x="1157" y="330" type="line" smooth="yes"/>
      <point x="1157" y="617.986"/>
      <point x="983" y="763"/>
    </contour>
    <contour>
      <point x="1804" y="1130" type="line"/>
      <point x="1804" y="0" type="line"/>
      <point x="2009" y="0" type="line"/>
      <point x="2009" y="1130" type="line"/>
    </contour>
    <contour>
      <point x="1046" y="163" type="line"/>
      <point x="834" y="0" type="line"/>
      <point x="1974" y="0" type="line"/>
      <point x="1974" y="163" type="line"/>
    </contour>
  </outline>
</glyph>
<glyph name="Bha.mlm" format="2">
  <advance width="1713"/>
  <unicode hex="0D2D"/>
  <outline>
    <contour>
      <point x="1572" y="868" type="curve" smooth="yes"/>
      <point x="1572" y="1064"/>
      <point x="1364" y="1175"/>
      <point x="954" y="1175" type="curve" smooth="yes"/>
      <point x="407" y="1175"/>
      <point x="138" y="968"/>
      <point x="138" y="514" type="curve" smooth="yes"/>
      <point x="138" y="495" type="line" smooth="yes"/>
      <point x="138" y="303"/>
      <point x="182" y="125"/>
      <point x="258" y="0" type="curve"/>
      <point x="470" y="0" type="line"/>
      <point x="393" y="151"/>
      <point x="346" y="313"/>
      <point x="346" y="495" type="curve" smooth="yes"/>
      <point x="346" y="511" type="line" smooth="yes"/>
      <point x="346" y="856"/>
      <point x="534" y="1007"/>
      <point x="956" y="1007" type="curve" smooth="yes"/>
      <point x="1228" y="1007"/>
      <point x="1362" y="957"/>
      <point x="1362" y="875" type="curve" smooth="yes"/>
      <point x="1362" y="834"/>
      <point x="1330" y="818"/>
      <point x="1236" y="817" type="curve" smooth="yes"/>
      <point x="1033" y="814" type="line" smooth="yes"/>
      <point x="828" y="811"/>
      <point x="722" y="729"/>
      <point x="722" y="575" type="curve" smooth="yes"/>
      <point x="722" y="566" type="line" smooth="yes"/>
      <point x="722" y="411"/>
      <point x="828" y="330"/>
      <point x="1033" y="328" type="curve" smooth="yes"/>
      <point x="1221" y="326" type="line" smooth="yes"/>
      <point x="1354" y="325"/>
      <point x="1400" y="296"/>
      <point x="1400" y="236" type="curve" smooth="yes"/>
      <point x="1400" y="232" type="line" smooth="yes"/>
      <point x="1400" y="163"/>
      <point x="1302" y="132"/>
      <point x="1103" y="132" type="curve" smooth="yes"/>
      <point x="977" y="132"/>
      <point x="859" y="146"/>
      <point x="737" y="179" type="curve"/>
      <point x="760" y="17" type="line"/>
      <point x="873" y="-17"/>
      <point x="990" y="-30"/>
      <point x="1117" y="-30" type="curve" smooth="yes"/>
      <point x="1446" y="-30"/>
      <point x="1609" y="56"/>
      <point x="1609" y="232" type="curve" smooth="yes"/>
      <point x="1609" y="238" type="line" smooth="yes"/>
      <point x="1609" y="402"/>
      <point x="1507" y="471"/>
      <point x="1261" y="475" type="curve" smooth="yes"/>
      <point x="1074" y="478" type="line" smooth="yes"/>
      <point x="969" y="480"/>
      <point x="929" y="514"/>
      <point x="929" y="567" type="curve" smooth="yes"/>
      <point x="929" y="572" type="line" smooth="yes"/>
      <point x="929" y="626"/>
      <point x="967" y="663"/>
      <point x="1074" y="665" type="curve" smooth="yes"/>
      <point x="1276" y="668" type="line" smooth="yes"/>
      <point x="1482" y="671"/>
      <point x="1572" y="731"/>
    </contour>
  </outline>
</glyph>
<glyph name="Ya.mlm" format="2">
  <advance width="2522"/>
  <unicode hex="0D2F"/>
  <outline>
    <contour>
      <point x="1260" y="199" type="curve"/>
      <point x="1201" y="172" type="line"/>
      <point x="1116" y="145"/>
      <point x="1019" y="127"/>
      <point x="902" y="127" type="curve" smooth="yes"/>
      <point x="533" y="127"/>
      <point x="341" y="306"/>
      <point x="341" y="658" type="curve" smooth="yes"/>
      <point x="341" y="678" type="line" smooth="yes"/>
      <point x="341" y="884"/>
      <point x="427" y="994"/>
      <point x="591" y="994" type="curve" smooth="yes"/>
      <point x="734" y="994"/>
      <point x="794" y="915"/>
      <point x="822" y="747" type="curve" smooth="yes"/>
      <point x="837" y="656" type="line" smooth="yes"/>
      <point x="878" y="405"/>
      <point x="966" y="224"/>
      <point x="1165" y="129" type="curve" smooth="yes"/>
      <point x="1231" y="97" type="line"/>
      <point x="1334" y="11"/>
      <point x="1491" y="-43"/>
      <point x="1693" y="-43" type="curve" smooth="yes"/>
      <point x="2155" y="-43"/>
      <point x="2389" y="179"/>
      <point x="2389" y="611" type="curve" smooth="yes"/>
      <point x="2389" y="629" type="line" smooth="yes"/>
      <point x="2389" y="836"/>
      <point x="2321.74" y="1008"/>
      <point x="2206" y="1126" type="curve"/>
      <point x="1995" y="1126" type="line"/>
      <point x="2117" y="981"/>
      <point x="2181" y="827"/>
      <point x="2181" y="637" type="curve" smooth="yes"/>
      <point x="2181" y="618" type="line" smooth="yes"/>
      <point x="2181" y="293"/>
      <point x="2011" y="127"/>
      <point x="1664" y="127" type="curve" smooth="yes"/>
      <point x="1554" y="127"/>
      <point x="1464" y="146"/>
      <point x="1385" y="173" type="curve"/>
      <point x="1330" y="199" type="line"/>
      <point x="1162" y="273"/>
      <point x="1083" y="426"/>
      <point x="1046" y="646" type="curve" smooth="yes"/>
      <point x="1026" y="764" type="line"/>
      <point x="1021" y="800"/>
      <point x="1014" y="834"/>
      <point x="1006" y="865" type="curve"/>
      <point x="987" y="887" type="line"/>
      <point x="938" y="1082"/>
      <point x="818" y="1169"/>
      <point x="594" y="1169" type="curve" smooth="yes"/>
      <point x="293" y="1169"/>
      <point x="134" y="995"/>
      <point x="134" y="674" type="curve" smooth="yes"/>
      <point x="134" y="654" type="line" smooth="yes"/>
      <point x="134" y="195"/>
      <point x="394" y="-42"/>
      <point x="889" y="-42" type="curve" smooth="yes"/>
      <point x="1089" y="-42"/>
      <point x="1247" y="11"/>
      <point x="1352" y="97" type="curve"/>
      <point x="1424" y="128" type="line"/>
      <point x="1527" y="178"/>
      <point x="1608" y="249"/>
      <point x="1666" y="334" type="curve" smooth="yes"/>
      <point x="1738" y="440"/>
      <point x="1778" y="570"/>
      <point x="1778" y="724" type="curve" smooth="yes"/>
      <point x="1778" y="1016"/>
      <point x="1626" y="1167"/>
      <point x="1350" y="1167" type="curve" smooth="yes"/>
      <point x="1155" y="1167"/>
      <point x="1024" y="1079"/>
      <point x="981" y="929" type="curve"/>
      <point x="935" y="929" type="line"/>
      <point x="1014" y="820" type="line"/>
      <point x="1061" y="924"/>
      <point x="1158" y="992"/>
      <point x="1304" y="992" type="curve" smooth="yes"/>
      <point x="1474" y="992"/>
      <point x="1572" y="891"/>
      <point x="1572" y="704" type="curve" smooth="yes"/>
      <point x="1572" y="578"/>
      <point x="1540" y="468"/>
      <point x="1482" y="380" type="curve" smooth="yes"/>
      <point x="1429" y="300"/>
      <point x="1355" y="236"/>
    </contour>
  </outline>
</glyph>
<glyph name="Rra.mlm" format="2">
  <advance width="1650"/>
  <unicode hex="0D31"/>
  <outline>
    <contour>
      <point x="825" y="996" type="curve" smooth="yes"/>
      <point x="1142" y="996"/>
      <point x="1307" y="840"/>
      <point x="1307" y="538" type="curve" smooth="yes"/>
      <point x="1307" y="521" type="line" smooth="yes"/>
      <point x="1307" y="320"/>
      <point x="1231" y="145"/>
      <point x="1104" y="0" type="curve"/>
      <point x="1327" y="0" type="line"/>
      <point x="1450.73" y="127"/>
      <point x="1516" y="310"/>
      <point x="1516" y="527" type="curve" smooth="yes"/>
      <point x="1516" y="543" type="line" smooth="yes"/>
      <point x="1516" y="960"/>
      <point x="1279" y="1175"/>
      <point x="825" y="1175" type="curve" smooth="yes"/>
      <point x="371" y="1175"/>
      <point x="134" y="960"/>
      <point x="134" y="543" type="curve" smooth="yes"/>
      <point x="134" y="527" type="line" smooth="yes"/>
      <point x="134" y="310"/>
      <point x="199.267" y="127"/>
      <point x="323" y="0" type="curve"/>
      <point x="547" y="0" type="line"/>
      <point x="418" y="145"/>
      <point x="343" y="320"/>
      <point x="343" y="521" type="curve" smooth="yes"/>
      <point x="343" y="538" type="line" smooth="yes"/>
      <point x="343" y="840"/>
      <point x="508" y="996"/>
    </contour>
  </outline>
</glyph>
<glyph name="La.mlm" format="2">
  <advance width="2116"/>
  <unicode hex="0D32"/>
  <outline>
    <contour>
      <point x="1116" y="595" type="line"/>
      <point x="372" y="595" type="line"/>
      <point x="372" y="655" type="line" smooth="yes"/>
      <point x="372" y="885"/>
      <point x="499" y="1002"/>
      <point x="745" y="1002" type="curve" smooth="yes"/>
      <point x="991" y="1002"/>
      <point x="1116" y="885"/>
      <point x="1116" y="655" type="curve" smooth="yes"/>
    </contour>
    <contour>
      <point x="168" y="0" type="line"/>
      <point x="1932" y="0" type="line"/>
      <point x="1932" y="1130" type="line"/>
      <point x="1727" y="1130" type="line"/>
      <point x="1727" y="160" type="line"/>
      <point x="372" y="160" type="line"/>
      <point x="372" y="436" type="line"/>
      <point x="1319" y="436" type="line"/>
      <point x="1319" y="652" type="line" smooth="yes"/>
      <point x="1319" y="996"/>
      <point x="1124" y="1171"/>
      <point x="745" y="1171" type="curve" smooth="yes"/>
      <point x="366" y="1171"/>
      <point x="168" y="996"/>
      <point x="168" y="652" type="curve" smooth="yes"/>
    </contour>
  </outline>
</glyph>
<glyph name="Lla.mlm" format="2">
  <advance width="1812"/>
  <unicode hex="0D33"/>
  <outline>
    <contour>
      <point x="482" y="-415" type="curve" smooth="yes"/>
      <point x="1643" y="-415" type="line"/>
      <point x="1673" y="-254" type="line"/>
      <point x="498" y="-254" type="line" smooth="yes"/>
      <point x="393" y="-254"/>
      <point x="337" y="-213.631"/>
      <point x="337" y="-126" type="curve" smooth="yes"/>
      <point x="337" y="-41.3333"/>
      <point x="393" y="1"/>
      <point x="498" y="1" type="curve" smooth="yes"/>
      <point x="1249" y="1" type="line" smooth="yes"/>
      <point x="1548" y="1"/>
      <point x="1688" y="102.699"/>
      <point x="1688" y="292" type="curve" smooth="yes"/>
      <point x="1688" y="301" type="line" smooth="yes"/>
      <point x="1688" y="451"/>
      <point x="1589" y="547"/>
      <point x="1392" y="570" type="curve"/>
      <point x="1392" y="576" type="line"/>
      <point x="1573" y="598"/>
      <point x="1666" y="680"/>
      <point x="1666" y="821" type="curve" smooth="yes"/>
      <point x="1666" y="828" type="line" smooth="yes"/>
      <point x="1666" y="1061"/>
      <point x="1439" y="1175"/>
      <point x="965" y="1175" type="curve" smooth="yes"/>
      <point x="408" y="1175"/>
      <point x="131" y="994"/>
      <point x="131" y="650" type="curve" smooth="yes"/>
      <point x="131" y="634" type="line" smooth="yes"/>
      <point x="131" y="382"/>
      <point x="271" y="247"/>
      <point x="560" y="247" type="curve" smooth="yes"/>
      <point x="839" y="247"/>
      <point x="969" y="359"/>
      <point x="969" y="556" type="curve" smooth="yes"/>
      <point x="969" y="565" type="line" smooth="yes"/>
      <point x="969" y="746"/>
      <point x="854" y="854"/>
      <point x="638" y="854" type="curve" smooth="yes"/>
      <point x="460.098" y="854"/>
      <point x="344.81" y="773"/>
      <point x="314" y="646" type="curve"/>
      <point x="326" y="585" type="line"/>
      <point x="364.676" y="656.39"/>
      <point x="447.979" y="702"/>
      <point x="565" y="702" type="curve" smooth="yes"/>
      <point x="695.81" y="702"/>
      <point x="770" y="649.366"/>
      <point x="770" y="558" type="curve" smooth="yes"/>
      <point x="770" y="551" type="line" smooth="yes"/>
      <point x="770" y="452.643"/>
      <point x="694.816" y="398"/>
      <point x="563" y="398" type="curve" smooth="yes"/>
      <point x="408.316" y="398"/>
      <point x="328" y="469.647"/>
      <point x="328" y="601" type="curve" smooth="yes"/>
      <point x="328" y="620" type="line"/>
      <point x="333" y="678" type="line"/>
      <point x="317" y="678" type="line"/>
      <point x="317" y="678" type="line"/>
      <point x="317" y="889"/>
      <point x="533.321" y="1007"/>
      <point x="954" y="1007" type="curve" smooth="yes"/>
      <point x="1292" y="1007"/>
      <point x="1457" y="941"/>
      <point x="1457" y="808" type="curve" smooth="yes"/>
      <point x="1457" y="803" type="line" smooth="yes"/>
      <point x="1457" y="708"/>
      <point x="1384" y="663"/>
      <point x="1232" y="658" type="curve" smooth="yes"/>
      <point x="1118" y="654" type="line"/>
      <point x="1118" y="491" type="line"/>
      <point x="1231" y="487" type="line" smooth="yes"/>
      <point x="1400" y="481"/>
      <point x="1479" y="431"/>
      <point x="1479" y="321" type="curve" smooth="yes"/>
      <point x="1479" y="313" type="line" smooth="yes"/>
      <point x="1479" y="216"/>
      <point x="1397" y="160"/>
      <point x="1220" y="160" type="curve" smooth="yes"/>
      <point x="482" y="160" type="line" smooth="yes"/>
      <point x="249" y="160"/>
      <point x="131" y="61"/>
      <point x="131" y="-126" type="curve" smooth="yes"/>
      <point x="131" y="-317"/>
      <point x="249" y="-415"/>
    </contour>
  </outline>
</glyph>
<glyph name="Zha.mlm" format="2">
  <advance width="1721"/>
  <unicode hex="0D34"/>
  <outline>
    <contour>
      <point x="919" y="787" type="curve" smooth="yes"/>
      <point x="919" y="795" type="line" smooth="yes"/>
      <point x="919" y="927"/>
      <point x="1004" y="1002"/>
      <point x="1165" y="1002" type="curve" smooth="yes"/>
      <point x="1330" y="1002"/>
      <point x="1415" y="924"/>
      <point x="1415" y="795" type="curve" smooth="yes"/>
      <point x="1415" y="784" type="line" smooth="yes"/>
      <point x="1415" y="598"/>
      <point x="1242" y="495"/>
      <point x="879" y="495" type="curve" smooth="yes"/>
      <point x="495" y="495"/>
      <point x="313" y="605"/>
      <point x="313" y="832" type="curve" smooth="yes"/>
      <point x="313" y="845" type="line" smooth="yes"/>
      <point x="313" y="947"/>
      <point x="342" y="1038"/>
      <point x="391" y="1118" type="curve"/>
      <point x="182" y="1118" type="line"/>
      <point x="135" y="1046"/>
      <point x="106" y="951"/>
      <point x="106" y="842" type="curve" smooth="yes"/>
      <point x="106" y="826" type="line" smooth="yes"/>
      <point x="106" y="496"/>
      <point x="368" y="330"/>
      <point x="879" y="330" type="curve" smooth="yes"/>
      <point x="1370" y="330"/>
      <point x="1622" y="491"/>
      <point x="1622" y="785" type="curve" smooth="yes"/>
      <point x="1622" y="797" type="line" smooth="yes"/>
      <point x="1622" y="1042"/>
      <point x="1465" y="1171"/>
      <point x="1165" y="1171" type="curve" smooth="yes"/>
      <point x="871" y="1171"/>
      <point x="714" y="1044"/>
      <point x="714" y="805" type="curve" smooth="yes"/>
      <point x="714" y="797" type="line" smooth="yes"/>
      <point x="714" y="658"/>
      <point x="796" y="545"/>
      <point x="894" y="455" type="curve"/>
      <point x="935" y="367" type="line"/>
      <point x="966" y="321"/>
      <point x="984" y="280"/>
      <point x="984" y="228" type="curve" smooth="yes"/>
      <point x="984" y="140"/>
      <point x="910" y="95"/>
      <point x="755" y="95" type="curve" smooth="yes"/>
      <point x="650" y="95"/>
      <point x="550" y="108"/>
      <point x="447" y="145" type="curve"/>
      <point x="475" y="-23" type="line"/>
      <point x="571" y="-59"/>
      <point x="677" y="-73"/>
      <point x="785" y="-73" type="curve" smooth="yes"/>
      <point x="1056" y="-73"/>
      <point x="1189" y="18"/>
      <point x="1189" y="198" type="curve" smooth="yes"/>
      <point x="1189" y="264"/>
      <point x="1169" y="322"/>
      <point x="1130" y="384" type="curve"/>
      <point x="1088" y="458" type="line"/>
      <point x="989" y="569"/>
      <point x="919" y="672"/>
    </contour>
  </outline>
</glyph>
<glyph name="Sha.mlm" format="2">
  <advance width="2506"/>
  <unicode hex="0D36"/>
  <outline>
    <contour>
      <point x="1658" y="1001" type="curve" smooth="yes"/>
      <point x="1999.82" y="1001"/>
      <point x="2164.19" y="821"/>
      <point x="2177.82" y="572" type="curve"/>
      <point x="2177.82" y="572" type="line"/>
      <point x="2161.82" y="572" type="line"/>
      <point x="2176.82" y="513" type="line"/>
      <point x="2176.82" y="485" type="line" smooth="yes"/>
      <point x="2176.82" y="247"/>
      <point x="2089.44" y="129"/>
      <point x="1895.82" y="129" type="curve" smooth="yes"/>
      <point x="1735.18" y="129"/>
      <point x="1637.82" y="212.405"/>
      <point x="1637.82" y="354" type="curve" smooth="yes"/>
      <point x="1637.82" y="364" type="line" smooth="yes"/>
      <point x="1637.82" y="506.905"/>
      <point x="1727.09" y="589"/>
      <point x="1895.82" y="589" type="curve" smooth="yes"/>
      <point x="2018.1" y="589"/>
      <point x="2109.81" y="550.563"/>
      <point x="2179.82" y="482" type="curve"/>
      <point x="2180.82" y="551" type="line"/>
      <point x="2136.34" y="667.327"/>
      <point x="2008.84" y="751"/>
      <point x="1840.82" y="751" type="curve" smooth="yes"/>
      <point x="1587.93" y="751"/>
      <point x="1433.82" y="617.855"/>
      <point x="1433.82" y="370" type="curve" smooth="yes"/>
      <point x="1433.82" y="358" type="line" smooth="yes"/>
      <point x="1433.82" y="103.233"/>
      <point x="1600.98" y="-36"/>
      <point x="1888.82" y="-36" type="curve" smooth="yes"/>
      <point x="2216.14" y="-36"/>
      <point x="2376.82" y="150"/>
      <point x="2376.82" y="491" type="curve" smooth="yes"/>
      <point x="2376.82" y="510" type="line" smooth="yes"/>
      <point x="2376.82" y="928"/>
      <point x="2138.08" y="1175"/>
      <point x="1657.82" y="1175" type="curve" smooth="yes"/>
      <point x="1171.82" y="1175"/>
      <point x="930" y="964"/>
      <point x="930" y="554" type="curve" smooth="yes"/>
      <point x="930" y="507"/>
      <point x="930" y="480"/>
      <point x="930" y="433" type="curve" smooth="yes"/>
      <point x="930" y="241"/>
      <point x="837" y="143"/>
      <point x="656" y="143" type="curve" smooth="yes"/>
      <point x="450" y="143"/>
      <point x="343" y="269"/>
      <point x="343" y="523" type="curve" smooth="yes"/>
      <point x="343" y="545" type="line" smooth="yes"/>
      <point x="343" y="774"/>
      <point x="426" y="963"/>
      <point x="578" y="1126" type="curve"/>
      <point x="361" y="1126" type="line"/>
      <point x="214.293" y="990"/>
      <point x="134" y="780"/>
      <point x="134" y="540" type="curve" smooth="yes"/>
      <point x="134" y="519" type="line" smooth="yes"/>
      <point x="134" y="151"/>
      <point x="312" y="-36"/>
      <point x="656" y="-36" type="curve" smooth="yes"/>
      <point x="972" y="-36"/>
      <point x="1135" y="116"/>
      <point x="1135" y="409" type="curve" smooth="yes"/>
      <point x="1135" y="458"/>
      <point x="1135" y="487"/>
      <point x="1135" y="535" type="curve" smooth="yes"/>
      <point x="1135" y="845"/>
      <point x="1307" y="1001"/>
    </contour>
  </outline>
</glyph>
<glyph name="Ssa.mlm" format="2">
  <advance width="2932"/>
  <unicode hex="0D37"/>
  <outline>
    <contour>
      <point x="640" y="763" type="curve" smooth="yes"/>
      <point x="299" y="763"/>
      <point x="125" y="608.292"/>
      <point x="125" y="310" type="curve" smooth="yes"/>
      <point x="125" y="297" type="line" smooth="yes"/>
      <point x="125" y="178.003"/>
      <point x="163" y="70.8079"/>
      <point x="228" y="0" type="curve"/>
      <point x="441" y="0" type="line"/>
      <point x="376" y="83.588"/>
      <point x="331" y="183.894"/>
      <point x="331" y="296" type="curve" smooth="yes"/>
      <point x="331" y="306" type="line" smooth="yes"/>
      <point x="331" y="490.964"/>
      <point x="433" y="586"/>
      <point x="640" y="586" type="curve" smooth="yes"/>
      <point x="847" y="586"/>
      <point x="949" y="490.964"/>
      <point x="949" y="306" type="curve" smooth="yes"/>
      <point x="949" y="296" type="line" smooth="yes"/>
      <point x="949" y="191.834"/>
      <point x="904" y="93.564"/>
      <point x="836" y="12" type="curve"/>
      <point x="836" y="0" type="line"/>
      <point x="988" y="0" type="line"/>
      <point x="1101.87" y="84.6345"/>
      <point x="1157" y="187.752"/>
      <point x="1157" y="322" type="curve" smooth="yes"/>
      <point x="1157" y="330" type="line" smooth="yes"/>
      <point x="1157" y="617.986"/>
      <point x="983" y="763"/>
    </contour>
    <contour>
      <point x="931" y="0" type="line"/>
      <point x="2748" y="0" type="line"/>
      <point x="2748" y="1130" type="line"/>
      <point x="2543" y="1130" type="line"/>
      <point x="2543" y="151" type="line"/>
      <point x="1062" y="151" type="line"/>
    </contour>
    <contour>
      <point x="1986" y="798" type="line" smooth="yes"/>
      <point x="1986" y="717"/>
      <point x="1954" y="635"/>
      <point x="1898" y="532" type="curve"/>
      <point x="1892" y="518"/>
      <point x="1864" y="467"/>
      <point x="1858" y="453" type="curve"/>
      <point x="1661" y="108" type="line"/>
      <point x="1873" y="104" type="line"/>
      <point x="2072" y="458" type="line"/>
      <point x="2077" y="470"/>
      <point x="2091" y="513"/>
      <point x="2095" y="525" type="curve"/>
      <point x="2152" y="626"/>
      <point x="2192" y="719"/>
      <point x="2192" y="816" type="curve" smooth="yes"/>
      <point x="2192" y="823" type="line" smooth="yes"/>
      <point x="2192" y="1049"/>
      <point x="2033" y="1169"/>
      <point x="1726" y="1169" type="curve" smooth="yes"/>
      <point x="1425" y="1169"/>
      <point x="1266" y="1039"/>
      <point x="1266" y="795" type="curve" smooth="yes"/>
      <point x="1266" y="790" type="line" smooth="yes"/>
      <point x="1266" y="550"/>
      <point x="1466" y="428"/>
      <point x="1845" y="428" type="curve" smooth="yes"/>
      <point x="1879" y="428" type="line" smooth="yes"/>
      <point x="1917" y="428"/>
      <point x="1955" y="428"/>
      <point x="1994" y="430" type="curve" smooth="yes"/>
      <point x="2198" y="440"/>
      <point x="2385" y="484"/>
      <point x="2563" y="565" type="curve"/>
      <point x="2554" y="732" type="line"/>
      <point x="2414" y="659"/>
      <point x="2235" y="610"/>
      <point x="2061" y="594" type="curve"/>
      <point x="2009" y="588"/>
      <point x="1955" y="587"/>
      <point x="1906" y="587" type="curve" smooth="yes"/>
      <point x="1844" y="587" type="line" smooth="yes"/>
      <point x="1599" y="587"/>
      <point x="1471" y="653"/>
      <point x="1471" y="792" type="curve" smooth="yes"/>
      <point x="1471" y="797" type="line" smooth="yes"/>
      <point x="1471" y="933"/>
      <point x="1558" y="1002"/>
      <point x="1726" y="1002" type="curve" smooth="yes"/>
      <point x="1899" y="1002"/>
      <point x="1986" y="933"/>
      <point x="1986" y="805" type="curve" smooth="yes"/>
    </contour>
  </outline>
</glyph>
<glyph name="Ha.mlm" format="2">
  <advance width="2949"/>
  <unicode hex="0D39"/>
  <outline>
    <contour>
      <point x="640" y="763" type="curve" smooth="yes"/>
      <point x="299" y="763"/>
      <point x="125" y="608.292"/>
      <point x="125" y="310" type="curve" smooth="yes"/>
      <point x="125" y="297" type="line" smooth="yes"/>
      <point x="125" y="178.003"/>
      <point x="163" y="70.8079"/>
      <point x="228" y="0" type="curve"/>
      <point x="441" y="0" type="line"/>
      <point x="376" y="83.588"/>
      <point x="331" y="183.894"/>
      <point x="331" y="296" type="curve" smooth="yes"/>
      <point x="331" y="306" type="line" smooth="yes"/>
      <point x="331" y="490.964"/>
      <point x="433" y="586"/>
      <point x="640" y="586" type="curve" smooth="yes"/>
      <point x="847" y="586"/>
      <point x="949" y="490.964"/>
      <point x="949" y="306" type="curve" smooth="yes"/>
      <point x="949" y="296" type="line" smooth="yes"/>
      <point x="949" y="191.834"/>
      <point x="904" y="93.564"/>
      <point x="836" y="12" type="curve"/>
      <point x="836" y="0" type="line"/>
      <point x="988" y="0" type="line"/>
      <point x="1101.87" y="84.6345"/>
      <point x="1157" y="187.752"/>
      <point x="1157" y="322" type="curve" smooth="yes"/>
      <point x="1157" y="330" type="line" smooth="yes"/>
      <point x="1157" y="617.986"/>
      <point x="983" y="763"/>
    </contour>
    <contour>
      <point x="1053" y="160" type="line"/>
      <point x="842" y="0" type="line"/>
      <point x="1911" y="0" type="line"/>
      <point x="1704" y="160" type="line"/>
    </contour>
    <contour>
      <point x="2159" y="996" type="curve" smooth="yes"/>
      <point x="2453" y="996"/>
      <point x="2606" y="841"/>
      <point x="2606" y="538" type="curve" smooth="yes"/>
      <point x="2606" y="521" type="line" smooth="yes"/>
      <point x="2606" y="320"/>
      <point x="2531" y="145"/>
      <point x="2406" y="0" type="curve"/>
      <point x="2626" y="0" type="line"/>
      <point x="2749" y="127"/>
      <point x="2815" y="310"/>
      <point x="2815" y="527" type="curve" smooth="yes"/>
      <point x="2815" y="543" type="line" smooth="yes"/>
      <point x="2815" y="961"/>
      <point x="2590" y="1175"/>
      <point x="2160" y="1175" type="curve" smooth="yes"/>
      <point x="1727" y="1175"/>
      <point x="1505" y="953.563"/>
      <point x="1505" y="539" type="curve" smooth="yes"/>
      <point x="1505" y="523" type="line" smooth="yes"/>
      <point x="1505" y="296.974"/>
      <point x="1582.93" y="128.243"/>
      <point x="1724" y="0" type="curve"/>
      <point x="1911" y="0" type="line"/>
      <point x="1911" y="12" type="line"/>
      <point x="1787" y="155"/>
      <point x="1713" y="325"/>
      <point x="1713" y="521" type="curve" smooth="yes"/>
      <point x="1713" y="538" type="line" smooth="yes"/>
      <point x="1713" y="841"/>
      <point x="1866" y="996"/>
    </contour>
  </outline>
</glyph>
<glyph name="Ttta.mlm" format="2">
  <advance width="1875"/>
  <unicode hex="0D3A"/>
  <outline>
    <contour>
      <point x="184" y="1130" type="line"/>
      <point x="184" y="0" type="line"/>
      <point x="389" y="0" type="line"/>
      <point x="389" y="1130" type="line"/>
    </contour>
    <contour>
      <point x="1826" y="163" type="line"/>
      <point x="346" y="163" type="line"/>
      <point x="346" y="0" type="line"/>
      <point x="1795" y="0" type="line"/>
    </contour>
    <contour>
      <point x="1113" y="98" type="line"/>
      <point x="922" y="98" type="line"/>
      <point x="922" y="-388" type="line"/>
      <point x="1113" y="-388" type="line"/>
    </contour>
  </outline>
</glyph>
<glyph name="circularviramasign.mlm" format="2">
  <unicode hex="0D3C"/>
  <outline>
    <contour>
      <point x="-379" y="1445" type="line" smooth="yes"/>
      <point x="-379" y="1255"/>
      <point x="-251" y="1150"/>
      <point x="-14" y="1150" type="curve" smooth="yes"/>
      <point x="223" y="1150"/>
      <point x="352" y="1255"/>
      <point x="352" y="1445" type="curve" smooth="yes"/>
      <point x="352" y="1450" type="line" smooth="yes"/>
      <point x="352" y="1640"/>
      <point x="223" y="1745"/>
      <point x="-14" y="1745" type="curve" smooth="yes"/>
      <point x="-251" y="1745"/>
      <point x="-379" y="1640"/>
      <point x="-379" y="1450" type="curve" smooth="yes"/>
    </contour>
    <contour>
      <point x="171" y="1444" type="line" smooth="yes"/>
      <point x="171" y="1351"/>
      <point x="106" y="1298"/>
      <point x="-14" y="1298" type="curve" smooth="yes"/>
      <point x="-134" y="1298"/>
      <point x="-198" y="1351"/>
      <point x="-198" y="1444" type="curve" smooth="yes"/>
      <point x="-198" y="1451" type="line" smooth="yes"/>
      <point x="-198" y="1545"/>
      <point x="-134" y="1598"/>
      <point x="-14" y="1598" type="curve" smooth="yes"/>
      <point x="106" y="1598"/>
      <point x="171" y="1545"/>
      <point x="171" y="1451" type="curve" smooth="yes"/>
    </contour>
  </outline>
</glyph>
<glyph name="Praslesham.mlm" format="2">
  <advance width="863"/>
  <unicode hex="0D3D"/>
  <outline>
    <contour>
      <point x="498" y="-52" type="curve" smooth="yes"/>
      <point x="575" y="1102" type="line" smooth="yes"/>
      <point x="589" y="1305"/>
      <point x="654" y="1394"/>
      <point x="825" y="1394" type="curve" smooth="yes"/>
      <point x="899" y="1394"/>
      <point x="979" y="1375"/>
      <point x="1040" y="1350" type="curve"/>
      <point x="1007" y="1527" type="line"/>
      <point x="949" y="1550"/>
      <point x="863" y="1568"/>
      <point x="776" y="1568" type="curve" smooth="yes"/>
      <point x="500" y="1568"/>
      <point x="392" y="1409"/>
      <point x="372" y="1105" type="curve" smooth="yes"/>
      <point x="294" y="-49" type="line" smooth="yes"/>
      <point x="279" y="-260"/>
      <point x="208" y="-354"/>
      <point x="25" y="-354" type="curve" smooth="yes"/>
      <point x="-60" y="-354"/>
      <point x="-152" y="-333"/>
      <point x="-225" y="-306" type="curve"/>
      <point x="-191" y="-482" type="line"/>
      <point x="-123" y="-508"/>
      <point x="-28" y="-527"/>
      <point x="73" y="-527" type="curve" smooth="yes"/>
      <point x="360" y="-527"/>
      <point x="476" y="-364"/>
    </contour>
  </outline>
</glyph>
<glyph name="matraUu.mlm" format="2">
  <advance width="1097"/>
  <unicode hex="0D42"/>
  <outline>
    <contour>
      <point x="518" y="33" type="curve" smooth="yes"/>
      <point x="394" y="33"/>
      <point x="306" y="76"/>
      <point x="274" y="144" type="curve"/>
      <point x="208" y="125" type="line"/>
      <point x="210" y="51" type="line"/>
      <point x="255" y="-57"/>
      <point x="367" y="-116"/>
      <point x="518" y="-116" type="curve" smooth="yes"/>
      <point x="669" y="-116"/>
      <point x="777" y="-57"/>
      <point x="825" y="51" type="curve"/>
      <point x="824" y="125" type="line"/>
      <point x="761" y="144" type="line"/>
      <point x="729" y="76"/>
      <point x="642" y="33"/>
    </contour>
    <contour>
      <point x="518" y="-266" type="curve" smooth="yes"/>
      <point x="333" y="-266"/>
      <point x="229" y="-178"/>
      <point x="229" y="-28" type="curve" smooth="yes"/>
      <point x="229" y="-19" type="line" smooth="yes"/>
      <point x="229" y="126"/>
      <point x="333" y="214"/>
      <point x="518" y="214" type="curve" smooth="yes"/>
      <point x="703" y="214"/>
      <point x="805" y="126"/>
      <point x="805" y="-19" type="curve" smooth="yes"/>
      <point x="805" y="-28" type="line" smooth="yes"/>
      <point x="805" y="-178"/>
      <point x="703" y="-266"/>
    </contour>
    <contour>
      <point x="518" y="358" type="curve" smooth="yes"/>
      <point x="220" y="358"/>
      <point x="57" y="223"/>
      <point x="57" y="-18" type="curve" smooth="yes"/>
      <point x="57" y="-27" type="line" smooth="yes"/>
      <point x="57" y="-284"/>
      <point x="220" y="-416"/>
      <point x="518" y="-416" type="curve" smooth="yes"/>
      <point x="817" y="-416"/>
      <point x="979" y="-287"/>
      <point x="979" y="-36" type="curve" smooth="yes"/>
      <point x="979" y="-27" type="line" smooth="yes"/>
      <point x="979" y="210"/>
      <point x="830" y="342"/>
      <point x="553" y="355" type="curve"/>
      <point x="542" y="355"/>
      <point x="531" y="358"/>
    </contour>
    <contour>
      <point x="955" y="744" type="curve" smooth="yes"/>
      <point x="955" y="755" type="line" smooth="yes"/>
      <point x="955" y="1026"/>
      <point x="800" y="1172"/>
      <point x="511" y="1172" type="curve" smooth="yes"/>
      <point x="363" y="1172"/>
      <point x="240" y="1130"/>
      <point x="151" y="1069" type="curve"/>
      <point x="131" y="880" type="line"/>
      <point x="226" y="948"/>
      <point x="340" y="993"/>
      <point x="483" y="993" type="curve" smooth="yes"/>
      <point x="657" y="993"/>
      <point x="747" y="898"/>
      <point x="747" y="735" type="curve" smooth="yes"/>
      <point x="747" y="724" type="line" smooth="yes"/>
      <point x="747" y="552"/>
      <point x="630" y="408"/>
      <point x="442" y="341" type="curve"/>
      <point x="581" y="269" type="line"/>
      <point x="822" y="347"/>
      <point x="955" y="512"/>
    </contour>
  </outline>
</glyph>
<glyph name="matraRu.mlm" format="2">
  <advance width="715"/>
  <unicode hex="0D43"/>
  <outline>
    <contour>
      <point x="241" y="-583" type="curve" smooth="yes"/>
      <point x="512" y="-583"/>
      <point x="659" y="-449"/>
      <point x="659" y="-196" type="curve" smooth="yes"/>
      <point x="659" y="-181" type="line" smooth="yes"/>
      <point x="659" y="139"/>
      <point x="430" y="372"/>
      <point x="430" y="731" type="curve" smooth="yes"/>
      <point x="430" y="889"/>
      <point x="448" y="987"/>
      <point x="487" y="1130" type="curve"/>
      <point x="292" y="1130" type="line"/>
      <point x="246.613" y="993"/>
      <point x="226" y="889"/>
      <point x="226" y="731" type="curve" smooth="yes"/>
      <point x="226" y="354"/>
      <point x="430" y="142"/>
      <point x="457" y="-130" type="curve"/>
      <point x="456" y="-151" type="line"/>
      <point x="458" y="-172"/>
      <point x="459" y="-191"/>
      <point x="459" y="-212" type="curve" smooth="yes"/>
      <point x="459" y="-223" type="line" smooth="yes"/>
      <point x="459" y="-353"/>
      <point x="379" y="-426"/>
      <point x="237" y="-426" type="curve" smooth="yes"/>
      <point x="106" y="-426"/>
      <point x="32" y="-367"/>
      <point x="32" y="-266" type="curve" smooth="yes"/>
      <point x="32" y="-257" type="line" smooth="yes"/>
      <point x="32" y="-160"/>
      <point x="105" y="-105"/>
      <point x="232" y="-105" type="curve" smooth="yes"/>
      <point x="331" y="-105"/>
      <point x="413" y="-141"/>
      <point x="463" y="-203" type="curve"/>
      <point x="475" y="-110" type="line"/>
      <point x="449" y="-110" type="line"/>
      <point x="402" y="-6"/>
      <point x="313" y="45"/>
      <point x="172" y="45" type="curve" smooth="yes"/>
      <point x="-46" y="45"/>
      <point x="-165" y="-62"/>
      <point x="-165" y="-251" type="curve" smooth="yes"/>
      <point x="-165" y="-260" type="line" smooth="yes"/>
      <point x="-165" y="-471"/>
      <point x="-21" y="-583"/>
    </contour>
  </outline>
</glyph>
<glyph name="matraRru.mlm" format="2">
  <advance width="706"/>
  <unicode hex="0D44"/>
  <outline>
    <contour>
      <point x="579" y="-117" type="line"/>
      <point x="559" y="-36"/>
      <point x="512" y="28"/>
      <point x="418" y="28" type="curve" smooth="yes"/>
      <point x="318" y="28"/>
      <point x="264" y="-27"/>
      <point x="250" y="-113" type="curve"/>
      <point x="245" y="-113" type="line"/>
      <point x="229" y="-26"/>
      <point x="154" y="30"/>
      <point x="23" y="30" type="curve" smooth="yes"/>
      <point x="-159" y="30"/>
      <point x="-256" y="-66"/>
      <point x="-256" y="-232" type="curve" smooth="yes"/>
      <point x="-256" y="-239" type="line" smooth="yes"/>
      <point x="-256" y="-463"/>
      <point x="-82" y="-583"/>
      <point x="241" y="-583" type="curve" smooth="yes"/>
      <point x="575" y="-583"/>
      <point x="752" y="-441"/>
      <point x="752" y="-179" type="curve" smooth="yes"/>
      <point x="752" y="-165" type="line" smooth="yes"/>
      <point x="752" y="199"/>
      <point x="386" y="372"/>
      <point x="386" y="758" type="curve" smooth="yes"/>
      <point x="386" y="906"/>
      <point x="404.34" y="999"/>
      <point x="440" y="1130" type="curve"/>
      <point x="247" y="1130" type="line"/>
      <point x="202.153" y="1001"/>
      <point x="183" y="906"/>
      <point x="183" y="758" type="curve" smooth="yes"/>
      <point x="183" y="376"/>
      <point x="444.529" y="186"/>
      <point x="539" y="-15" type="curve"/>
      <point x="530" y="-20" type="line"/>
      <point x="560" y="-91" type="line"/>
      <point x="565" y="-121"/>
      <point x="566" y="-146"/>
      <point x="566" y="-175" type="curve" smooth="yes"/>
      <point x="566" y="-187" type="line" smooth="yes"/>
      <point x="566" y="-351"/>
      <point x="446" y="-434"/>
      <point x="228" y="-434" type="curve" smooth="yes"/>
      <point x="20" y="-434"/>
      <point x="-81" y="-366"/>
      <point x="-81" y="-246" type="curve" smooth="yes"/>
      <point x="-81" y="-239" type="line" smooth="yes"/>
      <point x="-81" y="-159"/>
      <point x="-38" y="-115"/>
      <point x="42" y="-115" type="curve" smooth="yes"/>
      <point x="123" y="-115"/>
      <point x="161" y="-158"/>
      <point x="164" y="-234" type="curve" smooth="yes"/>
      <point x="166" y="-284" type="line"/>
      <point x="334" y="-284" type="line"/>
      <point x="336" y="-233" type="line" smooth="yes"/>
      <point x="339" y="-157"/>
      <point x="376" y="-113"/>
      <point x="456" y="-113" type="curve" smooth="yes"/>
      <point x="513" y="-113"/>
      <point x="548" y="-131"/>
      <point x="568" y="-164" type="curve"/>
    </contour>
  </outline>
</glyph>
<glyph name="matrashortE.mlm" format="2">
  <advance width="1826"/>
  <unicode hex="0D46"/>
  <outline>
    <contour>
      <point x="906" y="1001" type="curve" smooth="yes"/>
      <point x="1288" y="1001"/>
      <point x="1483" y="832"/>
      <point x="1483" y="495" type="curve" smooth="yes"/>
      <point x="1483" y="479" type="line" smooth="yes"/>
      <point x="1483" y="302"/>
      <point x="1428" y="147"/>
      <point x="1325" y="0" type="curve"/>
      <point x="1544" y="0" type="line"/>
      <point x="1639" y="122"/>
      <point x="1692" y="300"/>
      <point x="1692" y="492" type="curve" smooth="yes"/>
      <point x="1692" y="507" type="line" smooth="yes"/>
      <point x="1692" y="948"/>
      <point x="1427" y="1175"/>
      <point x="908" y="1175" type="curve" smooth="yes"/>
      <point x="391" y="1175"/>
      <point x="130" y="940"/>
      <point x="130" y="489" type="curve" smooth="yes"/>
      <point x="130" y="476" type="line" smooth="yes"/>
      <point x="130" y="144"/>
      <point x="299" y="-36"/>
      <point x="621" y="-36" type="curve" smooth="yes"/>
      <point x="918" y="-36"/>
      <point x="1077" y="98"/>
      <point x="1077" y="346" type="curve" smooth="yes"/>
      <point x="1077" y="355" type="line" smooth="yes"/>
      <point x="1077" y="590"/>
      <point x="938" y="716"/>
      <point x="700" y="716" type="curve" smooth="yes"/>
      <point x="492" y="716"/>
      <point x="357" y="622"/>
      <point x="322" y="462" type="curve"/>
      <point x="335" y="401" type="line"/>
      <point x="382" y="494"/>
      <point x="483" y="552"/>
      <point x="622" y="552" type="curve" smooth="yes"/>
      <point x="785" y="552"/>
      <point x="874" y="478"/>
      <point x="874" y="348" type="curve" smooth="yes"/>
      <point x="874" y="340" type="line" smooth="yes"/>
      <point x="874" y="206"/>
      <point x="784" y="129"/>
      <point x="620" y="129" type="curve" smooth="yes"/>
      <point x="435" y="129"/>
      <point x="336" y="231"/>
      <point x="336" y="422" type="curve" smooth="yes"/>
      <point x="336" y="430" type="line"/>
      <point x="339.059" y="444.423"/>
      <point x="347.288" y="483.212"/>
      <point x="350" y="496" type="curve"/>
      <point x="345.137" y="496"/>
      <point x="330.453" y="496"/>
      <point x="325" y="496" type="curve"/>
      <point x="325" y="497" type="line"/>
      <point x="325" y="834"/>
      <point x="526" y="1001"/>
    </contour>
  </outline>
</glyph>
<glyph name="Virama.mlm" format="2">
  <unicode hex="0D4D"/>
  <outline>
    <contour>
      <point x="-305" y="1429" type="curve" smooth="yes"/>
      <point x="-471.746" y="1429"/>
      <point x="-571" y="1509.65"/>
      <point x="-571" y="1659" type="curve" smooth="yes"/>
      <point x="-571" y="1682" type="line"/>
      <point x="-757" y="1682" type="line"/>
      <point x="-757" y="1653" type="line" smooth="yes"/>
      <point x="-757" y="1406"/>
      <point x="-590" y="1273"/>
      <point x="-305" y="1273" type="curve" smooth="yes"/>
      <point x="-20" y="1273"/>
      <point x="148" y="1406"/>
      <point x="148" y="1653" type="curve" smooth="yes"/>
      <point x="148" y="1682" type="line"/>
      <point x="-39" y="1682" type="line"/>
      <point x="-39" y="1659" type="line" smooth="yes"/>
      <point x="-39" y="1509.65"/>
      <point x="-138.254" y="1429"/>
    </contour>
  </outline>
</glyph>
<glyph name="parasign.mlm" format="2">
  <advance width="3250"/>
  <unicode hex="0D4F"/>
  <outline>
    <contour>
      <point x="343" y="438" type="curve" smooth="yes"/>
      <point x="343" y="454" type="line" smooth="yes"/>
      <point x="343" y="718"/>
      <point x="445" y="941"/>
      <point x="638" y="1130" type="curve"/>
      <point x="412" y="1130" type="line"/>
      <point x="237" y="971"/>
      <point x="134" y="729"/>
      <point x="134" y="451" type="curve" smooth="yes"/>
      <point x="134" y="434" type="line" smooth="yes"/>
      <point x="134" y="-188"/>
      <point x="585" y="-508"/>
      <point x="1638" y="-508" type="curve" smooth="yes"/>
      <point x="2672" y="-508"/>
      <point x="3116" y="-186"/>
      <point x="3116" y="475" type="curve" smooth="yes"/>
      <point x="3116" y="492" type="line" smooth="yes"/>
      <point x="3116" y="942"/>
      <point x="2923" y="1169"/>
      <point x="2535" y="1169" type="curve" smooth="yes"/>
      <point x="2260" y="1169"/>
      <point x="2108" y="1047"/>
      <point x="2074" y="843" type="curve"/>
      <point x="2032" y="843" type="line"/>
      <point x="2032" y="445" type="line"/>
      <point x="2175" y="439" type="line"/>
      <point x="2175" y="628" type="line" smooth="yes"/>
      <point x="2175" y="866"/>
      <point x="2286" y="986"/>
      <point x="2512" y="986" type="curve" smooth="yes"/>
      <point x="2775" y="986"/>
      <point x="2907" y="821"/>
      <point x="2907" y="492" type="curve" smooth="yes"/>
      <point x="2907" y="475" type="line" smooth="yes"/>
      <point x="2907" y="-69"/>
      <point x="2516" y="-334"/>
      <point x="1638" y="-334" type="curve" smooth="yes"/>
      <point x="747" y="-334"/>
      <point x="343" y="-76"/>
    </contour>
    <contour>
      <point x="1971" y="6" type="line"/>
      <point x="2175" y="6" type="line"/>
      <point x="2175" y="581" type="line"/>
      <point x="1971" y="572" type="line"/>
    </contour>
    <contour>
      <point x="1447" y="1169" type="curve" smooth="yes"/>
      <point x="961" y="1169"/>
      <point x="716" y="937"/>
      <point x="716" y="490" type="curve" smooth="yes"/>
      <point x="716" y="477" type="line" smooth="yes"/>
      <point x="716" y="146"/>
      <point x="884" y="-36"/>
      <point x="1203" y="-36" type="curve" smooth="yes"/>
      <point x="1498" y="-36"/>
      <point x="1657" y="98"/>
      <point x="1657" y="344" type="curve" smooth="yes"/>
      <point x="1657" y="354" type="line" smooth="yes"/>
      <point x="1657" y="587"/>
      <point x="1518" y="712"/>
      <point x="1283" y="712" type="curve" smooth="yes"/>
      <point x="1076" y="712"/>
      <point x="942" y="620"/>
      <point x="907" y="461" type="curve"/>
      <point x="920" y="401" type="line"/>
      <point x="967" y="492"/>
      <point x="1066" y="549"/>
      <point x="1204" y="549" type="curve" smooth="yes"/>
      <point x="1365" y="549"/>
      <point x="1454" y="476"/>
      <point x="1454" y="347" type="curve" smooth="yes"/>
      <point x="1454" y="338" type="line" smooth="yes"/>
      <point x="1454" y="206"/>
      <point x="1363" y="129"/>
      <point x="1203" y="129" type="curve" smooth="yes"/>
      <point x="1019" y="129"/>
      <point x="921" y="231"/>
      <point x="921" y="421" type="curve" smooth="yes"/>
      <point x="921" y="430" type="line"/>
      <point x="937" y="497" type="line"/>
      <point x="910" y="497" type="line"/>
      <point x="910" y="498" type="line"/>
      <point x="910" y="833"/>
      <point x="1097" y="995"/>
      <point x="1452" y="995" type="curve" smooth="yes"/>
      <point x="1794" y="995"/>
      <point x="1971" y="859"/>
      <point x="1971" y="605" type="curve" smooth="yes"/>
      <point x="1971" y="526" type="line"/>
      <point x="2070" y="526" type="line"/>
      <point x="2069" y="843" type="line"/>
      <point x="2012" y="1053"/>
      <point x="1799" y="1169"/>
    </contour>
  </outline>
</glyph>
<glyph name="chilluM.mlm" format="2">
  <advance width="1804"/>
  <unicode hex="0D54"/>
  <outline>
    <contour>
      <point x="267" y="156" type="line"/>
      <point x="190" y="0" type="line"/>
      <point x="1610" y="0" type="line"/>
      <point x="1542" y="156" type="line"/>
    </contour>
    <contour>
      <point x="1636" y="515" type="line" smooth="yes"/>
      <point x="1636" y="889"/>
      <point x="1501" y="987"/>
      <point x="1501" y="1302" type="curve" smooth="yes"/>
      <point x="1501" y="1388"/>
      <point x="1518" y="1472"/>
      <point x="1560" y="1558" type="curve"/>
      <point x="1370" y="1558" type="line"/>
      <point x="1331" y="1484"/>
      <point x="1309" y="1397"/>
      <point x="1309" y="1307" type="curve" smooth="yes"/>
      <point x="1309" y="1202"/>
      <point x="1339" y="1115"/>
      <point x="1386" y="1027" type="curve"/>
      <point x="1380" y="1022" type="line"/>
      <point x="1278" y="1125"/>
      <point x="1121" y="1175"/>
      <point x="896" y="1175" type="curve" smooth="yes"/>
      <point x="413" y="1175"/>
      <point x="168" y="953"/>
      <point x="168" y="515" type="curve" smooth="yes"/>
      <point x="168" y="0" type="line"/>
      <point x="371" y="0" type="line"/>
      <point x="371" y="510" type="line" smooth="yes"/>
      <point x="371" y="856"/>
      <point x="538" y="1008"/>
      <point x="901" y="1008" type="curve" smooth="yes"/>
      <point x="1248" y="1008"/>
      <point x="1432" y="858"/>
      <point x="1432" y="510" type="curve" smooth="yes"/>
      <point x="1432" y="0" type="line"/>
      <point x="1636" y="0" type="line"/>
    </contour>
    <contour>
      <point x="1075" y="617" type="line" smooth="yes"/>
      <point x="1075" y="855.312"/>
      <point x="928.283" y="986"/>
      <point x="691" y="986" type="curve" smooth="yes"/>
      <point x="628.687" y="986"/>
      <point x="558.333" y="980"/>
      <point x="492" y="951" type="curve"/>
      <point x="424" y="834" type="line"/>
      <point x="486.833" y="873.167"/>
      <point x="549.667" y="881"/>
      <point x="606" y="881" type="curve" smooth="yes"/>
      <point x="776.733" y="881"/>
      <point x="866" y="781.996"/>
      <point x="866" y="621" type="curve" smooth="yes"/>
      <point x="866" y="614" type="line" smooth="yes"/>
      <point x="866" y="403"/>
      <point x="725" y="232"/>
      <point x="515" y="150" type="curve"/>
      <point x="684" y="102" type="line"/>
      <point x="926" y="184"/>
      <point x="1075" y="373"/>
      <point x="1075" y="609" type="curve" smooth="yes"/>
    </contour>
  </outline>
</glyph>
<glyph name="lengthAu.mlm" format="2">
  <advance width="1853"/>
  <unicode hex="0D57"/>
  <outline>
    <contour>
      <point x="934" y="140" type="curve" smooth="yes"/>
      <point x="787" y="140"/>
      <point x="658" y="156"/>
      <point x="513" y="199" type="curve"/>
      <point x="555" y="18" type="line"/>
      <point x="684" y="-18"/>
      <point x="809" y="-35"/>
      <point x="951" y="-35" type="curve" smooth="yes"/>
      <point x="1461" y="-35"/>
      <point x="1728" y="199"/>
      <point x="1728" y="667" type="curve" smooth="yes"/>
      <point x="1728" y="685" type="line" smooth="yes"/>
      <point x="1728" y="1005"/>
      <point x="1574" y="1169"/>
      <point x="1277" y="1169" type="curve" smooth="yes"/>
      <point x="1058" y="1169"/>
      <point x="947" y="1068"/>
      <point x="919" y="910" type="curve"/>
      <point x="913" y="910" type="line"/>
      <point x="884" y="1068"/>
      <point x="771" y="1169"/>
      <point x="545" y="1169" type="curve" smooth="yes"/>
      <point x="261" y="1169"/>
      <point x="111" y="1015"/>
      <point x="111" y="751" type="curve" smooth="yes"/>
      <point x="111" y="735" type="line" smooth="yes"/>
      <point x="111" y="635"/>
      <point x="135" y="545"/>
      <point x="166" y="484" type="curve"/>
      <point x="375" y="484" type="line"/>
      <point x="343" y="550"/>
      <point x="317" y="631"/>
      <point x="317" y="725" type="curve" smooth="yes"/>
      <point x="317" y="741" type="line" smooth="yes"/>
      <point x="317" y="892"/>
      <point x="402" y="987"/>
      <point x="566" y="987" type="curve" smooth="yes"/>
      <point x="731" y="987"/>
      <point x="813" y="894"/>
      <point x="815" y="715" type="curve" smooth="yes"/>
      <point x="818" y="497" type="line"/>
      <point x="1015" y="497" type="line"/>
      <point x="1018" y="715" type="line" smooth="yes"/>
      <point x="1020" y="894"/>
      <point x="1095" y="987"/>
      <point x="1252" y="987" type="curve" smooth="yes"/>
      <point x="1431" y="987"/>
      <point x="1521" y="885"/>
      <point x="1521" y="685" type="curve" smooth="yes"/>
      <point x="1521" y="667" type="line" smooth="yes"/>
      <point x="1521" y="311"/>
      <point x="1329" y="140"/>
    </contour>
  </outline>
</glyph>
<glyph name="onetwentieth.mlm" format="2">
  <advance width="2282"/>
  <unicode hex="0D5B"/>
  <outline>
    <contour>
      <point x="373" y="0" type="line"/>
      <point x="373" y="1130" type="line"/>
      <point x="168" y="1130" type="line"/>
      <point x="168" y="0" type="line"/>
    </contour>
    <contour>
      <point x="1066" y="968" type="line"/>
      <point x="1287" y="1130" type="line"/>
      <point x="203" y="1130" type="line"/>
      <point x="203" y="968" type="line"/>
    </contour>
    <contour>
      <point x="1511" y="135" type="curve" smooth="yes"/>
      <point x="1230" y="135"/>
      <point x="1086" y="290"/>
      <point x="1086" y="592" type="curve" smooth="yes"/>
      <point x="1086" y="609" type="line" smooth="yes"/>
      <point x="1086" y="806"/>
      <point x="1162" y="976"/>
      <point x="1287" y="1118" type="curve"/>
      <point x="1287" y="1130" type="line"/>
      <point x="1109" y="1130" type="line"/>
      <point x="959.992" y="1002.49"/>
      <point x="877" y="823.528"/>
      <point x="877" y="602" type="curve" smooth="yes"/>
      <point x="877" y="585" type="line" smooth="yes"/>
      <point x="877" y="171.051"/>
      <point x="1093" y="-44"/>
      <point x="1511" y="-44" type="curve" smooth="yes"/>
      <point x="1929" y="-44"/>
      <point x="2148" y="171"/>
      <point x="2148" y="587" type="curve" smooth="yes"/>
      <point x="2148" y="604" type="line" smooth="yes"/>
      <point x="2148" y="821"/>
      <point x="2080" y="1003"/>
      <point x="1951" y="1130" type="curve"/>
      <point x="1737" y="1130" type="line"/>
      <point x="1864" y="985"/>
      <point x="1939" y="811"/>
      <point x="1939" y="609" type="curve" smooth="yes"/>
      <point x="1939" y="592" type="line" smooth="yes"/>
      <point x="1939" y="290"/>
      <point x="1792" y="135"/>
    </contour>
  </outline>
</glyph>
<glyph name="onetenth.mlm" format="2">
  <advance width="3780"/>
  <unicode hex="0D5C"/>
  <outline>
    <contour>
      <point x="2591" y="441" type="curve" smooth="yes"/>
      <point x="2591" y="127"/>
      <point x="2765" y="-36"/>
      <point x="3103" y="-36" type="curve" smooth="yes"/>
      <point x="3463" y="-36"/>
      <point x="3646" y="156"/>
      <point x="3646" y="536" type="curve" smooth="yes"/>
      <point x="3646" y="558" type="line" smooth="yes"/>
      <point x="3646" y="791"/>
      <point x="3566.7" y="994"/>
      <point x="3419" y="1126" type="curve"/>
      <point x="3201" y="1126" type="line"/>
      <point x="3353" y="968"/>
      <point x="3437" y="785"/>
      <point x="3437" y="563" type="curve" smooth="yes"/>
      <point x="3437" y="541" type="line" smooth="yes"/>
      <point x="3437" y="275"/>
      <point x="3326" y="143"/>
      <point x="3103" y="143" type="curve" smooth="yes"/>
      <point x="2901" y="143"/>
      <point x="2796" y="250"/>
      <point x="2796" y="460" type="curve" smooth="yes"/>
      <point x="2796" y="552"/>
      <point x="2796" y="605"/>
      <point x="2796" y="697" type="curve" smooth="yes"/>
      <point x="2796" y="1011"/>
      <point x="2626" y="1170"/>
      <point x="2291" y="1170" type="curve" smooth="yes"/>
      <point x="1957" y="1170"/>
      <point x="1786" y="1011"/>
      <point x="1786" y="697" type="curve" smooth="yes"/>
      <point x="1786" y="603"/>
      <point x="1786" y="549"/>
      <point x="1786" y="455" type="curve" smooth="yes"/>
      <point x="1786" y="248"/>
      <point x="1687" y="143"/>
      <point x="1493" y="143" type="curve" smooth="yes"/>
      <point x="1299" y="143"/>
      <point x="1199" y="248"/>
      <point x="1199" y="455" type="curve" smooth="yes"/>
      <point x="1199" y="547"/>
      <point x="1199" y="601"/>
      <point x="1199" y="694" type="curve" smooth="yes"/>
      <point x="1199" y="1009"/>
      <point x="1026" y="1170"/>
      <point x="688" y="1170" type="curve" smooth="yes"/>
      <point x="321" y="1170"/>
      <point x="134" y="974"/>
      <point x="134" y="585" type="curve" smooth="yes"/>
      <point x="134" y="560" type="line" smooth="yes"/>
      <point x="134" y="331"/>
      <point x="204.286" y="134"/>
      <point x="342" y="0" type="curve"/>
      <point x="570" y="0" type="line"/>
      <point x="426" y="158"/>
      <point x="343" y="340"/>
      <point x="343" y="560" type="curve" smooth="yes"/>
      <point x="343" y="581" type="line" smooth="yes"/>
      <point x="343" y="857"/>
      <point x="459" y="991"/>
      <point x="688" y="991" type="curve" smooth="yes"/>
      <point x="891" y="991"/>
      <point x="994" y="885"/>
      <point x="994" y="674" type="curve" smooth="yes"/>
      <point x="994" y="583"/>
      <point x="994" y="528"/>
      <point x="994" y="436" type="curve" smooth="yes"/>
      <point x="994" y="125"/>
      <point x="1164" y="-36"/>
      <point x="1493" y="-36" type="curve" smooth="yes"/>
      <point x="1822" y="-36"/>
      <point x="1991" y="125"/>
      <point x="1991" y="436" type="curve" smooth="yes"/>
      <point x="1991" y="529"/>
      <point x="1991" y="583"/>
      <point x="1991" y="675" type="curve" smooth="yes"/>
      <point x="1991" y="885"/>
      <point x="2092" y="991"/>
      <point x="2291" y="991" type="curve" smooth="yes"/>
      <point x="2490" y="991"/>
      <point x="2591" y="885"/>
      <point x="2591" y="675" type="curve" smooth="yes"/>
      <point x="2591" y="586"/>
      <point x="2591" y="532"/>
    </contour>
  </outline>
</glyph>
<glyph name="threetwentieths.mlm" format="2">
  <advance width="4955"/>
  <unicode hex="0D5D"/>
  <outline>
    <contour>
      <point x="568" y="503" type="line"/>
      <point x="773" y="509" type="line"/>
      <point x="773" y="1124" type="line"/>
      <point x="568" y="1124" type="line"/>
    </contour>
    <contour>
      <point x="281" y="-36" type="curve" smooth="yes"/>
      <point x="517" y="-36"/>
      <point x="639" y="80"/>
      <point x="668" y="255" type="curve"/>
      <point x="711" y="255" type="line"/>
      <point x="711" y="678" type="line"/>
      <point x="568" y="684" type="line"/>
      <point x="568" y="475" type="line" smooth="yes"/>
      <point x="568" y="254"/>
      <point x="468" y="142"/>
      <point x="266" y="142" type="curve" smooth="yes"/>
      <point x="164" y="142"/>
      <point x="86" y="156"/>
      <point x="25" y="179" type="curve"/>
      <point x="72" y="-3" type="line"/>
      <point x="129" y="-24"/>
      <point x="202" y="-36"/>
    </contour>
    <contour>
      <point x="1868" y="1170" type="curve" smooth="yes"/>
      <point x="1530" y="1170"/>
      <point x="1359" y="1009"/>
      <point x="1359" y="694" type="curve" smooth="yes"/>
      <point x="1359" y="602"/>
      <point x="1359" y="548"/>
      <point x="1359" y="456" type="curve" smooth="yes"/>
      <point x="1359" y="249.333"/>
      <point x="1262" y="146"/>
      <point x="1073" y="146" type="curve" smooth="yes"/>
      <point x="874" y="146"/>
      <point x="773" y="250.334"/>
      <point x="773" y="458" type="curve" smooth="yes"/>
      <point x="773" y="643" type="line"/>
      <point x="684" y="600" type="line"/>
      <point x="674" y="255" type="line"/>
      <point x="707" y="76"/>
      <point x="841" y="-37"/>
      <point x="1101" y="-37" type="curve" smooth="yes"/>
      <point x="1406" y="-37"/>
      <point x="1564" y="125"/>
      <point x="1564" y="437" type="curve" smooth="yes"/>
      <point x="1564" y="529"/>
      <point x="1564" y="584"/>
      <point x="1564" y="674" type="curve" smooth="yes"/>
      <point x="1564" y="885"/>
      <point x="1667" y="991"/>
      <point x="1870" y="991" type="curve" smooth="yes"/>
      <point x="2073" y="991"/>
      <point x="2174" y="885"/>
      <point x="2174" y="674" type="curve" smooth="yes"/>
      <point x="2174" y="584"/>
      <point x="2174" y="529"/>
      <point x="2174" y="437" type="curve" smooth="yes"/>
      <point x="2174" y="126"/>
      <point x="2344" y="-36"/>
      <point x="2670" y="-36" type="curve" smooth="yes"/>
      <point x="2997" y="-36"/>
      <point x="3166" y="126"/>
      <point x="3166" y="437" type="curve" smooth="yes"/>
      <point x="3166" y="530"/>
      <point x="3166" y="584"/>
      <point x="3166" y="675" type="curve" smooth="yes"/>
      <point x="3166" y="885"/>
      <point x="3266" y="991"/>
      <point x="3465" y="991" type="curve" smooth="yes"/>
      <point x="3664" y="991"/>
      <point x="3765" y="885"/>
      <point x="3765" y="675" type="curve" smooth="yes"/>
      <point x="3765" y="586"/>
      <point x="3765" y="532"/>
      <point x="3765" y="441" type="curve" smooth="yes"/>
      <point x="3765" y="127"/>
      <point x="3940" y="-36"/>
      <point x="4278" y="-36" type="curve" smooth="yes"/>
      <point x="4638" y="-36"/>
      <point x="4821" y="156"/>
      <point x="4821" y="536" type="curve" smooth="yes"/>
      <point x="4821" y="558" type="line" smooth="yes"/>
      <point x="4821" y="791"/>
      <point x="4741.7" y="994"/>
      <point x="4594" y="1126" type="curve"/>
      <point x="4376" y="1126" type="line"/>
      <point x="4528" y="968"/>
      <point x="4612" y="785"/>
      <point x="4612" y="563" type="curve" smooth="yes"/>
      <point x="4612" y="541" type="line" smooth="yes"/>
      <point x="4612" y="275"/>
      <point x="4501" y="143"/>
      <point x="4278" y="143" type="curve" smooth="yes"/>
      <point x="4076" y="143"/>
      <point x="3970" y="250"/>
      <point x="3970" y="460" type="curve" smooth="yes"/>
      <point x="3970" y="552"/>
      <point x="3970" y="605"/>
      <point x="3970" y="697" type="curve" smooth="yes"/>
      <point x="3970" y="1011"/>
      <point x="3800" y="1170"/>
      <point x="3465" y="1170" type="curve" smooth="yes"/>
      <point x="3131" y="1170"/>
      <point x="2961" y="1011"/>
      <point x="2961" y="697" type="curve" smooth="yes"/>
      <point x="2961" y="603"/>
      <point x="2961" y="550"/>
      <point x="2961" y="456" type="curve" smooth="yes"/>
      <point x="2961" y="249"/>
      <point x="2862" y="143"/>
      <point x="2670" y="143" type="curve" smooth="yes"/>
      <point x="2479" y="143"/>
      <point x="2379" y="249"/>
      <point x="2379" y="456" type="curve" smooth="yes"/>
      <point x="2379" y="548"/>
      <point x="2379" y="602"/>
      <point x="2379" y="694" type="curve" smooth="yes"/>
      <point x="2379" y="1009"/>
      <point x="2206" y="1170"/>
    </contour>
  </outline>
</glyph>
<glyph name="onefifth.mlm" format="2">
  <advance width="3228"/>
  <unicode hex="0D5E"/>
  <outline>
    <contour>
      <point x="2386" y="974" type="line"/>
      <point x="2590" y="1130" type="line"/>
      <point x="1802" y="1130" type="line"/>
      <point x="1976" y="974" type="line"/>
    </contour>
    <contour>
      <point x="2735" y="684" type="curve" smooth="yes"/>
      <point x="2580" y="684"/>
      <point x="2504" y="755"/>
      <point x="2504" y="890" type="curve" smooth="yes"/>
      <point x="2504" y="895" type="line" smooth="yes"/>
      <point x="2504" y="974"/>
      <point x="2533" y="1051"/>
      <point x="2590" y="1118" type="curve"/>
      <point x="2590" y="1130" type="line"/>
      <point x="2451" y="1130" type="line"/>
      <point x="2363" y="1061"/>
      <point x="2316" y="960"/>
      <point x="2316" y="863" type="curve" smooth="yes"/>
      <point x="2316" y="856" type="line" smooth="yes"/>
      <point x="2316" y="628"/>
      <point x="2461" y="512"/>
      <point x="2735" y="512" type="curve" smooth="yes"/>
      <point x="3018" y="512"/>
      <point x="3165" y="635"/>
      <point x="3165" y="879" type="curve" smooth="yes"/>
      <point x="3165" y="886" type="line" smooth="yes"/>
      <point x="3165" y="978"/>
      <point x="3137" y="1066"/>
      <point x="3082" y="1130" type="curve"/>
      <point x="2886" y="1130" type="line"/>
      <point x="2942" y="1059"/>
      <point x="2968" y="978"/>
      <point x="2968" y="895" type="curve" smooth="yes"/>
      <point x="2968" y="890" type="line" smooth="yes"/>
      <point x="2968" y="755"/>
      <point x="2892" y="684"/>
    </contour>
    <contour>
      <point x="1892" y="887" type="line" smooth="yes"/>
      <point x="1892" y="766"/>
      <point x="1823" y="700"/>
      <point x="1698" y="700" type="curve" smooth="yes"/>
      <point x="1541" y="700" type="line"/>
      <point x="1633" y="543" type="line"/>
      <point x="1732" y="543" type="line" smooth="yes"/>
      <point x="1955" y="543"/>
      <point x="2079" y="650"/>
      <point x="2079" y="854" type="curve" smooth="yes"/>
      <point x="2079" y="862" type="line" smooth="yes"/>
      <point x="2079" y="959"/>
      <point x="2032" y="1060"/>
      <point x="1944" y="1130" type="curve"/>
      <point x="1802" y="1130" type="line"/>
      <point x="1802" y="1118" type="line"/>
      <point x="1860" y="1049"/>
      <point x="1892" y="974"/>
      <point x="1892" y="894" type="curve" smooth="yes"/>
    </contour>
    <contour>
      <point x="917" y="1001" type="curve" smooth="yes"/>
      <point x="1271" y="1001"/>
      <point x="1461" y="844"/>
      <point x="1461" y="517" type="curve" smooth="yes"/>
      <point x="1461" y="488" type="line" smooth="yes"/>
      <point x="1461" y="275"/>
      <point x="1387" y="129"/>
      <point x="1178" y="129" type="curve" smooth="yes"/>
      <point x="1025" y="129"/>
      <point x="942" y="205"/>
      <point x="942" y="334" type="curve" smooth="yes"/>
      <point x="942" y="343" type="line" smooth="yes"/>
      <point x="942" y="473"/>
      <point x="1031" y="544"/>
      <point x="1189" y="544" type="curve" smooth="yes"/>
      <point x="1572" y="544" type="line"/>
      <point x="1601" y="700" type="line"/>
      <point x="1166" y="700" type="line" smooth="yes"/>
      <point x="894" y="700"/>
      <point x="738" y="575"/>
      <point x="738" y="344" type="curve" smooth="yes"/>
      <point x="738" y="335" type="line" smooth="yes"/>
      <point x="738" y="96"/>
      <point x="893" y="-36"/>
      <point x="1173" y="-36" type="curve" smooth="yes"/>
      <point x="1495" y="-36"/>
      <point x="1659" y="148"/>
      <point x="1659" y="484" type="curve" smooth="yes"/>
      <point x="1659" y="514" type="line" smooth="yes"/>
      <point x="1659" y="950"/>
      <point x="1408" y="1175"/>
      <point x="914" y="1175" type="curve" smooth="yes"/>
      <point x="397" y="1175"/>
      <point x="134" y="938"/>
      <point x="134" y="495" type="curve" smooth="yes"/>
      <point x="134" y="480" type="line" smooth="yes"/>
      <point x="134" y="295"/>
      <point x="188" y="119"/>
      <point x="282" y="0" type="curve"/>
      <point x="500" y="0" type="line"/>
      <point x="398" y="142"/>
      <point x="343" y="297"/>
      <point x="343" y="469" type="curve" smooth="yes"/>
      <point x="343" y="485" type="line" smooth="yes"/>
      <point x="343" y="828"/>
      <point x="533" y="1001"/>
    </contour>
  </outline>
</glyph>
<glyph name="archaicIi.mlm" format="2">
  <advance width="3654"/>
  <unicode hex="0D5F"/>
  <outline>
    <component base="Ra.mlm" xOffset="901"/>
    <contour>
      <point x="674" y="551" type="curve" smooth="yes"/>
      <point x="674" y="544" type="line" smooth="yes"/>
      <point x="674" y="433"/>
      <point x="600" y="375"/>
      <point x="471" y="375" type="curve" smooth="yes"/>
      <point x="342" y="375"/>
      <point x="269" y="433"/>
      <point x="269" y="544" type="curve" smooth="yes"/>
      <point x="269" y="551" type="line" smooth="yes"/>
      <point x="269" y="662"/>
      <point x="342" y="721"/>
      <point x="471" y="721" type="curve" smooth="yes"/>
      <point x="600" y="721"/>
      <point x="674" y="662"/>
    </contour>
    <contour>
      <point x="471" y="872" type="curve" smooth="yes"/>
      <point x="216" y="872"/>
      <point x="82" y="765"/>
      <point x="82" y="552" type="curve" smooth="yes"/>
      <point x="82" y="544" type="line" smooth="yes"/>
      <point x="82" y="331"/>
      <point x="216" y="223"/>
      <point x="471" y="223" type="curve" smooth="yes"/>
      <point x="726" y="223"/>
      <point x="861" y="331"/>
      <point x="861" y="544" type="curve" smooth="yes"/>
      <point x="861" y="552" type="line" smooth="yes"/>
      <point x="861" y="765"/>
      <point x="726" y="872"/>
    </contour>
    <contour>
      <point x="3385" y="551" type="curve" smooth="yes"/>
      <point x="3385" y="544" type="line" smooth="yes"/>
      <point x="3385" y="433"/>
      <point x="3311" y="375"/>
      <point x="3182" y="375" type="curve" smooth="yes"/>
      <point x="3053" y="375"/>
      <point x="2980" y="433"/>
      <point x="2980" y="544" type="curve" smooth="yes"/>
      <point x="2980" y="551" type="line" smooth="yes"/>
      <point x="2980" y="662"/>
      <point x="3053" y="721"/>
      <point x="3182" y="721" type="curve" smooth="yes"/>
      <point x="3311" y="721"/>
      <point x="3385" y="662"/>
    </contour>
    <contour>
      <point x="2793" y="552" type="curve" smooth="yes"/>
      <point x="2793" y="544" type="line" smooth="yes"/>
      <point x="2793" y="331"/>
      <point x="2927" y="223"/>
      <point x="3182" y="223" type="curve" smooth="yes"/>
      <point x="3437" y="223"/>
      <point x="3572" y="331"/>
      <point x="3572" y="544" type="curve" smooth="yes"/>
      <point x="3572" y="552" type="line" smooth="yes"/>
      <point x="3572" y="765"/>
      <point x="3437" y="872"/>
      <point x="3182" y="872" type="curve" smooth="yes"/>
      <point x="2927" y="872"/>
      <point x="2793" y="765"/>
    </contour>
  </outline>
</glyph>
<glyph name="vowelRuu.mlm" format="2">
  <advance width="2091"/>
  <unicode hex="0D60"/>
  <outline>
    <contour>
      <point x="1141" y="-381" type="line" smooth="yes"/>
      <point x="1583" y="-381"/>
      <point x="1815" y="-267"/>
      <point x="1815" y="-31" type="curve" smooth="yes"/>
      <point x="1815" y="139"/>
      <point x="1706" y="241"/>
      <point x="1498" y="268" type="curve"/>
      <point x="1498" y="290" type="line"/>
      <point x="1186" y="362" type="line"/>
      <point x="905" y="362" type="line"/>
      <point x="594" y="290" type="line"/>
      <point x="594" y="267" type="line"/>
      <point x="386" y="239"/>
      <point x="276" y="139"/>
      <point x="276" y="-31" type="curve" smooth="yes"/>
      <point x="276" y="-267"/>
      <point x="508" y="-381"/>
      <point x="949" y="-381" type="curve" smooth="yes"/>
    </contour>
    <contour>
      <point x="1133" y="215" type="line" smooth="yes"/>
      <point x="1459" y="215"/>
      <point x="1623" y="145"/>
      <point x="1623" y="-10" type="curve" smooth="yes"/>
      <point x="1623" y="-166"/>
      <point x="1459" y="-234"/>
      <point x="1133" y="-234" type="curve" smooth="yes"/>
      <point x="959" y="-234" type="line" smooth="yes"/>
      <point x="633" y="-234"/>
      <point x="468" y="-166"/>
      <point x="468" y="-10" type="curve" smooth="yes"/>
      <point x="468" y="145"/>
      <point x="633" y="215"/>
      <point x="959" y="215" type="curve" smooth="yes"/>
    </contour>
    <contour>
      <point x="855" y="124" type="curve" smooth="yes"/>
      <point x="709" y="124"/>
      <point x="628" y="49"/>
      <point x="628" y="-84" type="curve" smooth="yes"/>
      <point x="628" y="-111" type="line"/>
      <point x="767" y="-118" type="line"/>
      <point x="767" y="-90" type="line" smooth="yes"/>
      <point x="767" y="-23"/>
      <point x="803" y="15"/>
      <point x="872" y="15" type="curve" smooth="yes"/>
      <point x="945" y="15"/>
      <point x="974" y="-23"/>
      <point x="978" y="-85" type="curve" smooth="yes"/>
      <point x="980" y="-115" type="line"/>
      <point x="1114" y="-115" type="line"/>
      <point x="1115" y="-85" type="line" smooth="yes"/>
      <point x="1117" y="-23"/>
      <point x="1149" y="15"/>
      <point x="1222" y="15" type="curve" smooth="yes"/>
      <point x="1291" y="15"/>
      <point x="1327" y="-23"/>
      <point x="1327" y="-90" type="curve" smooth="yes"/>
      <point x="1327" y="-118" type="line"/>
      <point x="1466" y="-111" type="line"/>
      <point x="1466" y="-84" type="line" smooth="yes"/>
      <point x="1466" y="49"/>
      <point x="1388" y="124"/>
      <point x="1240" y="124" type="curve" smooth="yes"/>
      <point x="1128" y="124"/>
      <point x="1063" y="82"/>
      <point x="1049" y="14" type="curve"/>
      <point x="1046" y="14" type="line"/>
      <point x="1032" y="82"/>
      <point x="968" y="124"/>
    </contour>
    <contour>
      <point x="1799" y="717" type="line" smooth="yes"/>
      <point x="1799" y="487"/>
      <point x="1571" y="362"/>
      <point x="1116" y="362" type="curve"/>
      <point x="1401" y="243" type="line"/>
      <point x="1434" y="252"/>
      <point x="1465" y="270"/>
      <point x="1498" y="274" type="curve" smooth="yes"/>
      <point x="1799" y="313"/>
      <point x="1985" y="464"/>
      <point x="1985" y="742" type="curve" smooth="yes"/>
      <point x="1985" y="761" type="line" smooth="yes"/>
      <point x="1985" y="1016"/>
      <point x="1842" y="1169"/>
      <point x="1539" y="1169" type="curve" smooth="yes"/>
      <point x="1279" y="1169"/>
      <point x="1138" y="1054"/>
      <point x="1138" y="850" type="curve" smooth="yes"/>
      <point x="1138" y="840" type="line" smooth="yes"/>
      <point x="1138" y="656"/>
      <point x="1262" y="546"/>
      <point x="1483" y="546" type="curve" smooth="yes"/>
      <point x="1651" y="546"/>
      <point x="1766" y="627"/>
      <point x="1800" y="742" type="curve"/>
      <point x="1792" y="813" type="line"/>
      <point x="1749" y="738"/>
      <point x="1661" y="691"/>
      <point x="1535" y="691" type="curve" smooth="yes"/>
      <point x="1407" y="691"/>
      <point x="1331" y="748"/>
      <point x="1331" y="844" type="curve" smooth="yes"/>
      <point x="1331" y="850" type="line" smooth="yes"/>
      <point x="1331" y="955"/>
      <point x="1410" y="1014"/>
      <point x="1542" y="1014" type="curve" smooth="yes"/>
      <point x="1707" y="1014"/>
      <point x="1791" y="928"/>
      <point x="1791" y="786" type="curve" smooth="yes"/>
      <point x="1791" y="764" type="line"/>
      <point x="1785" y="723" type="line"/>
      <point x="1799" y="723" type="line"/>
    </contour>
    <contour>
      <point x="976" y="362" type="line"/>
      <point x="521" y="362"/>
      <point x="292" y="487"/>
      <point x="292" y="717" type="curve" smooth="yes"/>
      <point x="292" y="723" type="line"/>
      <point x="306" y="723" type="line"/>
      <point x="301" y="764" type="line"/>
      <point x="301" y="786" type="line" smooth="yes"/>
      <point x="301" y="928"/>
      <point x="385" y="1014"/>
      <point x="549" y="1014" type="curve" smooth="yes"/>
      <point x="681" y="1014"/>
      <point x="760" y="955"/>
      <point x="760" y="850" type="curve" smooth="yes"/>
      <point x="760" y="844" type="line" smooth="yes"/>
      <point x="760" y="748"/>
      <point x="685" y="691"/>
      <point x="557" y="691" type="curve" smooth="yes"/>
      <point x="432" y="691"/>
      <point x="344" y="738"/>
      <point x="300" y="814" type="curve"/>
      <point x="292" y="743" type="line"/>
      <point x="327" y="627"/>
      <point x="442" y="546"/>
      <point x="609" y="546" type="curve" smooth="yes"/>
      <point x="831" y="546"/>
      <point x="953" y="656"/>
      <point x="953" y="840" type="curve" smooth="yes"/>
      <point x="953" y="850" type="line" smooth="yes"/>
      <point x="953" y="1054"/>
      <point x="813" y="1169"/>
      <point x="553" y="1169" type="curve" smooth="yes"/>
      <point x="250" y="1169"/>
      <point x="106" y="1016"/>
      <point x="106" y="761" type="curve" smooth="yes"/>
      <point x="106" y="742" type="line" smooth="yes"/>
      <point x="106" y="463"/>
      <point x="293" y="312"/>
      <point x="594" y="273" type="curve" smooth="yes"/>
      <point x="627" y="269"/>
      <point x="659" y="252"/>
      <point x="691" y="243" type="curve"/>
    </contour>
  </outline>
</glyph>
<glyph name="vowelLruu.mlm" format="2">
  <advance width="3444"/>
  <unicode hex="0D61"/>
  <outline>
    <contour>
      <point x="2740" y="650" type="line"/>
      <point x="2993" y="621"/>
      <point x="3127" y="466"/>
      <point x="3127" y="238" type="curve" smooth="yes"/>
      <point x="3127" y="229" type="line" smooth="yes"/>
      <point x="3127" y="-85"/>
      <point x="2922" y="-254"/>
      <point x="2529" y="-254" type="curve" smooth="yes"/>
      <point x="2335" y="-254"/>
      <point x="2178" y="-229"/>
      <point x="2021" y="-172" type="curve"/>
      <point x="2060" y="-345" type="line"/>
      <point x="2203" y="-397"/>
      <point x="2359" y="-419"/>
      <point x="2541" y="-419" type="curve" smooth="yes"/>
      <point x="3057" y="-419"/>
      <point x="3329" y="-198"/>
      <point x="3329" y="221" type="curve" smooth="yes"/>
      <point x="3329" y="233" type="line" smooth="yes"/>
      <point x="3329" y="566"/>
      <point x="3107" y="783"/>
      <point x="2721" y="812" type="curve"/>
    </contour>
    <contour>
      <point x="2108" y="995" type="curve" smooth="yes"/>
      <point x="2347" y="995"/>
      <point x="2511" y="916"/>
      <point x="2587" y="787" type="curve"/>
      <point x="2602" y="709" type="line"/>
      <point x="2621" y="646"/>
      <point x="2630" y="584"/>
      <point x="2630" y="508" type="curve" smooth="yes"/>
      <point x="2630" y="489" type="line" smooth="yes"/>
      <point x="2630" y="276"/>
      <point x="2541" y="174"/>
      <point x="2361" y="174" type="curve" smooth="yes"/>
      <point x="2195" y="174"/>
      <point x="2108" y="256"/>
      <point x="2108" y="393" type="curve" smooth="yes"/>
      <point x="2108" y="401" type="line" smooth="yes"/>
      <point x="2108" y="568"/>
      <point x="2233" y="664"/>
      <point x="2495" y="664" type="curve" smooth="yes"/>
      <point x="2543" y="664"/>
      <point x="2583" y="662"/>
      <point x="2629" y="657" type="curve"/>
      <point x="2643" y="805" type="line"/>
      <point x="2606" y="812"/>
      <point x="2533" y="821"/>
      <point x="2475" y="821" type="curve" smooth="yes"/>
      <point x="2110" y="821"/>
      <point x="1904" y="676"/>
      <point x="1904" y="396" type="curve" smooth="yes"/>
      <point x="1904" y="385" type="line" smooth="yes"/>
      <point x="1904" y="143"/>
      <point x="2065" y="10"/>
      <point x="2359" y="10" type="curve" smooth="yes"/>
      <point x="2675" y="10"/>
      <point x="2830" y="180"/>
      <point x="2830" y="493" type="curve" smooth="yes"/>
      <point x="2830" y="508" type="line" smooth="yes"/>
      <point x="2830" y="582"/>
      <point x="2819" y="643"/>
      <point x="2803" y="707" type="curve" smooth="yes"/>
      <point x="2797" y="731" type="line" smooth="yes"/>
      <point x="2729" y="1005"/>
      <point x="2503" y="1168"/>
      <point x="2114" y="1168" type="curve" smooth="yes"/>
      <point x="1756" y="1168"/>
      <point x="1545" y="1046"/>
      <point x="1490" y="825" type="curve"/>
      <point x="1460" y="825" type="line"/>
      <point x="1468" y="520" type="line"/>
      <point x="1589" y="489" type="line"/>
      <point x="1589" y="579" type="line" smooth="yes"/>
      <point x="1589" y="850"/>
      <point x="1766" y="995"/>
    </contour>
    <contour>
      <point x="862" y="1169" type="curve" smooth="yes"/>
      <point x="375" y="1169"/>
      <point x="130" y="937"/>
      <point x="130" y="490" type="curve" smooth="yes"/>
      <point x="130" y="477" type="line" smooth="yes"/>
      <point x="130" y="146"/>
      <point x="298" y="-36"/>
      <point x="617" y="-36" type="curve" smooth="yes"/>
      <point x="912" y="-36"/>
      <point x="1071" y="98"/>
      <point x="1071" y="344" type="curve" smooth="yes"/>
      <point x="1071" y="354" type="line" smooth="yes"/>
      <point x="1071" y="587"/>
      <point x="932" y="712"/>
      <point x="697" y="712" type="curve" smooth="yes"/>
      <point x="490" y="712"/>
      <point x="356" y="620"/>
      <point x="321" y="461" type="curve"/>
      <point x="334" y="401" type="line"/>
      <point x="381" y="492"/>
      <point x="480" y="549"/>
      <point x="618" y="549" type="curve" smooth="yes"/>
      <point x="779" y="549"/>
      <point x="868" y="476"/>
      <point x="868" y="347" type="curve" smooth="yes"/>
      <point x="868" y="338" type="line" smooth="yes"/>
      <point x="868" y="206"/>
      <point x="777" y="129"/>
      <point x="617" y="129" type="curve" smooth="yes"/>
      <point x="433" y="129"/>
      <point x="335" y="231"/>
      <point x="335" y="421" type="curve" smooth="yes"/>
      <point x="335" y="430" type="line"/>
      <point x="351" y="497" type="line"/>
      <point x="324" y="497" type="line"/>
      <point x="324" y="498" type="line"/>
      <point x="324" y="833"/>
      <point x="511" y="995"/>
      <point x="865" y="995" type="curve" smooth="yes"/>
      <point x="1209" y="995"/>
      <point x="1385" y="849"/>
      <point x="1385" y="580" type="curve" smooth="yes"/>
      <point x="1385" y="521" type="line"/>
      <point x="1484" y="521" type="line"/>
      <point x="1484" y="826" type="line"/>
      <point x="1430" y="1047"/>
      <point x="1219" y="1169"/>
    </contour>
    <contour>
      <point x="1385" y="6" type="line"/>
      <point x="1589" y="6" type="line"/>
      <point x="1589" y="568" type="line"/>
      <point x="1385" y="566" type="line"/>
    </contour>
  </outline>
</glyph>
<glyph name="uni0D63" format="2">
  <unicode hex="0D63"/>
  <outline>
    <contour>
      <point x="-195" y="-126" type="curve"/>
      <point x="-199" y="-255" type="line"/>
      <point x="-71" y="-279"/>
      <point x="6" y="-330"/>
      <point x="6" y="-444" type="curve" smooth="yes"/>
      <point x="6" y="-450" type="line" smooth="yes"/>
      <point x="6" y="-590"/>
      <point x="-124" y="-661"/>
      <point x="-365" y="-661" type="curve" smooth="yes"/>
      <point x="-490" y="-661"/>
      <point x="-595" y="-649"/>
      <point x="-702" y="-616" type="curve"/>
      <point x="-676" y="-742" type="line"/>
      <point x="-581" y="-771"/>
      <point x="-478" y="-784"/>
      <point x="-358" y="-784" type="curve" smooth="yes"/>
      <point x="-11" y="-784"/>
      <point x="174" y="-668"/>
      <point x="174" y="-451" type="curve" smooth="yes"/>
      <point x="174" y="-444" type="line" smooth="yes"/>
      <point x="174" y="-245"/>
      <point x="26" y="-154"/>
    </contour>
    <contour>
      <point x="-633" y="-33" type="curve" smooth="yes"/>
      <point x="-477" y="-33"/>
      <point x="-374" y="-72"/>
      <point x="-324" y="-139" type="curve"/>
      <point x="-312" y="-170" type="line"/>
      <point x="-305" y="-198"/>
      <point x="-301" y="-228"/>
      <point x="-301" y="-261" type="curve" smooth="yes"/>
      <point x="-301" y="-273" type="line" smooth="yes"/>
      <point x="-301" y="-367"/>
      <point x="-354" y="-417"/>
      <point x="-472" y="-417" type="curve" smooth="yes"/>
      <point x="-565" y="-417"/>
      <point x="-621" y="-389"/>
      <point x="-621" y="-332" type="curve" smooth="yes"/>
      <point x="-621" y="-328" type="line" smooth="yes"/>
      <point x="-621" y="-265"/>
      <point x="-555" y="-232"/>
      <point x="-438" y="-232" type="curve" smooth="yes"/>
      <point x="-381" y="-232"/>
      <point x="-315" y="-234"/>
      <point x="-253" y="-240" type="curve"/>
      <point x="-266" y="-129" type="line"/>
      <point x="-320" y="-119"/>
      <point x="-379" y="-114"/>
      <point x="-445" y="-114" type="curve" smooth="yes"/>
      <point x="-661" y="-114"/>
      <point x="-788" y="-186"/>
      <point x="-788" y="-333" type="curve" smooth="yes"/>
      <point x="-788" y="-336" type="line" smooth="yes"/>
      <point x="-788" y="-471"/>
      <point x="-676" y="-539"/>
      <point x="-472" y="-539" type="curve" smooth="yes"/>
      <point x="-250" y="-539"/>
      <point x="-141" y="-450"/>
      <point x="-141" y="-277" type="curve" smooth="yes"/>
      <point x="-141" y="-267" type="line" smooth="yes"/>
      <point x="-141" y="-235"/>
      <point x="-147" y="-205"/>
      <point x="-155" y="-176" type="curve" smooth="yes"/>
      <point x="-161" y="-154" type="line"/>
      <point x="-211" y="-3"/>
      <point x="-367" y="91"/>
      <point x="-630" y="91" type="curve" smooth="yes"/>
      <point x="-872" y="91"/>
      <point x="-1018" y="28"/>
      <point x="-1073" y="-95" type="curve"/>
      <point x="-1111" y="-95" type="line"/>
      <point x="-1109" y="-292" type="line"/>
      <point x="-992" y="-328" type="line"/>
      <point x="-992" y="-275" type="line" smooth="yes"/>
      <point x="-992" y="-116"/>
      <point x="-868" y="-33"/>
    </contour>
    <contour>
      <point x="-1159" y="-561" type="line"/>
      <point x="-992" y="-561" type="line"/>
      <point x="-992" y="-261" type="line"/>
      <point x="-1159" y="-260" type="line"/>
    </contour>
    <contour>
      <point x="-1527" y="91" type="curve" smooth="yes"/>
      <point x="-1866" y="91"/>
      <point x="-2038" y="-34"/>
      <point x="-2038" y="-286" type="curve" smooth="yes"/>
      <point x="-2038" y="-296" type="line" smooth="yes"/>
      <point x="-2038" y="-483"/>
      <point x="-1924" y="-583"/>
      <point x="-1692" y="-583" type="curve" smooth="yes"/>
      <point x="-1484" y="-583"/>
      <point x="-1368" y="-509"/>
      <point x="-1368" y="-361" type="curve" smooth="yes"/>
      <point x="-1368" y="-358" type="line" smooth="yes"/>
      <point x="-1368" y="-221"/>
      <point x="-1470" y="-144"/>
      <point x="-1638" y="-144" type="curve" smooth="yes"/>
      <point x="-1756" y="-144"/>
      <point x="-1840" y="-194"/>
      <point x="-1877" y="-281" type="curve"/>
      <point x="-1872" y="-332" type="line"/>
      <point x="-1838" y="-293"/>
      <point x="-1776" y="-264"/>
      <point x="-1687" y="-264" type="curve" smooth="yes"/>
      <point x="-1591" y="-264"/>
      <point x="-1535" y="-299"/>
      <point x="-1535" y="-361" type="curve" smooth="yes"/>
      <point x="-1535" y="-364" type="line" smooth="yes"/>
      <point x="-1535" y="-429"/>
      <point x="-1596" y="-462"/>
      <point x="-1694" y="-462" type="curve" smooth="yes"/>
      <point x="-1812" y="-462"/>
      <point x="-1871" y="-415"/>
      <point x="-1871" y="-321" type="curve" smooth="yes"/>
      <point x="-1871" y="-303" type="line"/>
      <point x="-1865" y="-274" type="line"/>
      <point x="-1878" y="-274" type="line"/>
      <point x="-1878" y="-122.427"/>
      <point x="-1753.35" y="-39"/>
      <point x="-1519" y="-39" type="curve" smooth="yes"/>
      <point x="-1283" y="-39"/>
      <point x="-1159" y="-120"/>
      <point x="-1159" y="-275" type="curve" smooth="yes"/>
      <point x="-1159" y="-328" type="line"/>
      <point x="-1042" y="-292" type="line"/>
      <point x="-1078" y="-95" type="line"/>
      <point x="-1134" y="28"/>
      <point x="-1282" y="91"/>
    </contour>
  </outline>
</glyph>
<glyph name="zero.mlm" format="2">
  <advance width="1496"/>
  <unicode hex="0D66"/>
  <outline>
    <contour>
      <point x="748" y="183" type="curve" smooth="yes"/>
      <point x="475" y="183"/>
      <point x="332" y="312"/>
      <point x="332" y="559" type="curve" smooth="yes"/>
      <point x="332" y="577" type="line" smooth="yes"/>
      <point x="332" y="826"/>
      <point x="475" y="953"/>
      <point x="748" y="953" type="curve" smooth="yes"/>
      <point x="1022" y="953"/>
      <point x="1164" y="826"/>
      <point x="1164" y="577" type="curve" smooth="yes"/>
      <point x="1164" y="559" type="line" smooth="yes"/>
      <point x="1164" y="312"/>
      <point x="1022" y="183"/>
    </contour>
    <contour>
      <point x="748" y="4" type="curve" smooth="yes"/>
      <point x="1159" y="4"/>
      <point x="1373" y="193"/>
      <point x="1373" y="557" type="curve" smooth="yes"/>
      <point x="1373" y="575" type="line" smooth="yes"/>
      <point x="1373" y="944"/>
      <point x="1159" y="1131"/>
      <point x="748" y="1131" type="curve" smooth="yes"/>
      <point x="338" y="1131"/>
      <point x="123" y="944"/>
      <point x="123" y="575" type="curve" smooth="yes"/>
      <point x="123" y="557" type="line" smooth="yes"/>
      <point x="123" y="193"/>
      <point x="338" y="4"/>
    </contour>
  </outline>
</glyph>
<glyph name="three.mlm" format="2">
  <advance width="2726"/>
  <unicode hex="0D69"/>
  <outline>
    <contour>
      <point x="1047" y="577" type="line"/>
      <point x="1047" y="6" type="line"/>
      <point x="1252" y="6" type="line"/>
      <point x="1252" y="577" type="line"/>
    </contour>
    <contour>
      <point x="134" y="563" type="curve" smooth="yes"/>
      <point x="134" y="546" type="line" smooth="yes"/>
      <point x="134" y="321"/>
      <point x="199.267" y="133"/>
      <point x="323" y="0" type="curve"/>
      <point x="547" y="0" type="line"/>
      <point x="417" y="153"/>
      <point x="343" y="333"/>
      <point x="343" y="546" type="curve" smooth="yes"/>
      <point x="343" y="563" type="line" smooth="yes"/>
      <point x="343" y="845"/>
      <point x="464" y="986"/>
      <point x="713" y="986" type="curve" smooth="yes"/>
      <point x="937" y="986"/>
      <point x="1047" y="865"/>
      <point x="1047" y="627" type="curve" smooth="yes"/>
      <point x="1047" y="445" type="line"/>
      <point x="1148" y="445" type="line"/>
      <point x="1147" y="850" type="line"/>
      <point x="1111" y="1045"/>
      <point x="966" y="1169"/>
      <point x="691" y="1169" type="curve" smooth="yes"/>
      <point x="322" y="1169"/>
      <point x="134" y="965"/>
    </contour>
    <contour>
      <point x="2166" y="568" type="line" smooth="yes"/>
      <point x="2166" y="968.329"/>
      <point x="1978" y="1169"/>
      <point x="1608" y="1169" type="curve" smooth="yes"/>
      <point x="1335" y="1169"/>
      <point x="1188" y="1046"/>
      <point x="1153" y="850" type="curve"/>
      <point x="1110" y="850" type="line"/>
      <point x="1110" y="445" type="line"/>
      <point x="1252" y="439" type="line"/>
      <point x="1252" y="627" type="line" smooth="yes"/>
      <point x="1252" y="865"/>
      <point x="1363" y="986"/>
      <point x="1586" y="986" type="curve" smooth="yes"/>
      <point x="1835" y="986"/>
      <point x="1957" y="845"/>
      <point x="1957" y="563" type="curve" smooth="yes"/>
      <point x="1957" y="546" type="line" smooth="yes"/>
      <point x="1957" y="339"/>
      <point x="1888" y="164"/>
      <point x="1763" y="12" type="curve"/>
      <point x="1763" y="0" type="line"/>
      <point x="1940" y="0" type="line"/>
      <point x="2087.27" y="133.996"/>
      <point x="2166" y="313.306"/>
      <point x="2166" y="551" type="curve" smooth="yes"/>
    </contour>
    <contour>
      <point x="1968" y="163" type="line"/>
      <point x="1764" y="0" type="line"/>
      <point x="2660" y="0" type="line"/>
      <point x="2691" y="163" type="line"/>
    </contour>
  </outline>
</glyph>
<glyph name="five.mlm" format="2">
  <advance width="2672"/>
  <unicode hex="0D6B"/>
  <outline>
    <contour>
      <point x="2332" y="583" type="curve" smooth="yes"/>
      <point x="2332" y="570" type="line" smooth="yes"/>
      <point x="2332" y="363"/>
      <point x="2286" y="173"/>
      <point x="2195" y="-2" type="curve"/>
      <point x="2407" y="-2" type="line"/>
      <point x="2490" y="141"/>
      <point x="2538" y="354"/>
      <point x="2538" y="570" type="curve" smooth="yes"/>
      <point x="2538" y="585" type="line" smooth="yes"/>
      <point x="2538" y="1221"/>
      <point x="2135" y="1548"/>
      <point x="1347" y="1548" type="curve" smooth="yes"/>
      <point x="546" y="1548"/>
      <point x="132" y="1198"/>
      <point x="132" y="525" type="curve" smooth="yes"/>
      <point x="132" y="505" type="line" smooth="yes"/>
      <point x="132" y="-91"/>
      <point x="471" y="-411"/>
      <point x="1137" y="-411" type="curve" smooth="yes"/>
      <point x="1655" y="-411"/>
      <point x="1940" y="-230"/>
      <point x="1940" y="111" type="curve" smooth="yes"/>
      <point x="1940" y="121" type="line" smooth="yes"/>
      <point x="1940" y="309"/>
      <point x="1832" y="425"/>
      <point x="1612" y="455" type="curve"/>
      <point x="1612" y="461" type="line"/>
      <point x="1802" y="483"/>
      <point x="1896" y="577"/>
      <point x="1896" y="733" type="curve" smooth="yes"/>
      <point x="1896" y="740" type="line" smooth="yes"/>
      <point x="1896" y="972"/>
      <point x="1710" y="1091"/>
      <point x="1348" y="1091" type="curve" smooth="yes"/>
      <point x="929" y="1091"/>
      <point x="723" y="895"/>
      <point x="723" y="496" type="curve" smooth="yes"/>
      <point x="723" y="474" type="line" smooth="yes"/>
      <point x="723" y="305"/>
      <point x="769" y="143"/>
      <point x="843" y="27" type="curve"/>
      <point x="1055" y="27" type="line"/>
      <point x="976" y="163"/>
      <point x="931" y="308"/>
      <point x="931" y="474" type="curve" smooth="yes"/>
      <point x="931" y="496" type="line" smooth="yes"/>
      <point x="931" y="780"/>
      <point x="1067" y="921"/>
      <point x="1354" y="921" type="curve" smooth="yes"/>
      <point x="1576" y="921"/>
      <point x="1687" y="851"/>
      <point x="1687" y="719" type="curve" smooth="yes"/>
      <point x="1687" y="713" type="line" smooth="yes"/>
      <point x="1687" y="602"/>
      <point x="1606" y="548"/>
      <point x="1439" y="544" type="curve" smooth="yes"/>
      <point x="1251" y="539" type="line"/>
      <point x="1251" y="375" type="line"/>
      <point x="1439" y="371" type="line" smooth="yes"/>
      <point x="1637" y="367"/>
      <point x="1732" y="290"/>
      <point x="1732" y="131" type="curve" smooth="yes"/>
      <point x="1732" y="123" type="line" smooth="yes"/>
      <point x="1732" y="-112"/>
      <point x="1533" y="-245"/>
      <point x="1136" y="-245" type="curve" smooth="yes"/>
      <point x="600" y="-245"/>
      <point x="339" y="16"/>
      <point x="339" y="507" type="curve" smooth="yes"/>
      <point x="339" y="526" type="line" smooth="yes"/>
      <point x="339" y="1089"/>
      <point x="677" y="1378"/>
      <point x="1347" y="1378" type="curve" smooth="yes"/>
      <point x="2009" y="1378"/>
      <point x="2332" y="1107"/>
    </contour>
  </outline>
</glyph>
<glyph name="eight.mlm" format="2">
  <advance width="2301"/>
  <unicode hex="0D6E"/>
  <outline>
    <contour>
      <point x="2079" y="160" type="line"/>
      <point x="1262" y="160" type="line"/>
      <point x="1042" y="0" type="line"/>
      <point x="2079" y="0" type="line"/>
    </contour>
    <contour>
      <point x="1912" y="134" type="line"/>
      <point x="1912" y="65" type="line" smooth="yes"/>
      <point x="1912" y="-202"/>
      <point x="1735" y="-311"/>
      <point x="1407" y="-311" type="curve" smooth="yes"/>
      <point x="1257" y="-311"/>
      <point x="1127" y="-295"/>
      <point x="1031" y="-268" type="curve"/>
      <point x="1076" y="-435" type="line"/>
      <point x="1182" y="-466"/>
      <point x="1306" y="-476"/>
      <point x="1435" y="-476" type="curve" smooth="yes"/>
      <point x="1879" y="-476"/>
      <point x="2117" y="-306"/>
      <point x="2117" y="56" type="curve" smooth="yes"/>
      <point x="2117" y="1130" type="line"/>
      <point x="1912" y="1130" type="line"/>
    </contour>
    <contour>
      <point x="793" y="996" type="curve" smooth="yes"/>
      <point x="1089" y="996"/>
      <point x="1241" y="842"/>
      <point x="1241" y="539" type="curve" smooth="yes"/>
      <point x="1241" y="524" type="line" smooth="yes"/>
      <point x="1241" y="323"/>
      <point x="1163" y="152"/>
      <point x="1041" y="12" type="curve"/>
      <point x="1041" y="0" type="line"/>
      <point x="1215" y="0" type="line"/>
      <point x="1372.81" y="129.243"/>
      <point x="1450" y="301.955"/>
      <point x="1450" y="531" type="curve" smooth="yes"/>
      <point x="1450" y="547" type="line" smooth="yes"/>
      <point x="1450" y="957.576"/>
      <point x="1226" y="1175"/>
      <point x="793" y="1175" type="curve" smooth="yes"/>
      <point x="360" y="1175"/>
      <point x="134" y="959"/>
      <point x="134" y="538" type="curve" smooth="yes"/>
      <point x="134" y="522" type="line" smooth="yes"/>
      <point x="134" y="306"/>
      <point x="201.242" y="126"/>
      <point x="322" y="0" type="curve"/>
      <point x="545" y="0" type="line"/>
      <point x="420" y="145"/>
      <point x="343" y="319"/>
      <point x="343" y="522" type="curve" smooth="yes"/>
      <point x="343" y="539" type="line" smooth="yes"/>
      <point x="343" y="842"/>
      <point x="498" y="996"/>
    </contour>
  </outline>
</glyph>
<glyph name="nine.mlm" format="2">
  <advance width="2656"/>
  <unicode hex="0D6F"/>
  <outline>
    <contour>
      <point x="1064" y="572" type="line"/>
      <point x="1064" y="6" type="line"/>
      <point x="1268" y="6" type="line"/>
      <point x="1268" y="572" type="line"/>
    </contour>
    <contour>
      <point x="720" y="986" type="curve" smooth="yes"/>
      <point x="949" y="986"/>
      <point x="1064" y="866"/>
      <point x="1064" y="628" type="curve" smooth="yes"/>
      <point x="1064" y="439" type="line"/>
      <point x="1168" y="445" type="line"/>
      <point x="1166" y="844" type="line"/>
      <point x="1131" y="1047"/>
      <point x="980" y="1169"/>
      <point x="698" y="1169" type="curve" smooth="yes"/>
      <point x="325" y="1169"/>
      <point x="134" y="965"/>
      <point x="134" y="563" type="curve" smooth="yes"/>
      <point x="134" y="546" type="line" smooth="yes"/>
      <point x="134" y="321"/>
      <point x="194.513" y="133"/>
      <point x="321" y="0" type="curve"/>
      <point x="544" y="0" type="line"/>
      <point x="416" y="153"/>
      <point x="343" y="333"/>
      <point x="343" y="546" type="curve" smooth="yes"/>
      <point x="343" y="563" type="line" smooth="yes"/>
      <point x="343" y="845"/>
      <point x="467" y="986"/>
    </contour>
    <contour>
      <point x="1766" y="998" type="curve" smooth="yes"/>
      <point x="1889" y="998"/>
      <point x="1993" y="973"/>
      <point x="2076" y="933" type="curve"/>
      <point x="2142" y="893" type="line"/>
      <point x="2256" y="804"/>
      <point x="2319" y="668"/>
      <point x="2319" y="479" type="curve" smooth="yes"/>
      <point x="2319" y="466" type="line" smooth="yes"/>
      <point x="2319" y="251"/>
      <point x="2237" y="134"/>
      <point x="2062" y="134" type="curve" smooth="yes"/>
      <point x="1909" y="134"/>
      <point x="1821" y="219"/>
      <point x="1821" y="375" type="curve" smooth="yes"/>
      <point x="1821" y="385" type="line" smooth="yes"/>
      <point x="1821" y="603"/>
      <point x="1976" y="734"/>
      <point x="2215" y="885" type="curve"/>
      <point x="2285" y="944" type="line"/>
      <point x="2410" y="1035"/>
      <point x="2492" y="1143"/>
      <point x="2492" y="1302" type="curve" smooth="yes"/>
      <point x="2492" y="1397"/>
      <point x="2465" y="1481"/>
      <point x="2414" y="1550" type="curve"/>
      <point x="2223" y="1550" type="line"/>
      <point x="2280" y="1466"/>
      <point x="2300" y="1393"/>
      <point x="2300" y="1306" type="curve" smooth="yes"/>
      <point x="2300" y="1192"/>
      <point x="2242" y="1107"/>
      <point x="2138" y="1035" type="curve"/>
      <point x="2074" y="983" type="line"/>
      <point x="1822" y="831"/>
      <point x="1614" y="677"/>
      <point x="1614" y="385" type="curve" smooth="yes"/>
      <point x="1614" y="369" type="line" smooth="yes"/>
      <point x="1614" y="109"/>
      <point x="1771" y="-36"/>
      <point x="2061" y="-36" type="curve" smooth="yes"/>
      <point x="2370" y="-36"/>
      <point x="2527" y="142"/>
      <point x="2527" y="466" type="curve" smooth="yes"/>
      <point x="2527" y="484" type="line" smooth="yes"/>
      <point x="2527" y="728"/>
      <point x="2433" y="903"/>
      <point x="2283" y="1016" type="curve"/>
      <point x="2216" y="1056" type="line" smooth="yes"/>
      <point x="2096" y="1128"/>
      <point x="1945" y="1169"/>
      <point x="1767" y="1169" type="curve" smooth="yes"/>
      <point x="1436" y="1169"/>
      <point x="1228" y="1051"/>
      <point x="1172" y="844" type="curve"/>
      <point x="1148" y="844" type="line"/>
      <point x="1142" y="517" type="line"/>
      <point x="1268" y="517" type="line"/>
      <point x="1268" y="595" type="line" smooth="yes"/>
      <point x="1268" y="856"/>
      <point x="1439" y="998"/>
    </contour>
  </outline>
</glyph>
